
<svg xmlns="http://www.w3.org/2000/svg" viewBox="0 0 31.9 32" style="enable-background:new 0 0 31.9 32" xml:space="preserve"><path d="M16.1 0c3.6 0 7 1.5 9.4 4.3l.1.1c.1.1.2.3.3.4.2.4.3.8.3 1.2-.1 1.2-1.2 2-2.3 2-.6 0-1.2-.2-1.6-.7L22 7c-2.6-3.3-7.3-3.8-10.5-1.3-.4.3-.8.7-1.1 1-.2.2-.3.4-.4.6-.7 1.1-1.1 2.3-1.1 3.7 0 1.4 1.2 4.1 2.5 6.8s2.8 5.7 3.8 7.3c.4.6 1.1.7 1.6.4.1-.1.3-.2.4-.4 1-1.6 2.6-4.7 3.9-7.3.4-.9.9-1.6 1.2-2.4h-4.1c-.6 0-1.2-.2-1.6-.7-.9-.8-.9-2-.1-2.9l.1-.1c.5-.4 1.1-.7 1.6-.7h7.4c1.2 0 2.3 1 2.3 2.1 0 .1 0 .3-.1.4 0 .1 0 .2-.1.2-.1.5-.3 1-.5 1.4-.8 1.9-1.7 3.8-2.8 5.6-2.1 4-4.8 7.9-6.5 10.4-.7 1-2 1.2-2.9.5-.2-.1-.4-.3-.5-.5-1.7-2.4-4.3-6.3-6.5-10.2-2-3.7-3.7-7.4-3.7-9.6 0-2.6 1-5 2.6-6.9C9 1.5 12.5 0 16.1 0z" style="fill:#618b7c"/></svg>