<svg width="170" height="28" viewBox="0 0 170 28" fill="none" xmlns="http://www.w3.org/2000/svg">
<g clip-path="url(#clip0_850_206014)">
<path d="M11.3475 0.677967C14.3225 0.677967 17.1275 1.91047 19.125 4.29047L19.21 4.33297C19.295 4.41797 19.38 4.58797 19.465 4.67297C19.635 5.01297 19.72 5.31047 19.72 5.65047C19.635 6.62797 18.7425 7.30797 17.85 7.30797C17.3825 7.30797 16.8725 7.13797 16.5325 6.75547C16.4475 6.67047 16.3625 6.58547 16.2775 6.50047C14.1525 3.78047 10.2425 3.31297 7.56497 5.43797C7.22497 5.69297 6.92747 5.99047 6.67247 6.24547C6.50247 6.41547 6.41747 6.58547 6.33247 6.71297C5.69497 7.69047 5.35497 8.66797 5.35497 9.77297C5.35497 10.9205 6.33247 13.173 7.39497 15.383C8.45747 17.593 9.73247 20.1005 10.54 21.418C10.88 21.8855 11.4325 21.9705 11.8575 21.758C11.9425 21.673 12.1125 21.588 12.1975 21.418C13.005 20.1005 14.3225 17.508 15.4275 15.383C15.7675 14.6605 16.15 14.0655 16.405 13.428H13.005C12.5375 13.428 12.0275 13.258 11.6875 12.8755C10.965 12.238 10.965 11.1755 11.6025 10.453L11.6875 10.368C12.07 10.028 12.58 9.81547 13.005 9.81547H19.125C20.145 9.81547 20.995 10.623 20.995 11.6005C20.995 11.6855 20.995 11.8555 20.91 11.9405C20.91 12.0255 20.91 12.1105 20.825 12.1105C20.74 12.493 20.57 12.918 20.4425 13.258C19.805 14.8305 19.04 16.403 18.1475 17.8905C16.3625 21.2055 14.1525 24.478 12.7075 26.518C12.155 27.3255 11.05 27.4955 10.285 26.9005C10.115 26.8155 9.94497 26.6455 9.90247 26.518C8.49997 24.563 6.28997 21.248 4.46247 18.0605C2.76247 15.0005 1.40247 11.9405 1.40247 10.0705C1.40247 7.94547 2.20997 5.90547 3.52747 4.37547C5.43997 1.95297 8.37247 0.677967 11.3475 0.677967Z" fill="#618B7C"/>
<path d="M49.895 16.063H44.455C44.455 16.6155 44.795 17.168 45.2625 17.4655C45.73 17.848 46.3675 18.018 46.9625 18.018C47.685 18.018 48.28 17.848 48.8325 17.4655C49.1725 17.2105 49.555 17.2955 49.81 17.5505C50.065 17.8905 50.065 18.273 49.725 18.5705C49.725 18.5705 49.725 18.5705 49.64 18.6555C48.8325 19.208 47.855 19.548 46.7925 19.548C45.6875 19.548 44.6675 19.1655 43.86 18.443C43.0525 17.6355 42.6275 16.573 42.7125 15.383C42.6275 14.278 43.095 13.088 43.86 12.323C44.6675 11.6005 45.645 11.218 46.7075 11.218C47.77 11.218 48.7475 11.558 49.555 12.238C50.3625 12.9605 50.7025 13.8955 50.7025 14.9155V15.1705C50.83 15.5955 50.4475 16.063 49.895 16.063ZM44.455 14.7455H49.0875C49.1725 14.108 48.9175 13.598 48.45 13.173C47.9825 12.7905 47.43 12.6205 46.8775 12.6205C46.24 12.6205 45.73 12.8755 45.22 13.173C44.795 13.598 44.455 14.108 44.455 14.7455Z" fill="black"/>
<path d="M53.9749 14.958V18.4855C53.9749 18.953 53.5924 19.378 53.0824 19.378C52.6149 19.378 52.1899 18.9955 52.1899 18.4855V12.153C52.1899 11.6855 52.5724 11.2605 53.0824 11.2605C53.5499 11.2605 53.9749 11.643 53.9749 12.153V12.7905C54.2299 12.323 54.6974 11.813 55.1224 11.643C55.6749 11.388 56.2699 11.2605 56.9074 11.2605C57.6299 11.2605 58.2249 11.6005 58.7774 12.068C59.4149 12.7055 59.7549 13.5555 59.6699 14.4905V18.5705C59.6699 19.038 59.2874 19.463 58.7774 19.463C58.3099 19.463 57.8849 19.0805 57.8849 18.5705V14.9155C57.8849 13.428 57.2474 12.7055 56.0999 12.7055C55.5474 12.7055 54.9524 12.8755 54.5274 13.258C54.1449 13.683 53.8899 14.3205 53.9749 14.958Z" fill="black"/>
<path d="M68.17 16.063H62.73C62.73 16.6155 63.07 17.168 63.5375 17.4655C64.005 17.848 64.6425 18.018 65.2375 18.018C65.96 18.018 66.555 17.848 67.1075 17.4655C67.4475 17.2105 67.83 17.2955 68.085 17.5505C68.34 17.8905 68.34 18.273 68 18.5705C68 18.5705 68 18.5705 67.915 18.6555C67.1075 19.208 66.13 19.548 65.0675 19.548C62.8575 19.633 61.0725 17.8905 60.9875 15.723C60.9875 15.638 60.9875 15.468 60.9875 15.383C60.9025 14.278 61.37 13.088 62.135 12.323C62.9425 11.6005 63.92 11.218 64.9825 11.218C66.0025 11.218 67.0225 11.558 67.83 12.238C68.6375 12.918 68.9775 13.938 68.9775 15.0005V15.1705C69.105 15.5955 68.7225 16.063 68.17 16.063ZM62.7725 14.7455H67.405C67.49 14.108 67.235 13.598 66.7675 13.173C66.3 12.748 65.7475 12.6205 65.195 12.6205C64.5575 12.6205 64.0475 12.8755 63.5375 13.173C62.985 13.598 62.7725 14.108 62.7725 14.7455Z" fill="black"/>
<path d="M167.79 16.063H162.35C162.35 16.6155 162.69 17.168 163.157 17.4655C163.625 17.848 164.262 18.018 164.857 18.018C165.495 18.018 166.09 17.848 166.642 17.4655C166.982 17.2105 167.365 17.2955 167.62 17.5505C167.875 17.8905 167.875 18.273 167.535 18.5705C167.535 18.5705 167.535 18.5705 167.45 18.6555C166.642 19.208 165.665 19.548 164.602 19.548C163.497 19.548 162.477 19.1655 161.67 18.443C160.862 17.6355 160.437 16.573 160.522 15.383C160.437 14.278 160.905 13.088 161.67 12.323C162.477 11.6005 163.455 11.218 164.517 11.218C165.537 11.218 166.557 11.558 167.365 12.238C168.172 12.9605 168.512 13.8955 168.47 14.9155V15.1705C168.682 15.5955 168.257 16.063 167.79 16.063ZM162.35 14.7455H166.982C167.067 14.108 166.812 13.598 166.345 13.173C165.877 12.748 165.325 12.6205 164.772 12.6205C164.135 12.6205 163.625 12.8755 163.115 13.173C162.605 13.598 162.35 14.108 162.35 14.7455Z" fill="black"/>
<path d="M74.545 12.8755C73.9075 12.8755 73.3125 13.2155 72.845 13.683C72.3775 14.4055 72.1225 15.1705 72.2075 15.978V18.5705C72.2075 19.038 71.825 19.463 71.315 19.378C70.8475 19.378 70.4225 18.9955 70.4225 18.4855V12.1105C70.4225 11.643 70.805 11.218 71.315 11.218C71.7825 11.218 72.2075 11.6005 72.2075 12.1105V12.918C72.4625 12.4505 72.845 11.9405 73.3125 11.6855C73.78 11.3455 74.29 11.218 74.8 11.218V12.6205L74.545 12.8755Z" fill="black"/>
<path d="M82.2375 19.378H81.26C81.09 19.378 80.92 19.208 80.92 19.038V18.953C80.92 18.783 80.75 18.613 80.58 18.613C80.495 18.613 80.41 18.613 80.41 18.698C79.7725 19.1655 79.0075 19.5055 78.2 19.4205C77.3925 19.4205 76.7125 19.1655 76.075 18.698C75.5225 18.2305 75.1825 17.5505 75.2675 16.828C75.1825 16.1055 75.6075 15.4255 76.16 15.043C76.8825 14.6605 77.6475 14.4055 78.4975 14.4055H80.3675C80.5375 14.4055 80.7075 14.2355 80.7075 14.0655C80.7075 12.9605 80.07 12.493 78.9225 12.493C78.115 12.493 77.435 12.748 76.7975 13.2155C76.6275 13.3005 76.4575 13.3005 76.415 13.1305L76.0325 12.493C75.9475 12.323 75.9475 12.153 76.1175 12.1105C77.01 11.473 78.0725 11.133 79.1775 11.133C80.07 11.048 80.835 11.388 81.515 11.8555C82.1525 12.408 82.4925 13.258 82.4075 14.1505V19.038C82.535 19.208 82.365 19.378 82.2375 19.378ZM80.7925 16.2755V15.893C80.7925 15.723 80.6225 15.553 80.4525 15.553H78.88C77.6475 15.553 77.095 15.9355 77.095 16.7005C77.095 17.083 77.265 17.423 77.5625 17.593C78.455 18.0605 79.4325 17.9755 80.24 17.423C80.58 17.253 80.7925 16.8705 80.7925 16.2755Z" fill="black"/>
<path d="M149.515 19.378H148.537C148.367 19.378 148.197 19.208 148.197 19.038V18.953C148.197 18.783 148.027 18.613 147.857 18.613C147.772 18.613 147.687 18.613 147.687 18.698C147.05 19.1655 146.285 19.5055 145.477 19.4205C144.67 19.4205 143.99 19.1655 143.437 18.698C142.885 18.2305 142.545 17.5505 142.545 16.828C142.46 16.1055 142.885 15.4255 143.437 15.043C144.16 14.6605 144.925 14.4055 145.775 14.4055H147.645C147.815 14.4055 147.985 14.2355 147.985 14.0655C147.985 12.9605 147.347 12.493 146.2 12.493C145.562 12.493 144.967 12.663 144.415 12.9605C144.075 13.1305 143.692 13.0455 143.522 12.7905C143.267 12.4505 143.352 12.068 143.692 11.813C144.585 11.3455 145.477 11.0055 146.455 11.0055C147.347 10.9205 148.112 11.2605 148.792 11.728C149.43 12.2805 149.812 13.1305 149.77 14.023V19.038C149.812 19.208 149.642 19.378 149.515 19.378ZM148.112 16.2755V15.893C148.112 15.723 147.942 15.553 147.772 15.553H146.2C144.967 15.553 144.415 15.9355 144.415 16.7005C144.415 17.083 144.585 17.423 144.882 17.593C145.265 17.848 145.69 17.933 146.115 17.933C146.54 17.933 147.135 17.763 147.517 17.4655C147.942 17.253 148.112 16.8705 148.112 16.2755Z" fill="black"/>
<path d="M86.4025 12.6205V16.7005C86.4025 17.0405 86.4875 17.338 86.7425 17.678C86.9975 17.933 87.295 18.0605 87.635 18.018C87.805 18.018 88.0175 17.933 88.1875 17.848C88.5275 17.678 88.91 17.763 89.08 18.103V18.188C89.25 18.528 89.165 18.9105 88.825 19.0805C88.3575 19.4205 87.8475 19.463 87.3375 19.463C86.615 19.463 86.02 19.123 85.5525 18.6555C85 18.103 84.745 17.423 84.745 16.6155V12.6205H84.15C83.895 12.6205 83.6825 12.4505 83.6825 12.238V11.7705C83.6825 11.5155 83.9375 11.303 84.15 11.303H84.7025V9.73047C84.7025 9.26297 85.085 8.83797 85.595 8.83797C86.0625 8.83797 86.4875 9.17797 86.4875 9.64547C86.4875 9.64547 86.4875 9.64547 86.4875 9.73047V11.388H87.89C88.2725 11.388 88.6125 11.728 88.6125 12.1105C88.6125 12.493 88.2725 12.833 87.89 12.833L86.4025 12.6205Z" fill="black"/>
<path d="M90.3125 9.68797C89.93 9.30547 89.93 8.58297 90.3125 8.11547C90.5675 7.86047 90.78 7.77547 91.12 7.77547C91.46 7.77547 91.6725 7.86047 91.9275 8.11547C92.31 8.49797 92.31 9.22047 91.9275 9.60297C91.6725 9.85797 91.46 9.94297 91.12 9.94297C90.78 10.028 90.5675 9.85797 90.3125 9.68797ZM91.035 19.378C90.5675 19.378 90.1425 18.9955 90.1425 18.4855V12.153C90.1425 11.6855 90.525 11.2605 91.035 11.2605C91.5025 11.2605 91.9275 11.643 91.9275 12.153V18.4855C91.885 18.953 91.46 19.378 91.035 19.378Z" fill="black"/>
<path d="M100.597 18.2305C98.8975 19.888 96.22 19.888 94.5625 18.2305C92.905 16.573 92.905 13.9805 94.5625 12.3655C96.2625 10.793 98.94 10.793 100.597 12.3655C102.255 14.023 102.255 16.6155 100.597 18.2305ZM95.8375 17.253C96.8575 18.273 98.515 18.273 99.4925 17.253C100.47 16.148 100.47 14.4905 99.4925 13.513C98.4725 12.493 96.815 12.493 95.8375 13.513C94.8175 14.4905 94.775 16.148 95.8375 17.253Z" fill="black"/>
<path d="M105.017 14.958V18.4855C105.017 18.953 104.635 19.378 104.125 19.378C103.657 19.378 103.232 18.9955 103.232 18.4855V12.153C103.232 11.6855 103.615 11.2605 104.125 11.2605C104.592 11.2605 105.017 11.643 105.017 12.153V12.7905C105.272 12.323 105.74 11.813 106.165 11.643C106.717 11.303 107.312 11.2605 107.95 11.2605C108.672 11.2605 109.267 11.6005 109.82 12.068C110.457 12.7055 110.797 13.5555 110.712 14.4905V18.5705C110.712 19.038 110.33 19.463 109.82 19.463C109.352 19.463 108.927 19.0805 108.927 18.5705V15.043C108.927 13.5555 108.29 12.833 107.057 12.833C106.505 12.833 105.91 13.003 105.485 13.3855C105.145 13.683 105.017 14.3205 105.017 14.958Z" fill="black"/>
<path d="M120.487 19.378C119.85 19.378 119.34 18.9955 119.085 18.4005L115.685 10.028C115.515 9.56047 115.685 9.00797 116.152 8.88047C116.237 8.79547 116.407 8.79547 116.492 8.79547C116.875 8.79547 117.215 9.05047 117.385 9.34797L120.36 16.743L123.42 9.34797C123.59 9.00797 123.887 8.79547 124.312 8.79547C124.865 8.79547 125.29 9.17797 125.29 9.77297C125.29 9.94297 125.29 10.028 125.205 10.1555L121.805 18.528C121.55 18.953 121.04 19.378 120.487 19.378Z" fill="black"/>
<path d="M132.6 18.2305C130.9 19.888 128.223 19.888 126.565 18.2305C124.908 16.573 124.908 13.9805 126.565 12.3655C128.265 10.793 130.943 10.793 132.6 12.3655C134.215 14.023 134.215 16.6155 132.6 18.2305ZM127.798 17.253C128.818 18.273 130.475 18.273 131.41 17.253C132.388 16.148 132.388 14.4905 131.41 13.513C130.39 12.493 128.733 12.493 127.798 13.513C126.82 14.4905 126.82 16.148 127.798 17.253Z" fill="black"/>
<path d="M136.17 22.608C135.702 22.608 135.192 22.523 134.852 22.268C134.47 22.013 134.3 21.5455 134.512 21.163C134.682 20.7805 135.15 20.6105 135.532 20.7805C135.702 20.8655 135.872 20.8655 136 20.8655C136.382 20.8655 136.722 20.6955 136.977 20.483C137.232 20.228 137.317 19.9305 137.317 19.5905C137.317 19.4205 136.34 16.998 134.385 12.1955C134.215 11.8555 134.385 11.473 134.767 11.303C134.852 11.303 134.937 11.218 135.022 11.218H135.405C135.66 11.218 135.872 11.388 136.042 11.6005L138.337 17.2105L140.632 11.6855C140.717 11.4305 140.972 11.303 141.27 11.303H141.652C142.035 11.303 142.29 11.643 142.29 12.0255C142.29 12.1105 142.29 12.1955 142.205 12.2805L138.55 20.9505C138.295 21.418 137.997 21.928 137.53 22.183C137.147 22.438 136.637 22.608 136.17 22.608Z" fill="black"/>
<path d="M158.27 11.303C158.737 11.303 159.162 11.6855 159.162 12.1955V18.4005C159.417 20.5255 157.845 22.3955 155.72 22.6505C155.465 22.6505 155.252 22.6505 154.997 22.6505C154.02 22.6505 153.212 22.3955 152.32 21.928C151.937 21.673 151.852 21.2055 152.065 20.823C152.32 20.483 152.702 20.3555 153.085 20.568C153.637 20.908 154.232 21.0355 154.87 21.0355C155.592 21.1205 156.187 20.8655 156.74 20.398C157.292 19.8455 157.547 19.1655 157.462 18.443V17.4655C157.207 17.933 156.825 18.358 156.357 18.5705C155.89 18.9105 155.337 18.953 154.785 18.953C153.765 18.953 152.83 18.5705 152.107 17.848C151.385 17.0405 151.002 16.148 151.087 15.0855C151.087 14.0655 151.427 13.0455 152.107 12.323C152.83 11.6005 153.765 11.218 154.7 11.218C155.72 11.218 156.74 11.6855 157.292 12.5355V12.153C157.462 11.643 157.802 11.303 158.27 11.303ZM152.915 14.958C152.915 15.5955 153.17 16.1905 153.552 16.658C153.935 17.1255 154.572 17.4655 155.21 17.3805C155.847 17.3805 156.442 17.1255 156.867 16.658C157.335 16.1905 157.59 15.553 157.505 14.958C157.505 14.3205 157.25 13.7255 156.867 13.258C156.485 12.7905 155.847 12.5355 155.21 12.5355C154.572 12.5355 153.977 12.7905 153.552 13.258C153.127 13.7255 152.915 14.3205 152.915 14.958Z" fill="black"/>
<path d="M41.7775 14.3205C41.8625 15.638 41.31 16.913 40.375 17.848C38.505 19.888 35.19 20.058 33.15 18.103C33.065 18.018 32.98 17.933 32.895 17.848C30.855 15.638 30.855 12.1955 32.895 9.98547C34.765 7.94547 37.995 7.77547 40.12 9.64547C40.205 9.73047 40.29 9.81547 40.46 9.98547C40.63 10.1555 40.715 10.368 40.715 10.623C40.715 11.0905 40.3325 11.5155 39.8225 11.5155C39.5675 11.5155 39.355 11.4305 39.185 11.1755C38.5475 10.453 37.6125 10.1555 36.6775 10.1555C35.7425 10.1555 34.8075 10.538 34.17 11.2605C32.7675 12.748 32.7675 15.0005 34.17 16.6155C35.4875 18.018 37.6975 18.103 39.0575 16.7855C39.1425 16.7005 39.1425 16.7005 39.2275 16.6155C39.61 16.233 39.95 15.723 40.035 15.298H37.4425C36.975 15.298 36.55 14.9155 36.55 14.4055C36.55 13.938 36.9325 13.513 37.4425 13.513H40.97C41.395 13.513 41.7775 13.853 41.7775 14.3205Z" fill="black"/>
</g>
<defs>
<clipPath id="clip0_850_206014">
<rect width="170" height="27.03" fill="white" transform="translate(0 0.465469)"/>
</clipPath>
</defs>
</svg>
