<svg xmlns="http://www.w3.org/2000/svg" viewBox="0 0 170 28" style="enable-background:new 0 0 170 28" xml:space="preserve"><path d="M11.3.7c3 0 5.8 1.2 7.8 3.6h.1c.1.1.2.3.3.3.2.3.3.6.3 1-.1 1-1 1.7-1.9 1.7-.5 0-1-.2-1.3-.6l-.3-.3c-2.1-2.7-6-3.2-8.7-1.1l-.9.9c-.2.2-.3.4-.4.5-.6 1-1 2-1 3.1s1 3.4 2 5.6 2.3 4.7 3.1 6c.3.5.9.6 1.3.3.1-.1.3-.2.3-.3.8-1.3 2.1-3.9 3.2-6 .3-.7.7-1.3 1-2H13c-.5 0-1-.2-1.3-.6-.7-.6-.7-1.7-.1-2.4l.1-.1c.4-.3.9-.6 1.3-.6h6.1c1 0 1.9.8 1.9 1.8 0 .1 0 .3-.1.3 0 .1 0 .2-.1.2-.1.4-.3.8-.4 1.1-.6 1.6-1.4 3.1-2.3 4.6-1.8 3.3-4 6.6-5.4 8.6-.6.8-1.7 1-2.4.4-.2-.1-.3-.3-.4-.4-1.4-2-3.6-5.3-5.4-8.5-1.7-3.1-3.1-6.1-3.1-8 0-2.1.8-4.2 2.1-5.7C5.4 2 8.4.7 11.3.7z" style="fill:#618b7c"/><path d="M49.9 16.1h-5.4c0 .6.3 1.1.8 1.4.5.4 1.1.6 1.7.6.7 0 1.3-.2 1.9-.6.3-.3.7-.2 1 .1.3.3.3.7-.1 1l-.1.1c-.8.6-1.8.9-2.8.9-1.1 0-2.1-.4-2.9-1.1-.8-.8-1.2-1.9-1.1-3.1-.1-1.1.4-2.3 1.1-3.1.8-.7 1.8-1.1 2.8-1.1s2 .3 2.8 1c.8.7 1.1 1.7 1.1 2.7v.3c.1.4-.3.9-.8.9zm-5.4-1.4h4.6c.1-.6-.2-1.1-.6-1.6-.5-.4-1-.6-1.6-.6-.6 0-1.1.3-1.7.6-.4.5-.7 1-.7 1.6z"/><path d="M54 15v3.5c0 .5-.4.9-.9.9s-.9-.4-.9-.9v-6.3c0-.5.4-.9.9-.9s.9.4.9.9v.6c.3-.5.7-1 1.1-1.1.6-.3 1.1-.4 1.8-.4s1.3.3 1.9.8c.6.6 1 1.5.9 2.4v4.1c0 .5-.4.9-.9.9s-.9-.4-.9-.9v-3.7c0-1.5-.6-2.2-1.8-2.2-.6 0-1.1.2-1.6.6-.4.4-.6 1-.5 1.7z"/><path d="M68.2 16.1h-5.4c0 .6.3 1.1.8 1.4.5.4 1.1.6 1.7.6.7 0 1.3-.2 1.9-.6.3-.3.7-.2 1 .1.3.3.3.7-.1 1l-.1.1c-.8.6-1.8.9-2.8.9-2.2.1-4-1.7-4.1-3.8v-.3c-.1-1.1.4-2.3 1.1-3.1.8-.7 1.8-1.1 2.8-1.1 1 0 2 .3 2.8 1 .8.7 1.1 1.7 1.1 2.8v.2c.2.3-.2.8-.7.8zm-5.4-1.4h4.6c.1-.6-.2-1.1-.6-1.6-.5-.4-1-.6-1.6-.6-.6 0-1.1.3-1.7.6-.5.5-.7 1-.7 1.6z"/><path d="M167.8 16.1h-5.4c0 .6.3 1.1.8 1.4.5.4 1.1.6 1.7.6.6 0 1.2-.2 1.8-.6.3-.3.7-.2 1 .1.3.3.3.7-.1 1l-.1.1c-.8.6-1.8.9-2.8.9-1.1 0-2.1-.4-2.9-1.1-.8-.8-1.2-1.9-1.1-3.1-.1-1.1.4-2.3 1.1-3.1.8-.7 1.8-1.1 2.8-1.1 1 0 2 .3 2.8 1 .8.7 1.1 1.7 1.1 2.7v.3c.2.4-.2.9-.7.9zm-5.4-1.4h4.6c.1-.6-.2-1.1-.6-1.6-.5-.4-1-.6-1.6-.6-.6 0-1.1.3-1.7.6-.5.5-.7 1-.7 1.6z"/><path d="M74.5 12.9c-.6 0-1.2.3-1.7.8-.5.7-.7 1.5-.6 2.3v2.6c0 .5-.4.9-.9.8-.5 0-.9-.4-.9-.9v-6.4c0-.5.4-.9.9-.9s.9.4.9.9v.8c.3-.5.6-1 1.1-1.2.5-.3 1-.5 1.5-.5v1.4l-.3.3z"/><path d="M82.2 19.4h-1c-.2 0-.3-.2-.3-.3V19c0-.2-.2-.3-.3-.3-.1 0-.2 0-.2.1-.6.5-1.4.8-2.2.7-.8 0-1.5-.3-2.1-.7-.6-.5-.9-1.1-.8-1.9-.1-.7.3-1.4.9-1.8.7-.4 1.5-.6 2.3-.6h1.9c.2 0 .3-.2.3-.3 0-1.1-.6-1.6-1.8-1.6-.8 0-1.5.3-2.1.7-.2.1-.3.1-.4-.1l-.4-.7c-.1-.2-.1-.3.1-.4.9-.6 2-1 3.1-1 .9-.1 1.7.3 2.3.7.6.6 1 1.4.9 2.3V19c.1.2 0 .4-.2.4zm-1.4-3.1v-.4c0-.2-.2-.3-.3-.3h-1.6c-1.2 0-1.8.4-1.8 1.1 0 .4.2.7.5.9.9.5 1.9.4 2.7-.2.3-.1.5-.5.5-1.1z"/><path d="M149.5 19.4h-1c-.2 0-.3-.2-.3-.3V19c0-.2-.2-.3-.3-.3-.1 0-.2 0-.2.1-.6.5-1.4.8-2.2.7-.8 0-1.5-.3-2-.7-.6-.5-.9-1.1-.9-1.9-.1-.7.3-1.4.9-1.8.7-.4 1.5-.6 2.3-.6h1.9c.2 0 .3-.2.3-.3 0-1.1-.6-1.6-1.8-1.6-.6 0-1.2.2-1.8.5-.3.2-.7.1-.9-.2-.3-.3-.2-.7.2-1 .9-.5 1.8-.8 2.8-.8.9-.1 1.7.3 2.3.7.6.6 1 1.4 1 2.3v5c0 .1-.2.3-.3.3zm-1.4-3.1v-.4c0-.2-.2-.3-.3-.3h-1.6c-1.2 0-1.8.4-1.8 1.1 0 .4.2.7.5.9.4.3.8.3 1.2.3.4 0 1-.2 1.4-.5.4-.1.6-.5.6-1.1z"/><path d="M86.4 12.6v4.1c0 .3.1.6.3 1 .3.3.6.4.9.3.2 0 .4-.1.6-.2.3-.2.7-.1.9.3v.1c.2.3.1.7-.3.9-.5.3-1 .4-1.5.4-.7 0-1.3-.3-1.8-.8-.6-.6-.8-1.2-.8-2v-4h-.6c-.3 0-.5-.2-.5-.4v-.5c0-.3.3-.5.5-.5h.6V9.7c0-.5.4-.9.9-.9s.9.3.9.8v1.8h1.4c.4 0 .7.3.7.7 0 .4-.3.7-.7.7l-1.5-.2z"/><path d="M90.3 9.7c-.4-.4-.4-1.1 0-1.6.3-.3.5-.3.8-.3.3 0 .6.1.8.3.4.4.4 1.1 0 1.5-.3.3-.5.3-.8.3-.3.1-.5 0-.8-.2zm.7 9.7c-.5 0-.9-.4-.9-.9v-6.3c0-.5.4-.9.9-.9s.9.4.9.9v6.3c0 .5-.4.9-.9.9z"/><path d="M100.6 18.2c-1.7 1.7-4.4 1.7-6 0-1.7-1.7-1.7-4.2 0-5.9 1.7-1.6 4.4-1.6 6 0 1.7 1.7 1.7 4.3 0 5.9zm-4.8-.9c1 1 2.7 1 3.7 0 1-1.1 1-2.8 0-3.7-1-1-2.7-1-3.7 0-1 .9-1 2.5 0 3.7z"/><path d="M105 15v3.5c0 .5-.4.9-.9.9s-.9-.4-.9-.9v-6.3c0-.5.4-.9.9-.9s.9.4.9.9v.6c.3-.5.7-1 1.1-1.1.6-.3 1.1-.4 1.8-.4s1.3.3 1.9.8c.6.6 1 1.5.9 2.4v4.1c0 .5-.4.9-.9.9s-.9-.4-.9-.9V15c0-1.5-.6-2.2-1.9-2.2-.6 0-1.1.2-1.6.6-.3.3-.4.9-.4 1.6z"/><path d="M120.5 19.4c-.6 0-1.1-.4-1.4-1l-3.4-8.4c-.2-.5 0-1 .5-1.1.1-.1.3-.1.3-.1.4 0 .7.3.9.6l3 7.4 3.1-7.4c.2-.3.5-.6.9-.6.6 0 1 .4 1 1 0 .2 0 .3-.1.4l-3.4 8.4c-.3.4-.9.8-1.4.8z"/><path d="M132.6 18.2c-1.7 1.7-4.4 1.7-6 0-1.7-1.7-1.7-4.2 0-5.9 1.7-1.6 4.4-1.6 6 0 1.6 1.7 1.6 4.3 0 5.9zm-4.8-.9c1 1 2.7 1 3.6 0 1-1.1 1-2.8 0-3.7-1-1-2.7-1-3.6 0-1 .9-1 2.5 0 3.7z"/><path d="M136.2 22.6c-.5 0-1-.1-1.3-.3-.4-.3-.6-.7-.3-1.1.2-.4.6-.6 1-.4.2.1.3.1.5.1.4 0 .7-.2 1-.4.3-.3.3-.6.3-.9 0-.2-1-2.6-2.9-7.4-.2-.3 0-.7.4-.9.1 0 .2-.1.3-.1h.4c.3 0 .5.2.6.4l2.3 5.6 2.3-5.5c.1-.3.3-.4.6-.4h.4c.4 0 .6.3.6.7 0 .1 0 .2-.1.3l-3.7 8.7c-.3.5-.6 1-1 1.2-.5.2-1 .4-1.4.4z"/><path d="M158.3 11.3c.5 0 .9.4.9.9v6.2c.3 2.1-1.3 4-3.4 4.2h-.7c-1 0-1.8-.3-2.7-.7-.4-.3-.5-.7-.3-1.1.3-.3.6-.5 1-.3.6.3 1.1.5 1.8.5.7.1 1.3-.2 1.9-.6.6-.6.8-1.2.7-2v-1c-.3.5-.6.9-1.1 1.1-.5.3-1 .4-1.6.4-1 0-2-.4-2.7-1.1-.7-.8-1.1-1.7-1-2.8 0-1 .3-2 1-2.8.7-.7 1.7-1.1 2.6-1.1 1 0 2 .5 2.6 1.3V12c.2-.4.5-.7 1-.7zm-5.4 3.7c0 .6.3 1.2.6 1.7.4.5 1 .8 1.7.7.6 0 1.2-.3 1.7-.7.5-.5.7-1.1.6-1.7 0-.6-.3-1.2-.6-1.7-.4-.5-1-.7-1.7-.7-.6 0-1.2.3-1.7.7-.4.4-.6 1-.6 1.7z"/><path d="M41.8 14.3c.1 1.3-.5 2.6-1.4 3.5-1.9 2-5.2 2.2-7.2.3l-.3-.3c-2-2.2-2-5.7 0-7.9 1.9-2 5.1-2.2 7.2-.3l.3.3c.2.2.3.4.3.6 0 .5-.4.9-.9.9-.3 0-.5-.1-.6-.3-.6-.7-1.6-1-2.5-1-.9 0-1.9.4-2.5 1.1-1.4 1.5-1.4 3.7 0 5.4 1.3 1.4 3.5 1.5 4.9.2l.2-.2c.4-.4.7-.9.8-1.3h-2.6c-.5 0-.9-.4-.9-.9s.4-.9.9-.9H41c.4 0 .8.4.8.8z"/></svg>