<svg xmlns="http://www.w3.org/2000/svg" viewBox="0 0 1543.8 1017.8" style="enable-background:new 0 0 1543.8 1017.8" xml:space="preserve"><path fill="#E7DAC6" d="M611.2 1015c-2-26.2.4-49.9 7.3-72.2l1.1-3.4c6.1-19.6 12.5-39.9 24.6-57.2 4.8-6.8 10.3-13.4 15.6-19.7 2.8-3.3 5.6-6.7 8.4-10.2 2.1-2.6 4.1-5.3 6.1-7.9 3.1-4 6.2-8.2 9.6-12.1 13-14.7 26.4-30.9 36.8-49.7l2-3.6c7.4-13.6 15.1-27.7 24.1-40.4 12.7-17.9 25-33.1 37.6-46.3 16.2-17.1 34.1-33.2 51.5-48.8l1.8-1.6c6.2-5.6 12.9-10.9 19.3-16 5.2-4.1 10.6-8.4 15.8-12.8 11.3-9.8 17.9-21.2 19.4-34 1.9-15.7-6.9-31-22.3-39-12-6.2-24.9-9-38.2-11.6-27.7-5.3-56.1-16-89.5-33.6-16.8-8.8-34.7-18.4-51.7-28.9-7.7-4.8-14.3-11.5-20.9-18.6-5-5.3-4.6-12.5-3.5-18.8 2.8-16.9 11-31.4 19.1-44.8 1.7-2.9 3.6-5.8 5.4-8.7 3-4.8 6.2-9.7 8.9-14.8 10.8-19.6 27.4-32.1 49.3-37l7.5-1.7c23.1-5.3 46.9-10.7 70.5-15.5 10.9-2.2 21.8-3.4 32.4-3.4 13.7 0 27.3 1.9 40.5 5.6 6.5 1.8 12.9 3.6 19.4 5.4 19.3 5.4 39.2 10.9 58.5 17.4 22 7.4 39.7 22.4 52.7 44.5 8.7 14.7 8.8 31.2 8 44-1.2 18.5-5 37.9-11.6 59.2-6.7 21.4-15.3 46.5-28.1 69.5-.2.4-.5.8-.8 1.1.3-.9.7-1.9 1.1-2.8 14.2-29 23.8-59.5 30.5-82.7 5.3-18 7.9-36.7 7.9-55.6 0-21.3-9.1-39.7-28-56.2-14.8-12.9-32.8-21.8-58.4-28.7l-8.7-2.3c-16.9-4.6-34.3-9.3-51.6-13.4-10.2-2.4-20.9-3.7-31.8-3.7-11.3 0-23.2 1.3-35.4 4-30.5 6.6-53.6 11.7-75 16.6-22.1 5.1-39 17.9-50.1 38.1-3.4 6.1-7 12.2-10.5 18-3.8 6.3-7.7 12.9-11.3 19.5-6.8 12.5-10.1 23.2-10.3 33.8-.1 7.6 2.9 13.6 9.2 18.4 34.2 26.3 75.3 47.6 129.2 67 7.5 2.7 15.5 4.4 23.3 6 6.1 1.3 12.4 2.6 18.4 4.4 9.7 3 20 6.4 28.6 11.9 9.2 5.7 15.5 14.4 17.8 24.4 2.4 10.5.1 21.9-6.3 31.9-5.9 9.1-12.8 16.8-20 22.2-17.2 12.7-33 27.6-48.2 41.9-6.7 6.3-13.6 12.8-20.5 19-18.9 16.9-36.2 37.2-51.5 60.3-8.8 13.2-16.7 27.4-24.3 41.1-1.2 2.2-2.5 4.4-3.7 6.6-7.7 13.9-17.9 26.2-27.7 37.6-2.8 3.3-5.6 6.5-8.4 9.8-11.7 13.5-23.8 27.6-34.2 42.4-8.6 12.1-14.5 26.5-19.9 40.2-5.3 13.8-9.8 28.9-13.4 44.8-1.8 8.3-2.2 17.1-2.6 25.6-.1 2.2-.2 4.5-.3 6.7-.3 5.3-.3 10.7-.3 16-.2 1.1-.2 2-.2 2.8z"/><path fill="#E7DAC6" d="M1372.4 1006c-4.2-3-8.6-6.2-12.6-9.6-8.1-6.7-17.2-12.9-28.7-13.8-1.1-.1-2.3-.1-3.4-.1-4.7 0-9.3.7-13.5 2-5 1.6-9.9 3.8-14.6 5.8-3.5 1.5-7.2 3.1-10.8 4.5-11.2 4.2-19.9 7.1-28.2 9.5-4.1 1.2-8.2 1.7-12.3 1.7-9.8 0-19.6-3.3-30.1-10.2-19.5-12.8-34.1-30-46.9-46.7-9.3-12.1-20-23.4-30.4-34.4-2-2.2-4.1-4.3-6.1-6.5-7.4-7.9-15-15.7-22.4-23.3-11.9-12.2-24.2-24.9-35.6-37.8-13.2-14.9-21.5-34.2-25.3-58.8-2.6-16.7.6-32.7 4.5-47.4 7.5-28.4 22.4-53.3 35.8-74.4 14.3-22.4 28.7-45.4 42.6-67.6 8.6-13.7 17.5-27.9 26.2-41.8 2.9-4.5 6.1-9.5 9.5-14.6 8.6-12.7 14.9-27.6 18.6-44.1.4-1.9.9-3.9 1.3-5.8 2.6-11 5.2-22.4 4.9-33.6-1.3-45.4-20-63.7-34-73.5-12.4-8.7-24.3-18.4-35.9-27.9-5.4-4.4-11.1-9-16.7-13.4-14.3-11.3-24.7-26.2-31.6-45.4-1.3-3.6-2.6-7.2-4-10.7-5.3-14.1-10.8-28.6-13-43.9-1.1-7.2-2.4-16.7-3.3-26.2-1.4-15.2 4.3-28.5 18-41.8 2.4-2.4 4.9-4.7 7.3-7.1 8.5-8.2 17.2-16.6 24.8-25.9 11.6-14.2 23.9-31.7 27.9-53.7 3.7-20.8 1.3-40.4-7.3-58.2-2.3-4.8-5-9.6-7.6-14.1-2.1-3.7-4.2-7.5-6.2-11.3-1-2-1.5-4.2-2.1-6.5-.1-.6-.3-1.2-.4-1.8 1.4 2.6 2.9 5.2 4.3 7.7 3.4 6.1 7 12.4 10.1 18.9 5.8 12.2 11.3 25.5 12 39.9 1 23-4 42.8-15.6 60.8-11.5 17.8-26.3 34.7-48 55-9.7 9.1-14.8 18.9-15.6 29.8-.4 5.3.1 10.8.7 15.5 2.7 26.6 10.7 53.4 25.8 86.7 6.9 15.3 19.2 26.3 31.2 36.3 8.8 7.2 17.8 14.3 26.6 21.1 8.7 6.9 17.8 13.9 26.5 21.1 10.9 8.9 18.5 21.1 22.6 36.3 5.2 19.2 5.4 39.1.8 59.1-3.2 13.6-7.3 27.5-12.1 41.3-1.7 4.8-4.7 9.4-7.5 13.9-.8 1.3-1.6 2.5-2.4 3.8-14.5 23.5-29.6 47.8-44.6 71.5-4.7 7.4-9.6 14.9-14.3 22.2-7.8 11.9-15.9 24.3-23.2 36.8-9 15.3-19.3 33.1-26.8 51.8-8.4 21.1-11.5 38.7-9.6 55.4 2.3 21.6 9.4 40.5 20.9 56.3 7.9 10.7 16.2 20.6 24.7 29.5 16.4 17.3 31.3 32.2 45.5 45.6 11.7 10.9 21.6 23.7 31.2 36 3.4 4.4 7 9 10.6 13.4 11.1 13.7 24.2 25.2 39 34.3 8.5 5.2 17.1 7.8 25.3 7.8 4.7 0 9.4-.8 14-2.5 13.4-4.8 27.4-10.3 45.4-17.9 6.3-2.6 12.5-4 18.5-4 11.7 0 23.1 5 34.9 15.2 1 .9 2.1 1.8 3.1 2.6 2.1 1.8 4.3 3.6 6.3 5.5.6.6 1.1 1.2 1.6 1.9-.2-.1-.3-.1-.3-.2z"/><path fill="#E7DAC6" d="M1413.9 1014.8c-2-2.6-4-5.1-6-7.7-4.4-5.6-8.8-11.3-13.2-17-12.5-16.5-24-28.5-36.3-37.8-9.9-7.6-19.3-11.2-28.8-11.2-8.2 0-16.2 2.7-24.6 8.2-5.2 3.5-10.5 6.6-15.7 9.5-11.9 6.4-23.9 9.7-35.6 9.7-14.5 0-29-5-42.9-14.9-6.2-4.4-12.4-9.8-19.5-16.9-6.4-6.3-12.7-12.8-18.8-19.1-9.4-9.7-19.1-19.7-29.1-29-16-14.9-29.3-32.4-40.8-53.5-8.6-15.9-13.3-31.4-14.3-47.4-1.8-28.8 3.1-57 15.1-86.3 12.2-29.9 28.2-58 40.8-79.1 10.9-18.3 21.6-37.1 31.9-55.3 1.7-3 3.4-6 5.2-8.9 6-10.2 12.1-20.8 17.3-31.6 9-18.9 12.8-40.4 15.9-57.6 2.1-11.7 2.3-23.8.7-36.9-2.4-20.5-10.1-36.2-23.4-48.2-11.2-9.9-22.3-20.2-33.1-30.2-7.7-7.1-15.7-14.5-23.6-21.7-19.3-17.4-31-40.2-36.9-71.8-5.9-31.4.4-60.3 19.3-88.4 11.3-17 23-34.6 29.7-54.9l2.1-6.3c3.8-11.1 7.7-22.5 8.2-34.8 1-26.2-3.9-48.1-15-67-1.5-2.6-2.8-5.5-4-8.3-.5-1-.9-2-1.4-3h1.3c.7 1.5 1.4 3 2 4.5 1.5 3.4 3.1 7 5 10.3 7.8 14.1 12.2 30 13 47.3 1.3 28-6.1 55.3-23.4 85.9-3.9 7-8.1 13.9-12.2 20.6-4.9 8.1-10 16.4-14.6 24.9-8.9 16.4-12.5 32.7-11.2 49.7 1.4 17.7 5.3 35.2 11.6 52 6.4 17 18.6 29.8 28.5 39.1l6.3 5.9c16.1 15 32.8 30.5 49.6 45.5 12.1 10.8 19.2 24.9 22.5 44.4 4.8 28.3-1.6 54.6-9.7 83.7-5 17.8-14.6 33.6-23.9 49-2 3.4-4.1 6.8-6.2 10.3-2.7 4.6-5.3 9.1-8 13.7-15.8 27-32.1 54.8-47.3 82.7-10.4 19-18.7 38.6-24.7 58.3-6.2 20.5-8.7 41.3-7.3 61.6 1.1 17 6.3 33.4 15.5 48.7 6 10.1 12.9 19.9 19.5 29.4 1.6 2.3 3.3 4.7 4.9 7 1.4 2 3.3 3.6 5.1 5.2.9.8 1.9 1.7 2.8 2.6 3.8 3.9 7.6 7.9 11.3 11.8 8.5 8.9 17.3 18.1 26.3 26.8 11.2 10.8 23.9 23.1 37.8 33.5 13.5 10.2 27.7 15.3 42 15.3 11.1 0 22.4-3.1 33.6-9.2l2.7-1.5c4.2-2.3 8.5-4.6 12.4-7.3 9.5-6.3 18.3-9.4 27.1-9.4 10.3 0 20.5 4.2 32 13.3 11.8 9.3 22.9 21 33.9 35.7 1.4 1.9 2.8 3.8 4.2 5.6 3.2 4.3 6.6 8.7 9.8 13.2 1.4 1.9 2.6 4.1 3.7 6.2.4.2.6.6.9 1.1z"/><path fill="#E7DAC6" d="M1435.1 660.1c-12.5 0-21.2-7.5-24.4-21-2.7-11.3-4.8-22.9-6.9-34.1-.8-4.4-1.6-8.8-2.4-13.1-2.3-11.8-4.6-24-6.7-36.1-.7-3.8-1.4-7.5-2.1-11.3-2.2-11.5-4.4-23.3-5.9-35.1-1.5-11.9-2.2-24.5-2-37.5.2-20.1 3.5-37.7 10-53.7 6-14.8 12.9-26.8 21.3-36.8 11.6-13.8 27.9-20.3 43.7-25.9 14-4.9 26.4-9.8 38-14.9 8.7-3.8 15.4-12.5 17.8-23.1 2.6-11.3 0-22.6-7.2-31-3.2-3.7-6.6-7-10.2-9.7-4-3.1-8.7-4.7-13.9-4.7-2.5 0-5.3.4-8.2 1.1-12.7 3.4-25.2 9.5-38 18.7-13.1 9.5-24.7 14.2-36.5 14.8-1 .1-2.1.1-3.1.1-5.6 0-11.9-.8-19.3-2.4-7.1-1.6-14.4-3.4-21.3-5.2-9.7-2.5-19.6-5.1-29.6-6.9-8.5-1.5-17.4-2.2-25.9-2.9-6-.5-12.3-1-18.3-1.8-13.9-1.9-29.9-4.6-43.9-12.8-19-11.1-28.5-25.7-29-44.9-.4-15.2.3-32.8 9.3-48.4 15.2-26.3 35.1-48.2 59.2-64.9 8.9-6.1 19.1-13.4 27.9-22 4.6-4.5 8.3-10 11.9-15.3 1.6-2.3 3.2-4.7 4.8-7l.6-.6c-1.5 3.6-3 7.3-5.1 10.6-7.8 12.7-19.4 21.6-31.7 30.3-17.2 12.2-36.7 27.5-51.9 47.6l-1.7 2.3c-8.4 11.2-17.1 22.7-19.6 37.6-2 12.1-3.7 23.9-2 35.9 2.3 16.5 12.2 29.1 30.2 38.8 13.9 7.4 29.9 11.4 50.3 12.6 31.1 1.8 59.3 7 86.4 16 5.8 1.9 11.6 2.9 17.3 2.9 11.6 0 23.2-3.9 35.4-11.8l2.9-1.9c10.1-6.6 19.6-12.8 30.6-17.5 6.2-2.6 12-3.9 17.3-3.9 18.1 0 27.5 14.8 32.2 27.3 5.4 14.4-1.9 35.1-15.1 42.7-11.6 6.7-24.3 10.9-36.7 14.8-1.7.6-3.5 1.1-5.2 1.7-13.3 4.5-26 9.2-35.7 18.9-7.4 7.3-13.4 16.4-18.3 24.3-7.7 12.4-13 26.8-17.3 46.7-1 5-1.6 10-1.7 14.9l-.1 3.9c-.3 9-.6 18.2.2 27.3 1.1 12.8 3.3 25.8 5.5 38.3l.4 2c4.5 26.1 9.2 53.2 14.4 79.6 1.9 10 4.9 20.4 8.7 30.7 3.6 9.6 11 14.5 22 14.5 2.7 0 5.6-.3 8.7-.9 12-2.2 21.9-8.5 32.8-16 9.3-6.4 18.6-13.2 27.6-19.8 4.9-3.6 9.9-7.2 14.9-10.8 6.1-4.4 12.6-8.8 20.4-8.8 1.2 0 2.4.1 3.6.3v.6h-.6c-10.9 0-18.7 6.2-26.2 12.2-2.5 2-5.2 4.1-7.9 5.9-16.6 11.3-33.8 23-51.5 33.2-5.5 3.2-13.3 5.1-22 5.3-.6.1-.9.1-1.2.1z"/><path fill="#E7DAC6" d="M521.6 991.1c-.4-2.1-.7-4.3-.9-6.4-1.5-13.3 2-26.7 10.2-39.9 6.2-9.8 13-19.5 19.6-28.8 3.1-4.4 6.3-8.9 9.4-13.4l2.7-4c8.9-12.8 18.1-26 27.3-39 3.7-5.2 7.3-10.3 10.9-15.5 14.9-21.1 30.3-42.9 45.7-64.2 13.9-19.1 22.3-40.8 29.7-61.4 9.5-26.5 21.3-56.9 42.5-82.1 6.1-7.2 13.2-17 14.9-29.4 1.1-7.6-.5-13-5-17.5-10.2-10.1-22-15.3-35.1-15.3h-1.8c-9.1.4-18.4 1.2-27.4 1.9-5.7.5-11.6 1-17.4 1.4l-.9.1c-8.2.6-16.6 1.2-24.9 1.2-9.6 0-18-.8-25.6-2.5-21.8-4.9-36.4-22.5-37.3-44.7-.2-4.3-.3-8.6-.5-12.9-.3-7.1-.5-14.3-.8-21.6 0 .4 0 .8.1 1.2.8 13.9 1.7 28.2 3.3 42.3 1.1 9.6 6.7 18.3 16.1 25 9.1 6.6 19.9 10.3 33 11.3 3.8.3 7.6.4 11.8.4 11.9 0 24-1.2 35.6-2.4 5-.5 10.2-1 15.3-1.4l.8-.1c5.5-.4 11.1-.9 16.6-.9 12.7 0 22.1 2.4 30.4 7.9 15.6 10.2 18.5 20.5 10.7 37.8-3.4 7.7-8.5 15.6-16 24.9-11.5 14.3-20.8 31.1-28.6 51.3-2.1 5.4-4.1 10.9-6.1 16.3-5.2 14.1-10.6 28.7-17.3 42.4-7 14.4-16.4 28-25.5 41.2l-2.4 3.4c-12.3 17.9-25.1 35.8-37.5 53.2-5.3 7.4-10.6 14.8-15.8 22.2-7 9.8-14 19.7-21 29.6-7 9.9-14.1 19.8-21.1 29.6-11.3 16-16.9 29.4-18.1 43.6-.2 5-.2 10.1.4 15.2zm31.2-550.9c-.9-5.2-2-10.5-3.5-15.7-5-16.8-16.7-29.8-37.8-42-6.7-3.9-13.7-7.8-20.4-11.5-11.4-6.3-23.2-12.9-34.4-20-12.7-8.2-24.3-19-35.3-33.2-10.4-13.5-18-28.9-25.3-43.7-2.2-4.6-4.6-9.3-6.9-13.9-10.7-20.8-19.3-36.6-27.8-51.2-3-5.3-5.9-8.8-10.1-8.8-3.3 0-7.1 2.2-12 6.9-2.9 2.8-5.5 6.1-8.3 9.5-.2.3-.5.6-.7.9 4.9-9.6 10.7-15.2 18.7-18 .9-.3 1.9-.5 2.8-.5 3.8 0 6.3 3 7.4 4.8l.6.9c6.3 10.1 12.9 20.5 18.4 31.1 5 9.7 10 19.7 14.7 29.4 6.3 12.8 12.8 26 19.7 38.7 6.9 12.9 17.3 23.2 27.5 32.4 17.5 15.7 38.1 26.5 58 37 15.4 8.1 28 15.2 37.9 26.6 9.9 11.7 15.6 25.3 16.8 40.3z"/><path fill="#E7DAC6" d="M479.4 1019.6c-.7-3.3-1.6-6.6-2.5-9.8-1.9-7.2-3.9-14.6-4.4-21.9-1.1-18.9 5.8-37 21.2-55.4 7.1-8.5 14.9-16.7 23.4-24.4 17.6-15.9 32.5-33.5 49.5-55 17.8-22.4 35-48 52.6-78.3.9-1.6 1.9-3.3 2.9-4.9 5.3-9.1 10.8-18.6 15.6-28.2 8-15.9 11.6-32.6 10.7-49.5l-.1-1.8c-.3-5.9-.5-12-1.6-18-2.8-16.1-12.8-26.4-29.7-30.6-10.5-2.6-21.3-4.5-32-5.6-15.3-1.7-29.8-7.5-43-17.4-10.2-7.6-18.7-14.9-25.8-22.5-13-13.8-28-22.5-45.8-26.5-13.4-3-30.9-7.3-47.4-13.4-25.3-9.2-42.3-21.5-53.5-38.8-.2-.3-.3-.5-.5-.8 1.9 2.5 4 4.9 6.1 7.1 9 9.4 20.7 16.6 32 23.6 11.6 7.1 24.6 10.5 37.2 13.7 5.2 1.3 10.6 2.7 15.8 4.4 6.6 2.1 13.7 3.9 20.9 5.4 16.1 3.5 27.1 15 37.8 26l.2.2c18.7 19.3 36.7 30.5 56.7 35.4 4.7 1.1 9.5 1.6 14.2 2.1 4.2.4 8.6.9 12.8 1.8 7.2 1.6 16.7 3.9 25.3 8 13.1 6.2 19.7 17.7 21.3 37.2 2.3 27.7-4.8 54.4-21.7 81.4-4.1 6.6-8.3 13.4-12.2 20-8 13.1-16.2 26.7-24.9 39.7-6.8 10.1-14.4 19.9-21.8 29.3-3.7 4.7-7.5 9.6-11.2 14.5-11.5 15.3-25.5 28.7-39 41.7-3.9 3.8-8 7.7-12 11.6-17.3 17.1-27.3 33.4-31.4 51.6-2.9 12.3-2 25.3 2.5 39.6.8 2.7 1.6 5.5 2.4 8.3-.3.2-.4.2-.6.2zM354.1 493.2c-5.5-8.9-11.3-18-17.3-26.6-6.3-9-13.5-17.7-20.4-26.1-3.7-4.5-7.5-9.1-11.2-13.7-10.1-12.7-22.7-22.1-37-32-6.8-4.7-12.5-11-16.7-16-4.5-5.2-4.9-11.7-1-18.5 5.7-9.9 13.3-18.2 20.7-25.8 15.1-15.6 25.8-29.8 33.7-44.7 4.2-8 7.8-16.3 11.2-24.3l1.8-4.2c-.7 3.5-1.5 7.3-3.2 10.7l-.3.7c-5.9 12-12.1 24.4-19.9 35.1-5.7 7.8-12.3 15.2-18.8 22.3-4.5 5-9.3 10.2-13.6 15.6-4.3 5.2-7.7 11.3-11 17.2-.6 1.1-1.3 2.3-1.9 3.4-1.9 3.2-1.4 6.9 1.4 9.6 2.1 2 4.1 4.1 6.1 6.1 4.5 4.7 9.2 9.6 14.7 13.3 15.2 10.1 27.4 22.7 38.7 34.8 16.6 17.8 30.6 37.9 43 61.3.3.5.6 1.1 1 1.8z"/><path fill="#E7DAC6" d="M399.2 1019.7c-2-4.6-4-9.4-5.9-14-4.6-11.1-9.4-22.7-15-33.5S366 951 359.6 940.8c-3-4.7-6.1-9.5-9-14.3-5.6-9.2-12.1-21.7-12.3-35.9-.2-10.3 4.1-18.4 12.9-24.2 11.8-7.7 25-10.2 36.4-11.6 2.5-.3 4.9-.6 7.4-.9 14.5-1.8 29.5-3.6 43.6-8.9 20.7-7.8 33-22.4 36.7-43.6 1.8-10-.1-20.2-5.9-31.2-9.7-18.4-17.7-39.1-25-65.3-4.3-15.3-11.5-31.7-21.5-48.8-8.1-14-21.6-26.1-40.1-35.7-25.2-13.2-45.6-28.8-62.3-47.8-6.1-6.9-11.7-14.6-17.1-22-1-1.3-2-2.7-2.9-4-13.8-18.7-32.8-32.7-58.1-42.9l-2.3-.9c-12.6-5-25.6-10.1-37.8-16.4-18.2-9.5-30.9-25.6-41.9-41.6-12.3-18-24.3-36.7-35.8-54.8-5.9-9.2-11.9-18.7-17.9-27.9-.8-1.2-1.6-2.4-2.3-3.7-4.2-6.8-8.6-13.8-15.9-18.2-1.8-1.1-3.4-1.7-4.9-1.7-1.6 0-3.2.6-5 1.9-16.1 11.8-30 26.1-41.4 42.4-1.7 2.5-3.4 4.9-5.2 7.4-7.7 10.8-15.5 21.8-21.5 33.9-.2.4-.6.9-1 1.3v-2.7c.9-1.2 1.7-2.4 2.6-3.6 1.8-2.5 3.8-5.1 5.4-7.9 14.1-24.4 27.8-42.7 43.2-57.4 5.9-5.7 12.9-10.3 19.1-14.1.9-.6 2.4-.9 4-.9 1.5 0 3.2.3 4.5.8 6.6 2.4 10.3 8.3 13.9 14 .3.5.7 1.1 1 1.6 5.3 8.3 10.5 16.8 15.6 25.1 7.1 11.5 14.4 23.5 22 35 12.3 19 27.1 40.7 46 58.3 12.3 11.4 27.5 17.9 42.1 23.6l2.1.8c15.8 6.2 32.1 12.6 46.1 23.2 13.6 10.3 23.7 24 33.6 37.3l.5.6c16.7 22.5 38.2 41.1 63.9 55.2 13.2 7.2 26.9 15.5 37.6 27.2 8.1 8.9 15 19.4 21 32.2 6.1 13.1 10.3 27 14.3 40.5 2.4 8 4.9 16.3 7.8 24.4 2.6 7.2 6.2 14.2 9.7 20.9 1.1 2.2 2.3 4.4 3.4 6.6 9.9 20.1 10.1 38.5.6 56.1-5.3 9.8-14 17.4-25.8 22.6-14.7 6.4-30.2 8.7-44.8 10.3l-2.2.2c-13.7 1.5-27.8 3-40.5 10.1-14.9 8.2-19.1 16.8-16.2 33.2 1 5.9 3.2 12.1 6.1 17.3 3.6 6.5 7.6 12.7 11.5 18.8 2.1 3.3 4.3 6.6 6.3 10l2.7 4.2c2.9 4.5 5.9 9.2 8.2 14.1 7.8 16.3 15 32.4 22.3 48.9.9 2 1.6 4.2 2.2 6.3.1.5.3 1 .4 1.5h-.5z"/><path fill="#E7DAC6" d="m1542.3 801.5-3-4.5c-2-3-4-6.1-5.9-9-4-6.3-8.1-12.8-12.9-18.6-7.8-9.6-17.2-14.5-28-14.5-4.9 0-10.1 1-15.4 3.1-7 2.6-14 5.5-20.8 8.3-7.4 3-15.1 6.2-22.7 9-11 4.1-19.6 5.9-28 5.9-3.3 0-6.6-.3-9.7-.9-13.7-2.6-22.8-11-25.7-23.6-.3-1.1-.5-2.3-.7-3.4 2.9 10.8 9.5 19 19.3 23.4 4.3 2 9.8 3 16.2 3 1.8 0 3.7-.1 5.6-.2 15.5-1.3 29.8-7.6 43.5-13.7 2.9-1.3 5.9-2.6 8.9-3.9l1.9-.8c8.3-3.6 17-7.4 26.4-7.4 1.1 0 2.2.1 3.3.2 11 1 19.5 5.4 25.4 12.9 5.4 7 10.4 14.6 15.2 22 1.9 2.9 3.8 5.9 5.8 8.8.5.7 1 1.5 1.4 2.2.4.7.9 1.4 1.3 2.1v2.3c-.4-1.1-.9-1.9-1.4-2.7zm-174.3-59c-.8-6.7-1.2-13.4-1.6-20-.1-1.9-.2-3.9-.4-5.8-.9-13.8-1.5-27.9-2-41.6-.2-5.9-.5-11.8-.8-17.7-.2-5.4-.5-10.8-.7-16.1-.4-11.6-.9-23.6-1.8-35.2l-.4-5.4c-1.4-17.6-2.9-35.8-6.1-53.3-2.6-14.5-6.6-29-10.5-43-1.4-5.2-2.9-10.5-4.3-15.8-5.4-20.8-7.7-37.9-7.3-53.9.3-8.4 1.8-17 3.2-25.2.6-3.6 1.3-7.4 1.8-11.1 2-13.4 1.6-24.3-1.2-34.3-2-6.9-6.4-12-13.7-15.7-12.3-6-25.9-7.8-37.8-9.4-18.9-2.4-40.3-5.2-58.4-15.9-10.7-6.4-20.8-14.4-30.6-22.1l-.3-.2c-12.2-9.7-21.4-22.8-28.1-40.1-1.6-4-2.6-8.9-3.1-15.3-1.6-22.9 2.4-44.6 11.8-64.6 5.4-11.5 11.1-23.1 16.7-34.3 4.9-9.9 9.9-20.1 14.7-30.2 3.8-7.9 7.2-16.1 10.6-24 .9-2.2 1.9-4.4 2.8-6.6 4.9-11.5 5.4-23.6 1.2-35.1-4-11.3-8.7-22.6-13.2-33.5l-5.1-12.3-.8-2c-.8-1.9-1.6-3.7-2.3-5.6h1.7c.8 1.8 1.7 3.6 2.5 5.4 2.4 5.1 4.9 10.5 7 15.8 4.5 11.9 9.2 24.2 12.7 36.5 3.1 10.7 1.9 21.9-3.4 33.5-4.1 9.1-8.5 18.3-12.7 27.1-3.5 7.5-7.2 15.3-10.7 23-2.2 4.9-4.5 9.9-6.8 14.8-6.9 14.9-14 30.3-19.9 45.9-6.4 16.5-8 35.2-4.6 54 2.2 12.2 8.5 24 18.8 35.2 7.5 8.2 16.8 16.4 28.5 25.1 16 11.8 35.6 19.2 59.9 22.5 13.4 1.9 26.7 4.3 39.6 7.2 4.9 1.1 9.5 3.6 13.8 6.1 6.2 3.7 10 9.3 11.2 16.7 2.3 12.6 1.9 25.9-1.5 43.2-.4 2.3-1 4.7-1.5 7-1.3 5.6-2.6 11.4-2.5 17.2.6 20 3.5 39.7 8.6 58.5 1 3.7 2 7.4 3 11.2 3.9 14.2 7.9 29 11 43.6 2.5 12.3 3.5 25.2 4.4 37.7l.2 2.2c1.3 16.8 2.4 33.9 3.3 50.5l.6 9.6c.4 7 .6 14.3.8 21.2.1 3.6.2 7.1.4 10.7.3 6.9.6 13.8.8 20.6.9 14.1 1.5 28.8 2.5 43.3z"/><path fill="#E7DAC6" d="m885.6 1019.6 5-5c3.4-3.5 7-7 10.6-10.5 6.2-5.9 12.7-11.7 18.9-17.4 12.4-11.3 25.3-23 37.1-35.3 21.5-22.5 31.8-47.9 30.7-75.5-.3-6.8-2.2-13.6-4-20.2-.5-1.8-1-3.7-1.5-5.5-2.3-8.8-4.6-17.8-6.9-26.5.8 2.4 1.6 4.9 2.4 7.5 3 9.1 5.8 19 9.1 31.9 4.1 16.4 2.2 33.2-6.3 54.4-7.3 18-19.3 33.9-38.8 51.4-16.8 15-33.8 30.6-50.1 45.6l-1.2 1.1c-.8.8-1.5 1.7-2.2 2.6-.3.5-.7 1-1.1 1.4h-1.7zm-259-.1c.5-4.5.9-9.1 1.4-13.6.9-9.5 1.9-19.3 3.3-29 3.4-23.1 10-44.2 19.8-62.7 13.5-25.5 27.6-44.6 44.2-60.2 17.9-16.9 33.2-37.5 48.1-64.9 15.3-28 30.8-55.2 51.7-79 10.8-12.3 23.7-23.2 36.3-33.7l1.6-1.4c19.5-16.1 41-28.7 64.1-37.5 7.4-2.8 15.8-4.4 23.5-4.4h1.4c10.5.2 18.6 6.6 24.7 19.4 7.9 16.4 12.2 32.9 13.3 50.4 1.2 20.2 2.8 46.8 5.3 73.1.6 6.5 1.6 13.2 3 20.2-.9-3.6-1.8-7.2-2.7-10.7-1.5-6-1.9-12.3-2.3-18.4v-.2c-.3-4.1-.3-8.2-.4-12.2-.1-5.3-.2-10.9-.8-16.3-.6-5.8-.9-11.8-1.3-17.6-1.2-18.9-2.4-38.4-10.5-56.5l-.7-1.5c-2.7-6.2-5.5-12.6-9.6-17.9-5.7-7.3-13.2-11.1-22.4-11.1-5 0-10.4 1.1-16.2 3.3-23 8.8-44.5 20.9-63.9 35.8-17.9 13.8-38.3 30.3-53 52.2-12.2 18.3-24.2 37.3-35.6 56.5-2.2 3.6-4.3 7.3-6.4 10.9-8.5 14.6-17.3 29.7-28.6 42.7-4.7 5.4-9.7 10.5-14.6 15.5-3.9 4-8 8.1-11.8 12.4-5.2 5.6-10.6 11.5-14.9 18.2-1.9 2.9-4 5.9-5.9 8.8-7.7 11.2-15.6 22.8-20.2 36-6.7 19.3-14.4 41.2-16.4 64.2-.7 7.6-1.6 15.4-2.4 22.9-.2 2-.5 4-.7 6h-.4z"/><path fill="#E7DAC6" d="M948.3 271c-3.3 0-6.5-.2-9.7-.7-12.8-1.9-25.7-4.3-38.1-6.6-7.4-1.4-15.2-2.8-22.7-4.1-8-1.4-16.4-2-26.6-2-7.3 0-14.4.3-22.4.7-2 .1-3.9.2-5.9.3-6.4.4-13 .8-19.4.8-5.3 0-9.9-.3-14.3-.8-16.7-2.1-29.4-13.5-31.8-28.3-1.8-12.1-.9-23.6 2.8-35.1.9-2.9 1.8-5.8 2.7-8.8-1.9 7.5-3.5 15.4-4.9 23.7-4.4 26.2 6.4 41.6 33.2 47.3 3.6.8 7.4 1.1 11.8 1.1 4.3 0 9-.3 15.1-1.1 9.3-1.1 18.7-1.7 27.9-1.7 19.1 0 38.3 2.4 57 7.1 17.6 4.4 32.3 6.4 46.3 6.4h1.7c20.4-.3 45.8-12.4 53.3-38.2 2.8-9.5 5.4-19.3 7.9-28.7 1.5-5.6 3-11.3 4.6-16.9 5.2-18.9 16.1-33.3 33.5-44.1 1.8-1.1 3.5-2.2 5.3-3.2 10.1-6.1 20.6-12.5 29.4-20.4 16.9-15.1 25.2-33.8 23.8-54-1.1-15.3-6.1-30.2-14.9-44.3-3.3-5.3-6.2-11.1-9-16.6-1-1.9-1.9-3.9-2.9-5.8h.3c2.9 5.8 6.1 11.5 9.3 17 5.9 10.3 12 20.9 15.6 32.6 6.2 19.8 1.5 37-3.5 47.9-6.1 13.2-16.1 25.1-27.6 32.4-4.4 2.8-8.9 5.6-13.2 8.2-6.1 3.7-12.4 7.6-18.4 11.7-14.2 9.8-23.5 24.3-28.3 44.3-3.4 14.1-7.1 28-10 38.5-7.7 28.7-34.6 41.4-57.9 41.4zM767.8 169.8c1.7-5.5 3.5-10.9 5.7-16.2 8.4-20.3 20-38.6 34.5-54.3 12-13 27.7-21.5 42.9-29.8l1.1-.6c3.9-2.1 8-4.2 12-6.2 12.9-6.6 26.2-13.3 37.2-23.3 10.1-9.1 19.9-18.8 29.5-28.2 4.5-4.4 9.1-9 13.7-13.4.2-.2.3-.5.3-.7h2.1c-.2.5-.4.9-.7 1.2-4.4 4.3-8.8 8.7-13.1 13-10 10-20.2 20.4-31.2 29.5-7.9 6.5-17.1 11.6-26 16.6-3.8 2.1-7.8 4.3-11.6 6.6-4.6 2.7-9.3 5.5-13.8 8.2-10.1 5.9-20.6 12.1-30.5 18.7-12.8 8.5-21.3 21.2-29.5 33.6-.7 1-1.4 2.1-2.1 3.1-8.5 12.5-15.2 26.4-20.5 42.2z"/><path fill="#E7DAC6" d="m346.2 1010.7-6.3-9.3c-9.7-14.4-23.8-24.7-44.3-32.5-6.3-2.4-12-3.5-17.2-3.5-3.5 0-7 .5-10.2 1.6-12.8 4-23 8-31.9 12.7l-5.1 2.7c-14.9 7.8-30.4 15.8-47 20.5-7.3 2-14 3-20.4 3-10.1 0-19.3-2.5-28.1-7.5-6.2-3.6-10.6-10.6-11-17.5-.2-4.3 1-10.6 7.9-15.6 4.9-3.5 10.7-6.6 17.2-9.3 5.7-2.3 11.7-4.5 17.4-6.5 6.7-2.4 13.7-4.9 20.4-7.8 8.3-3.5 12.4-6.8 13.7-11.1 1.3-4.3-.1-9.4-5-17-4.2-6.7-9.5-13.5-16.7-21.3-10.7-11.6-18-22.1-22.9-32.8-1.8-3.9-3.6-7.9-5.3-11.7 3.3 6.5 6.7 12.7 10.3 18.5 4 6.4 8.9 12.3 13.6 18 2.7 3.2 5.5 6.6 8 10l.9 1.2c5.3 7 10.7 14.3 15.2 21.9 2.9 4.8 3.8 9.2 2.6 13.1-1.3 4.1-4.9 7.7-10.4 10.3-11.9 5.5-24.2 10.1-37.9 15-9.4 3.3-16.9 6.8-23.3 12.7-6.7 6.3-7.6 14.4-2.4 21.2 2.1 2.9 5.3 5.6 9.5 8.2 7.9 4.8 16.3 7.2 25.7 7.2 7.1 0 14.8-1.4 23.5-4.2 18.9-6.2 36.8-15.8 52.5-24.4 13.4-7.3 25.6-11.2 37.4-11.9.8-.1 1.7-.1 2.5-.1 3.6 0 7.2.5 10.6 1.5 26 8 43.1 20.7 53.9 39.8 1.4 2.5 2.8 5 4.3 7.6l.3.6c-.6-1.2-1.3-2.2-2-3.3zM141.6 825.8c-4-9.1-7.8-18.3-11-27.7-11.2-33-9.1-66.8 6.7-103.4 1.7-4 3.5-8 5.2-11.9 1-2.4 2.1-4.7 3.1-7.1l-2.7 7.2C137.5 697.3 132 712 128 727c-6.2 23.2-4.9 47.5 3.7 72.4 3.3 9.6 6.6 18.4 9.9 26.4zm16.7-181.2c.7-2 1.4-4 2.1-6.1 3.6-10.8 6-22.2 8.4-33.2 1.2-5.5 2.3-11.1 3.7-16.6.5-1.9.9-3.8 1.3-5.6 1.4-5.9 2.7-12.1 4.9-17.8 4.6-12.8 13.9-19.5 26.7-19.5 2 0 4.2.2 6.3.5 17.8 2.7 35.5 9 52.5 18.7 10.4 5.9 20.5 12.6 30.3 19.1 4 2.6 8 5.3 12.1 7.9.9.6 1.7 1.4 2.6 2.2l.6.6c-.1.1-.3.4-.4.5-1.3-.9-2.6-1.8-3.8-2.6-3.5-2.4-7.2-4.9-10.8-7.4-26.7-18.1-50.2-31.3-77.8-36.6-3.9-.8-8.4-1.6-12.8-1.6-7.7 0-13.5 2.5-18.1 7.8-5.2 6-8.8 13.7-10.9 23.6-1 4.7-1.9 9.4-2.8 14-2.3 11.7-4.7 23.8-8.2 35.3-1.6 5.8-3.7 11.3-5.9 16.8z"/><path fill="#E7DAC6" d="M504.5 270.1c-14.2 0-26.2-10.3-28.3-24.4-1.9-12.1 2.2-22.6 13-33 9.9-9.6 22.3-15.9 34.2-22 4-2.1 8.2-4.2 12.3-6.5 19.4-10.8 33.7-23.1 43.7-37.7 10-14.7 18-30.8 24.4-44.6 13.1-28.2 24.2-58.9 33-91.2-.7 4.5-1.6 9-2.9 13.3-8.9 30.8-20.6 61.5-35.8 93.8-15.4 32.7-38.1 56.3-69.6 72.1-13.3 6.7-25.5 14.1-36.2 22-12.5 9.1-17.7 21.7-15 36.4 1.9 10.8 15.7 20.6 29.1 20.6.7 0 1.4 0 2.1-.1 13.3-1.1 24.7-6.5 33.1-11 19.5-10.5 40-17.1 64.7-23.8 20.8-5.6 35.5-13.9 46.3-26 8.8-10.1 18.1-21.1 25.8-33.2 13.2-20.8 25.4-42.4 34.5-58.9 10.1-18.2 22.9-33.8 32.9-45.4C763 50.4 785 35.1 806.2 20.4c6.9-4.9 14.2-9.4 21.1-13.9 3.5-2.2 7.1-4.5 10.6-6.8.7-.5 1.4-1 2-1.6.4-.3.8-.7 1.2-1h1.9l-.4.4c-1 1-1.9 2-3 2.8-6.6 4.6-13.3 9.1-19.9 13.6-14.4 9.8-29.3 20-43.7 30.3-13.6 9.7-24.8 22.3-35.7 34.5l-1.3 1.4c-13 14.6-22.3 31.8-31.2 48.4-2.3 4.2-4.6 8.6-7 12.9-13.7 24.6-29.8 47.6-48 68.4-8.9 10.2-20.8 17.6-35.2 22.1-5.1 1.6-10.2 3.1-15.3 4.6-11.8 3.5-23.9 7.2-35.7 11.5-8.4 3-16.6 7-24.5 10.9-3.1 1.5-6.3 3.1-9.5 4.6-8.4 4-17.6 6.1-27.2 6.4-.3.2-.6.2-.9.2z"/><path fill="#E7DAC6" d="M860.2 1019.8c.1-.1.2-.3.3-.4.8-1.2 1.5-2.3 2.4-3.2 6.8-6.1 13.6-12.2 20.5-18.2 15.7-13.9 31.9-28.3 47.5-42.8 7.9-7.4 14.9-16.1 21.6-24.5.9-1.1 1.8-2.2 2.7-3.4 9.4-11.8 11.5-25.9 13.1-40.6 1.7-16.9-3.2-32.8-8-48.2-1-3.2-2-6.5-3-9.8-7.3-24.7-12.5-47.5-15.8-69.7-.8-5.4-1.5-10.8-2.2-16.1-1.1-9.1-2.3-18.5-4.1-27.6-1.5-7.5-4.7-15.2-9-21.8-7.7-11.7-17.7-17.6-29.9-17.6-5.4 0-11.2 1.2-17.3 3.6-31.5 12.4-56.4 31.6-73.9 57.1-13.3 19.2-25.3 39.4-35.8 60-14.6 28.9-32.6 54.1-55.1 76.9-13.9 14.3-24.4 26.5-32.8 38.4-15 21.2-24.2 39.9-29 59-2.2 8.8-3.7 17.9-5.2 26.7-.6 3.7-1.3 7.5-1.9 11.3-.4 1.9-.7 3.9-1.1 5.8-.3 1.7-.7 3.4-1 5.1h-.5c1-5.6 2-11.1 3-16.7 1.7-9.6 3.5-19.5 5.4-29.2 3.2-16.4 10.7-31.2 18-44.9 10.2-19 24-35 37.4-49.4 13-14.1 27.9-30.5 41.2-48.2 7.6-10.1 13.4-21.9 19.1-33.3l1.6-3.2c10.8-21.6 24.2-46.5 42-68.1 18.6-22.5 41.1-38.7 67-48.3 6.3-2.3 12.5-3.5 18.4-3.5 19.5 0 34.1 13.2 39.1 35.4 1.9 8.4 3 17.2 4.1 25.7.7 5.2 1.4 10.7 2.3 16 .3 1.9.6 3.9 1 5.8 1.9 11.8 3.9 23.9 6.8 35.7 2.8 11.6 6 23.4 9.2 34.7 2.4 8.6 4.9 17.6 7.1 26.4 5.7 22.2 4.8 42.6-2.8 60.6-4.2 9.9-11.1 20.2-20.1 29.7-10.1 10.8-21.3 20.9-32.2 30.7-3.6 3.2-7.1 6.4-10.7 9.7-7.4 6.7-15 13.4-22.4 19.9-4.5 4-9.3 8.1-13.8 12.2-.8.8-1.4 1.6-2.1 2.4h-1.1z"/><path fill="#E7DAC6" d="M928.6 238.6c-3.8 0-7.7-.4-12-1.3-4.9-1.1-9.7-2.1-14.6-3.2-12.9-2.9-26.3-5.9-39.6-8.2-7.7-1.3-15.7-1.7-23.4-2-3.4-.2-7-.3-10.5-.6-17.2-1.3-27.1-12.1-26.5-29 .1-2.1.2-4.3.4-6.4.2 4.8.7 9.7 1.3 14.4 1.1 9.5 7.5 15.6 19.6 18.6 5 1.2 10.1 1.8 15.4 1.8h4.1c20.5 0 40.6 4.9 60 9.7l1.3.3c6.5 1.6 13.5 3.3 20.6 4.1 1.8.2 3.7.3 5.4.3 17.6 0 31.6-9.4 41.6-28.1 5-9.3 8.9-19.5 12.7-29.4 1.6-4.1 3.2-8.4 4.9-12.5 1.3-3.2 2.7-6.5 4-9.7l3.9-9.6c6.7-15.7 20-25.6 32.8-35.2 1.8-1.3 3.6-2.7 5.4-4.1l9.6-7.2c7.8-5.7 15.8-11.7 23-18.5 14.9-14.1 15.6-27.1 2.6-46.4-3.2-4.8-7.7-8.7-12.1-12.5-3.1-2.7-6.2-5.4-9-8.5-2.9-3.3-5.6-7-8-10.7 5.8 6.8 12.6 13.3 20.5 19.6 11.2 8.9 17.5 22.2 18.1 38.3.2 7.4-3.5 14.6-11.1 21.4-6.6 5.9-13.7 11.4-20.7 16.7-2.8 2.1-5.7 4.3-8.5 6.5-3 2.4-6.1 4.8-9.1 7.1-5.6 4.4-11.5 8.9-17.2 13.5-11.8 9.6-17.5 23-22.3 35.8-1.4 3.8-2.8 7.7-4.2 11.5-3.4 9.4-6.9 19.1-11 28.5-6.9 15.8-17.1 26.2-31.3 31.8-5.1 2.2-10.3 3.2-16.1 3.2zm-124.2-75.1c1.5-15.1 10.6-26.5 19.4-37.6 1.7-2.2 3.5-4.4 5.2-6.6 12.6-16.4 30.5-26 47.9-35.4 2.3-1.2 4.6-2.5 6.9-3.7l2.4-1.3c23.2-12.7 47.1-25.8 70-39.8 15.2-9.3 24.1-21.5 26.5-36 .2-1.3.4-2.6.5-3.9.1-.6.1-1.3.2-1.9h.6c.2 10.6-3.5 20.1-11.1 29.3-9 10.7-20.5 17.8-30.6 23.3l-14.1 7.7c-21.3 11.7-43.3 23.8-65 35.6-20.4 11.1-36.9 27.9-51.9 53.1-3.3 5.6-5.6 11.3-6.9 17.2z"/><path fill="#E7DAC6" d="M1062.4 363.3c-.7-1.1-1.5-2.2-2-3.4-7.7-14.9-16.5-27.1-27-37.2-9.6-9.4-21.7-15.2-37.1-17.7l-10.3-1.7c-24.2-4-49.1-8.1-73.6-12.6-5.4-1-10.8-2.3-16-3.6-10.2-2.5-20.6-5.1-31.5-5.3-1.5 0-3-.1-4.5-.1-14.3 0-28.7 1.6-44.1 4.9-15.7 3.4-29.6 5-42.6 5-7.9 0-15.6-.6-22.9-1.9-14.4-2.4-25-11.4-30.8-26-2.3-5.8-2-12.7-1.9-19.5 0-1.5.1-2.9.1-4.3.2-24.6 10.8-46.7 21-68.1l4.1-8.4c7.6-15.8 15.5-32.1 23.7-47.9 12.7-24.6 32.9-44 61.5-59.5 11.1-6 22.9-12 35-18 9.9-4.8 18-10.8 25-18.3 4.9-5.2 9.9-10.4 14.7-15.4 2.4-2.5 4.8-4.9 7.1-7.4h1.5c-.1.5-.3 1.1-.5 1.3-3.4 3.3-6.7 6.7-10 10-8 8.1-16.2 16.6-25.4 23.5-8.1 6.1-17.6 10.7-26.7 15.2-3.2 1.6-6.5 3.2-9.8 4.9C802 71 787.9 86.6 778.9 99.3c-7.4 10.5-14.3 22.4-22 37.5-6.5 13-12.7 26.5-18.6 39.6-3.2 7-6.5 14.2-9.8 21.3-7.6 16.4-10.9 34.4-10.2 55.2.6 16.5 17.9 33.8 35.7 35.7 5.7.6 11.6.9 17.5.9 15.7 0 32.2-1.9 53.4-6.3 10.8-2.3 21.6-3.4 32-3.4 14.5 0 28.8 2.2 42.5 6.6 10.5 3.4 21.8 5 32.6 6.7 3.2.5 6.3.9 9.5 1.5 15.1 2.5 35.2 5.8 55.6 8.8 16.6 2.4 29.8 9.5 40.5 21.6 8.3 9.4 17.6 21 23.7 35.3.4 1 .7 1.9 1 2.7 0 .1.1.2.1.4.1.1 0 0 0-.1z"/><path fill="#E7DAC6" d="M357.6 537c-.8-1.1-1.6-2.1-2.5-3.2-2.2-2.8-4.5-5.8-6.3-8.9-13-23.2-28.7-45.1-46.4-65-11.1-12.5-26.3-22.1-47.9-30.3-2.9-1.1-5.9-2.2-8.8-3.2-9.1-3.3-18.6-6.7-27-11.5-14.1-8.1-22.8-20.3-26.1-36.5 1.4 5.3 3.9 10.9 7.4 16.5 7.5 12.1 18.5 20.2 35.7 26.2 19.8 6.9 38.9 14.1 55.6 27 13.3 10.3 23.2 23.9 32 35.8 5.6 7.8 11.3 16.2 17.5 25.5 1 1.5 1.9 3 2.9 4.5.7 1.1 1.4 2.3 2.1 3.5.8 1.3 1.6 2.6 2.5 3.9 2.2 3.4 4.4 6.8 6.5 10.3.8 1.3 1.5 2.6 2.2 3.9.3.5.5 1 .8 1.4-.1 0-.2.1-.2.1zM191.4 362.5c.9-12.4 7.2-22.5 18.8-30.4 5.4-3.6 11-7 16.4-10.4 5.4-3.3 11-6.8 16.4-10.4 21-13.9 35.9-30 45.7-49.2 10.1-19.8 15.6-38.5 16.7-57.3.2-2.7.3-5.4.5-8.1.6-10.5 1.1-21.4 2.7-32 2.5-16.4 10.6-31.2 24.8-45.2 2.2-2.2 4.6-4.3 6.9-6.4 4.6-4.1 9.3-8.3 13-13.2 12.7-16.4 11.1-38.8-4-57-4.2-5-8.9-9.7-13.5-14.3-3.7-3.8-7.6-7.7-11.2-11.7-4.4-4.8-8.5-10-12.4-15.1-1.3-1.6-2.5-3.2-3.8-4.8h.1c1.4 1.6 2.7 3.2 4 4.8 3.2 3.8 6.5 7.8 10 11.5 3.3 3.5 6.8 7 10.2 10.3 5.5 5.4 11.1 11 16.2 17 12.5 14.8 16.3 31 11.4 48-2.8 9.5-8.6 17.6-17.7 24.8-19.3 15.3-31 34.6-34.6 57.6-.8 4.7-.7 9.7-.6 14.5v4.1c.2 30.2-8.4 59-25.6 85.7-9.8 15.2-23.7 28.4-42.5 40.4-3.6 2.3-7.4 4.6-11 6.7-5.3 3.2-10.9 6.5-16.1 10.1-12.4 8.1-19.3 18.4-20.8 30z"/><path fill="#E7DAC6" d="M102.7 273.8c-18.8 0-33.6-8.2-45.1-24.9-12.9-18.9-29.5-44.1-43.3-71.5-1-2-2.4-3.8-3.7-5.6-.4-.5-.8-1-1.1-1.6 0-.7.1-1.4.1-2.1.6.5 1.2 1 1.5 1.6 2.2 4 4.4 8 6.4 12 4.3 8.1 8.7 16.4 13.8 24.2 3.3 5 6.4 10.1 9.5 15.1 7.4 12.1 15.1 24.7 25.1 35.6 9.7 10.5 20.9 15.8 33.2 15.8 1.1 0 2.1 0 3.2-.1 30.5-2.3 62-4.6 91.4-17.2 29.3-12.4 45.6-34.2 48.6-64.7l.2-2.3c.9-9.7 1.9-19.7 1.7-29.5-.1-10.9-.7-22-1.3-32.8-.3-5.9-.6-12-.9-18.1-.2-3.8-.3-7.6-.3-11.3-.1-4.4-.2-9-.5-13.5-1-18.8-8.2-36.7-21.4-53.1-6.1-7.6-14.1-11.4-23.9-11.4-3.2 0-6.6.4-10.2 1.2-5.9 1.3-11.5 3.4-16.2 5.2-6.4 2.5-12.7 3.8-18.9 3.8-8.2 0-16.3-2.2-24-6.7-9-5.2-16.4-13.2-22.4-24.6h.3C117 17.3 132.4 27 151.4 27c1.2 0 2.5 0 3.8-.1 3.2-.2 6.3-1.3 9.3-2.4 1.8-.6 3.7-1.3 5.6-1.8 2-.5 4-.9 6-1.4 7-1.7 14.3-3.4 21.6-4.1.7-.1 1.4-.1 2.1-.1 7.7 0 14.7 3.7 20.3 10.7 12.2 15.3 19.3 31.9 21.1 49.2.8 7.8.9 15.8 1.1 23.6.1 3.6.1 7.4.2 11.1.1 3.9.3 7.8.5 11.7.5 11.8.9 24.1 1.2 36.1.4 15.4.8 31.3-4 46.2-7.8 24.4-23.4 41.7-46.5 51.2-18 7.4-36.6 10.6-58.9 13.1-3.6.4-7.2 1-10.8 1.5-5.5.8-11.2 1.7-16.8 2.1-1.4.2-3 .2-4.5.2z"/><path fill="#E7DAC6" d="M113.9 246.9c-19.5 0-36-8.4-51.8-26.5-15.7-17.9-25.6-39.6-35.2-60.6-.9-1.9-1.7-3.8-2.6-5.7-3.3-7.2-7-14.4-10.5-21.4-1.5-2.9-2.9-5.8-4.4-8.7v-1.5l.9 1.2c1.8 2.4 3.5 4.7 4.7 7.3 8.5 17.8 16.8 36 24.9 53.7 6.8 14.6 16.5 28.3 29.9 41.9 12.5 12.7 28 19.1 46.1 19.1 2.7 0 5.4-.1 8.2-.4 14.8-1.5 32.2-3.6 49.2-7.5 24.1-5.6 40.3-21.2 48.3-46.5 4.5-14.1 6.2-28 5.4-42.5-1.1-22.1-7.7-44-19.4-65.1-5.6-10-13.3-17-22.9-20.6-9.7-3.7-20.2-7.2-31.2-10.3-19.4-5.6-35.7-12.5-49.6-21.2-6.2-3.8-9.9-10.3-13.5-16.5-.6-1.1-1.3-2.2-1.9-3.3-2.2-3.5-3.8-7.5-5.3-11.3-.5-1.1-.9-2.3-1.4-3.4h.4c1.5 2.6 2.9 5.3 4.3 7.8C90 11 93.4 17.3 97.3 23.1c5.4 8 14.3 11.9 22.1 15.4 16.7 7.5 30.1 12.1 43.3 14.9 6.1 1.2 12.1 3.7 17.9 6.1 1.6.7 3.3 1.4 4.9 2 16.8 6.9 24.2 21.6 31.4 38.7 5.6 13.2 9 27.7 10.4 44.6 1.5 17.2-.2 33.3-5.3 49.2-7.2 22.5-21.9 37.2-43.7 43.7-10.7 3.3-22.1 5-33.1 6.6l-2.3.3c-8.7 1.3-17.6 1.7-26.2 2.1-.9.2-1.9.2-2.8.2z"/><path fill="#E7DAC6" d="M516 304c-5.8-.1-11.4-1.1-15.7-1.9-.9-.2-1.8-.6-2.7-1.1 5.4.9 10.9 1.4 16.5 1.4 13.6 0 28-2.8 43.8-8.6 15.3-5.6 31.1-10.7 46.4-15.6 7.1-2.3 14.5-4.6 21.7-7 7.8-2.6 15.8-5.2 23.5-8.3 20.8-8.2 31.1-25.9 37.8-40.4 9.5-20.8 19.9-41.7 29.9-61.9 3.4-6.8 6.8-13.7 10.2-20.5 4.9-9.8 9-17.8 13.1-25.2 19.4-35.3 47.6-62.3 86.3-82.7C845.3 22.4 860.9 12 874.5.3c.9-.7 1.6-1.6 2.2-2.5.1-.2.3-.4.4-.5h1.3c-.1.2-.2.3-.3.5-.6 1.1-1.2 2.1-2 2.8-13.5 12-29.2 22.7-49.7 33.6-42.3 22.6-73.9 55.6-93.7 98-5.9 12.6-12.5 25.2-18.9 37.4-4.5 8.6-9.2 17.6-13.6 26.4-4.2 8.4-8 17.3-11.7 25.9-1 2.5-2.1 4.9-3.1 7.3-8.1 19.1-22.8 31.7-44.7 38.7-25.7 8.2-53.2 17.3-84.2 27.8-11.7 4-25.3 8.2-39.5 8.2-.3.1-.6.1-1 .1z"/><path fill="#E7DAC6" d="M941.3 1019.7h-1c.3-.4.5-.7.8-1.1 1.3-1.9 2.6-3.8 4.2-5.4 13.7-13.2 27.8-26.8 41.9-40 16.8-15.7 30.6-36.1 42.1-62.2 4.1-9.4 7.1-17.8 8.9-25.4 3.3-13.7 2.6-28.4-2.4-46.1-2-7.1-4.2-14.2-6.2-21.1-4-13.3-8.2-27-11.2-40.6-1.1-4.8-1.7-9.8-2-14.8 1.1 8.5 2.8 16.7 5.3 24.7 3.8 12.3 7.4 24.8 10.9 36.9l3.6 12.3c7.9 27 5.2 53-8.1 79.6-12.9 25.9-26.5 45.1-42.8 60.5l-.8.7c-13.2 12.6-26.9 25.7-40.3 38.7-.8.8-1.4 1.7-2 2.5-.5.1-.7.5-.9.8zm73.8-282.6c-.3-6.4-.2-12.5.3-18.2 1.5-15.3.2-30.8-1.1-45.7-.3-4-.7-8.1-1-12.1-1.3-18.7-2.3-35.1-2.8-50.2-.7-19.1 3.7-39.2 13.9-63.3 9.7-22.9 18.2-48.6 25.9-78.6 1.4-5.4 2.9-10.8 4.4-16.1 2.7-9.7 5.6-19.7 7.7-29.7 2.7-12.6 3.7-25.4 4.6-37.4.2-2.9-.1-5.9-.5-8.8-.1-1.1-.3-2.3-.4-3.4v.2c2.7 14.8 1.6 30.8-3.4 50.4-8.3 33.2-15.5 59.7-22.8 83.6-4.4 14.5-10.2 28.8-15.7 42.7-1.3 3.3-2.7 6.6-4 10-10.5 26.7-10.1 54-8.6 74.8.3 3.8.6 7.7.9 11.5 1.4 17.7 2.9 36 3.7 54.1.3 7.7-.2 15.6-.7 23.3-.2 3.4-.5 7-.6 10.5.2.7.2 1.5.2 2.4z"/><path fill="#E7DAC6" d="M662.7 1019.7c.7-2.8 1.3-5.7 2-8.5 1.5-6.4 3-13 4.7-19.5 4.2-15.7 9.8-34 20.2-50.5 9.8-15.6 23.5-27.5 35.6-37l3.4-2.6c13-10.1 26.4-20.6 37.3-33.7 8.6-10.4 13-22.4 17.7-35l1.3-3.6c5.3-14.3 10.7-29.1 17.3-43.1 4.6-9.9 11.1-22.9 19.5-34.5 12.1-16.7 27.4-28.9 45.6-36.3 4.2-1.7 9.2-3.4 14.4-3.4 2.1 0 4.1.3 6 .8 8.3 2.4 13.8 6.6 16.4 12.5 5.9 13.5 12.1 28 16.9 43 7 21.6 13.5 43.8 19.9 65.3 2 6.6 3.9 13.3 5.9 19.9 1.2 3.9 2.1 7.9 2.9 11.8.3 1.3.6 2.5.9 3.8-.1 0-.3.1-.4.1-1.8-6.3-3.7-12.8-5.6-19-3-9.6-5.9-19.2-8.9-28.8-6.9-22.3-14-45.5-21.1-68.2-2.7-8.9-6.5-17.4-9.8-24.6-4.4-9.2-13-14.7-23.1-14.7-2.3 0-4.7.3-7 .9-13.2 3.3-24.1 11.1-33.9 19-17.6 14.3-30.6 33.4-42.4 61.8-5.7 14.1-10.9 28.5-15.2 42.8-5.6 18-16.7 33.9-33.9 48.4-5.5 4.7-11.2 9.4-16.7 14-9.1 7.6-18.5 15.4-27.5 23.4-11.4 10.2-18 23.5-24.9 38.5-6.6 14.5-10.2 30.2-13.7 45.2-.7 3.1-1.4 6.2-2.2 9.3-.2.8-.6 1.6-.9 2.4l-.1.2h-.6z"/><path fill="#E7DAC6" d="M376.7 1019.7h-.4l-1.8-4.2c-1.5-3.6-3.1-7.4-5.2-10.7-10.2-15.7-21.7-32.2-36.8-45.9-5.7-5.2-11.7-10.1-17.6-14.9-2-1.7-4.1-3.3-6.1-5-11.1-9.2-18-19.3-21.2-30.8-3.7-13.5-.8-27 9-42.4 15.4-24.4 39-40.9 72.2-50.7 9-2.7 17.4-5.7 25-8.8 14.9-6.3 23.7-18.6 25.4-35.7.7-6.5.9-13.2.8-19.9.1 1.2.3 2.4.4 3.6 1.2 8.6.3 17.7-2.7 27.7-3.9 13.6-13.7 22.8-30.8 29.1-4.4 1.6-8.9 3.1-13.3 4.6-11 3.8-22.3 7.7-32.9 12.7-22.4 10.6-39.1 27.5-49.4 50.3-8.3 18.5-4.2 38.3 11.1 52.9 5 4.7 10.4 9.2 15.7 13.6 4.8 4 9.8 8.2 14.5 12.5 16 14.8 29.8 32.6 41.1 52.7 1.1 2 1.7 4.3 2.3 6.8.2.7.4 1.6.7 2.5zM417.5 725c-1.3-8-3.1-16.1-5.4-24.6-5.2-19.3-17.4-34.7-27.5-46-12-13.6-27-23.6-41.6-33.4-1.6-1-3.1-2.1-4.6-3.1-5.8-3.9-11.7-8-17.4-12-2.1-1.5-4.3-3-6.4-4.5-.8-.6-1.6-1.2-2.3-1.8-.4-.3-.7-.6-1.1-.9 1.2.7 2.3 1.4 3.5 2 2.9 1.7 5.9 3.4 8.6 5.4 5 3.5 10.2 6.9 15.2 10.2 13.8 9.1 28 18.5 40.2 30.3 20.9 20.1 33.1 42.1 37.3 67.2.7 3.6 1.1 7.4 1.5 11.2z"/><path fill="#E7DAC6" d="M126.7 221.4c-12.6 0-22.6-1.6-31.6-5.1-12.7-4.8-22.9-13.9-30.5-27-6.6-11.5-13-24.7-19.6-40.1-2-4.8-3.3-10-4.6-15-.3-1.1-.6-2.2-.9-3.4 1.4 4.2 2.8 8.5 4.3 12.6 4.8 12.7 9.1 22.7 13.8 31.5 4.6 8.8 10.5 16.9 16.3 24.4 7.9 10.3 19.4 16.7 34.2 18.9 9.8 1.4 18.3 2.1 26.1 2.1 13.4 0 25.2-2 36.1-6.1 20.1-7.6 32.6-22.2 36.3-42.5 1.1-5.7 0-11.8-1-17.7-.2-.9-.3-1.8-.5-2.7-1.7-9.9-4.3-21.5-10.3-31.8-10.9-18.9-27-32.2-47.8-39.5-12.4-4.4-25.3-8-37.8-11.5-6.4-1.8-13-3.7-19.4-5.6-5.6-1.7-11.3-3.6-16.8-5.9-9.3-3.6-15.5-10.2-18.4-19.7-2.6-8.8-5-17.9-7.4-26.6-1.2-4.5-2.4-9.1-3.7-13.6h.5c1.1 4 2.2 7.9 3.3 11.9 1.9 6.9 3.9 14 5.7 21.1 3.9 15.5 13.9 25 31.4 29.9 3.2.9 6.4 1.8 9.6 2.6 17.8 4.9 36.2 10 53.9 16.1 29.8 10.5 48.8 31.6 56.3 62.6 3.1 12.8 6.3 26 1.2 39.7-5.2 14.4-15.3 25.1-30.7 32.9-9.3 4.7-19.3 6-28.6 6.6-6 .4-12.8.9-19.4.9zM34.9 116.5c-5.1-13.3-11.8-25.7-18.8-37.4 4.6 7 9.3 14.2 12.8 21.9 2.3 5 4.2 10.3 6 15.5z"/><path fill="#E7DAC6" d="M1370 271.8c-6.9 0-14-.4-21.9-1.3-14.6-1.5-30.2-3.7-49.3-6.8-9.9-1.7-20.2-3.8-33.5-7.1-16-3.8-25-16-26-35.1-1-19 6-35.5 21.3-50.6 12.7-12.5 26.4-24.3 39.7-35.8 3.1-2.7 6.3-5.4 9.4-8.1 16.2-14 27-27.3 34.1-41.6.3-.5.5-.9.8-1.3-.1.2-.2.5-.3.7-.7 1.7-1.3 3.2-2 4.8-9.2 18.4-23.5 31.7-36.2 42.2-12.8 10.6-25.3 21-37.5 32.1-9.7 8.9-17.8 19.3-24 30.8-7.2 13.4-6.7 40.2 3.6 50.5 5.7 5.6 12.2 9.2 19.3 10.8 13.6 3 28 6.1 42.6 8.1 20.9 2.9 41.3 4.9 58.4 6.5 1.9.2 3.8.3 5.8.3 11 0 22.5-2.9 36.1-9.1 11.4-5.3 22.4-11.1 30.6-15.6 12.7-7 28-14.4 44.7-16.8 2.7-.4 5.4-.6 8-.6 13.3 0 25.3 5.1 36.5 15.5 3.4 3.2 6.6 6.6 9.7 10 1.4 1.5 2.7 2.9 4.1 4.4v2l-2.1-2.1c-2.2-2.2-4.5-4.4-6.5-6.8-11.4-13.5-24.7-20.6-39.5-21h-1.6c-8.8 0-17.6 1.7-24.9 4.7-11.2 4.6-22.2 10.1-32.8 15.5-4.1 2.1-8.3 4.2-12.5 6.3-13.3 6.6-27.5 13.1-43.4 14.2-3.4.2-7 .3-10.7.3z"/><path fill="#E7DAC6" d="M1361.5 242.8h-2.2c-18.9-.5-38.9-1.7-57.4-11.3-3.8-2-7.2-4.1-10-6.2-10.2-7.7-12.2-18.5-5.2-28.3 2.7-3.8 5.5-7.6 8.3-11.3-3.5 5.3-6.6 10.5-9.1 14.8-4.5 7.9-2.5 16.8 5.1 22.7 11.8 9.1 26.4 14.5 44.8 16.6 8.6.9 17.8 1.4 27.4 1.4h3c17.1-.2 32.7-6.5 47.1-12.9 7.6-3.3 15.2-6.9 22.6-10.3 10.2-4.7 20.8-9.6 31.4-14.1 11.2-4.7 21.3-7 30.8-7 3.8 0 7.5.4 11.1 1.1 9.8 2 19.2 6.7 28.8 14.6 1.3 1.1 2.8 2.1 4.2 3 .7.4 1.3.9 2 1.3v1.2c-.6-.4-1.2-.7-1.7-1.1-1.8-1.1-3.6-2.2-5.2-3.5-12.1-9.8-23.3-14.6-35.5-15.1h-2.4c-10 0-20.5 2.3-31 6.7-12.2 5.2-24.4 10.8-36.2 16.3-5.3 2.5-10.6 4.9-16 7.3-15.5 6.9-34 14.1-54.7 14.1zm-51.5-76.7c4-5.1 8-10.4 11.9-15.6 9.5-12.8 17.6-24.5 24.7-35.6 5.4-8.4 10.1-17.3 14.2-26.3 6.9-15.8 7.9-33 7.9-47.7v-4c.1-11.5.1-23.4-4.1-34.7-.6-1.6-1.1-3.3-1.5-4.9v-.1h.3c3.9 7.3 5.8 15.5 5.9 25.2 0 2 .1 4 .1 6 .2 15.1.5 30.8-2.9 46-3 13.9-9.8 25.7-17 38.1l-.5.9c-10.3 17.6-23.3 33.6-35.9 49-1 1.2-2.1 2.4-3.1 3.7z"/><path fill="#E7DAC6" d="M445.4 1019.7c-.5-2.4-.9-4.8-1.4-7.2-1-5.4-2.1-11-3-16.5-4.9-31.4 1.6-54.4 20.5-72.2l4.4-4.1c13.1-12.3 26.6-25 40.3-37.2 15-13.4 29.3-29 43.5-47.6 21.7-28.4 36.8-56 46.2-84.2 2.8-8.4 5.5-17.5 4.4-27.1-.2-2.2-.6-4.3-1.2-6.3 0 .1.1.3.1.4 4.5 14-.4 27.4-4.3 38.2-12 33.1-31.4 65.1-59.5 98.1-14 16.4-30.4 30.9-46.2 45-3.6 3.1-7.1 6.3-10.6 9.5-13.4 12.1-28.5 25.7-34.9 45.2-4.6 14.3-4.9 29.8-1 47.6.9 4.2 1.6 8.7 2.3 12.9l.9 5.7h-.5zm149.1-313.2c-3.8-5.8-9.2-10.5-16.1-14-9.6-4.8-20.3-7.6-32.3-10.5-22.7-5.4-39.6-17.6-51.4-37.2-1.2-2-2.4-3.9-3.6-5.9-6.7-11.3-13.6-23-24.3-31.6-1.4-1.1-2.7-2.2-4.1-3.3l-5.7-4.5c10.7 5.3 19.3 13.7 26.3 25.6l.2.3c8.7 14.6 17.7 29.6 31.4 40.8 10.1 8.3 22.3 12 32.8 14.5 1.9.5 3.9.9 5.8 1.3 9.5 2.2 19.4 4.4 27.8 10.1 5.3 3.8 9.7 8.5 13.2 14.4z"/><path fill="#E7DAC6" d="M1242 440c-.1-2.1-.2-4.2-.2-6.2-.2-6.4-.4-13-1.5-19.3-1.8-11.1-7.8-22-17.2-31.4-10.6-10.5-22-20.6-33-30.4-4.3-3.8-8.7-7.7-13-11.6-1.4-1.2-2.7-2.4-4.1-3.6-14-12.5-28.5-25.4-38.1-42.3-9.3-16.3-13.8-32.3-13.6-48.8.3 6.4 1.2 12.7 2.7 19 5 20.8 15.9 39.1 32.5 54.5 6.7 6.2 13.8 12.2 20.6 18.1 7.5 6.4 15.2 13.1 22.5 19.9 9.7 9.1 21 20 30.3 32.1 10.6 13.7 14.8 30.5 12.3 49.7 0 0-.1.2-.2.3zm-120.4-209.1c.5-10.2 1.8-20.3 5.9-29.9 3.3-7.9 6.9-15.7 10.4-23.2 1-2.1 1.9-4.2 2.9-6.3 2.7-5.9 5.5-11.9 8.2-17.6 5.3-11.2 10.7-22.8 15.5-34.5 11-26.8 13.2-53.2 6.5-78.6-1.8-7-3.6-14-5.4-20.9-1.9-7.5-3.9-15.2-5.9-22.7h.5c1 3.6 2 7.2 3.1 10.8 2.4 8.6 5 17.5 7.2 26.3 3.4 13.2 5.1 26.7 5 40.2-.2 16.1-4.1 32.4-12.4 51.2-5.9 13.2-12.1 26.6-18.1 39.5-5.8 12.4-11.8 25.2-17.4 37.9-2.6 5.8-3.6 12.3-4.6 18.5l-.2 1.4c-.6 2.6-.9 5.3-1.2 7.9z"/><path fill="#E7DAC6" d="M1455.2 607.1c-1.9 0-3.8-.1-5.7-.4-5.8-.9-10.7-4.3-14.5-10.4-3.9-6-6.4-11.3-7.9-16.3-6.1-21.5-12.4-43.8-17.5-65.9-3.6-15.6-2.7-31.8-1.5-45.9 2.5-29.6 18.5-51.2 49-65.9 5.3-2.5 10.8-4.9 16.1-7.2 8.5-3.7 17.3-7.5 25.5-12.1 17-9.4 30.6-22 40.6-37.5 1.1-1.7 2.5-3.1 4-4.6l.8-.8v1l-1.8 2.5c-6.6 9.1-13.4 18.5-22.2 26.2-15.9 13.9-35 22.5-51.6 29-19.4 7.6-33.2 16.9-43.7 29.3-6.2 7.5-10.6 16.2-13.4 26.8-4.6 17.3-5.2 35.1-1.8 54.5 4.6 26.4 12.5 51.5 19.7 72.5 2.3 6.8 6.3 13.4 11.1 18.3 4 4.1 8.8 6.1 14.7 6.1 5 0 10.2-1.4 15.1-3 13.3-4.2 25.8-11.4 39.2-22.7 9-7.5 19-14.9 31.2-17.3.9-.2 1.8-.2 2.8-.2h.7v.6c-13 2.4-23.3 9.7-32.5 17.1-10 8.2-21.8 17.3-36.1 22.3-8 2.7-14.3 4-20.3 4z"/><path fill="#E7DAC6" d="M1424.3 714.9c-13.9 0-24.2-8.3-29.8-24.1-6.4-17.9-10.2-36.4-11.3-55.1-.8-12.2-2.3-24.6-3.9-36.5-.3-2.2-.6-4.4-.8-6.5-2.4-18.7-5.6-43.3-9.2-68.3-.8-5.8-1.9-11.7-3-17.4-1.6-8.7-3.3-17.7-4-26.7-1.8-20.1-2.6-41.6 4-62.4l.9-2.8c2.5-7.8 5-15.9 6.9-24 3.7-15.4 4.5-29.4 2.4-42.8l.3 1.2c.7 2.3 1.3 4.7 1.4 7 .7 18.1-1.5 33.7-6.7 47.6-8 21.5-11 45.7-9 74 .5 7.4 2 14.9 3.4 22.1.8 4.2 1.7 8.5 2.4 12.7 1.3 8.4 2.5 16.9 3.6 25.2.7 5.4 1.5 10.7 2.3 16.1l1.5 10.8c1 7.1 2.1 14.4 3 21.6.8 7 1.6 14.1 2.3 21 .4 3.9.8 7.7 1.3 11.6.5 4.6 1 9.3 1.4 13.9 1.6 16.9 3.2 34.3 8.5 51 3.4 10.7 8.6 22.3 21.8 27.6 3.9 1.6 7.9 2.3 11.9 2.3 4.7 0 9.4-1.1 14-3.2 8-3.7 16.3-8.4 26-14.8 10.5-6.9 21-14.1 31.1-21.1 5.7-3.9 11.6-8 17.5-12 6.2-4.2 11.5-6.1 16.8-6.1 1.1 0 2.2.1 3.3.3 2.4.4 4.8 1.3 7.1 2.1.8.3 1.6.6 2.3.8v1.1c-3.8-2.2-7.6-3.3-11.5-3.3-8.4 0-15.8 5-22.4 9.5-7.2 4.8-14.4 9.9-21.4 14.8-9.6 6.7-19.6 13.7-29.6 20.1-7.4 4.8-15.1 8.6-22.5 10.8-4.3 1.2-8.4 1.9-12.3 1.9z"/><path fill="#E7DAC6" d="M687.5 1019.7c.6-11.3 4.8-21.9 8.8-30.8 6.4-14.4 15-30.6 30.7-41.6 4.6-3.3 10-5.6 15.2-7.8 32.6-14.8 53.4-35.5 63.4-63.3 4.8-13.4 9.2-27.1 12.9-38.6 4.9-15.4 11-33 22.3-47.8 3.9-5 8.6-10 13.6-14.3 3.8-3.2 8-4.8 12.4-4.8 3.6 0 7.5 1.1 11.4 3.2 8 4.3 13.5 10.8 19.2 19.4 7.1 10.2 12.5 21.2 16.7 33.6-.4-.4-.8-.7-1-1.1-7.4-17.6-14.7-30.1-23.6-40.5-2.8-3.2-5.6-5.9-8.5-7.9-4.9-3.4-9.3-5.1-13.7-5.1-5.1 0-10 2.3-15.1 7.1-12.5 11.8-22 26.8-28.1 44.6-2.8 8-5.5 16.2-8 24.2-2.9 8.8-5.8 17.9-9 26.8-9.6 27.3-27.1 47.1-52 58.9l-2.6 1.2c-7.6 3.5-15.4 7.2-22.5 11.9-15.3 10.1-26.4 25.5-35.1 48.5-2 5.4-3.4 11.1-4.8 16.6-.6 2.6-1.3 5.2-2 7.8h-.6z"/><path fill="#E7DAC6" d="M1467.2 1009.2c-10.7 0-20.9-3.6-27.9-10-12.1-10.9-23.5-23.5-35.9-39.9-13.9-18.5-28.2-37.2-42.3-55.5-5.9-7.6-12.1-15.1-18.3-22.2-2-2.3-4.6-4.2-7-6-1-.8-2.1-1.5-3.1-2.3-4.4-3.5-8.8-5.3-13.3-5.3-6.1 0-12.1 3.4-17.8 10.1-3.4 4-6 8.5-8.6 13-1.2 2.1-2.5 4.3-3.8 6.3-.8 1.3-1.5 2.5-2.2 3.8-1.2 2.1-2.5 4.3-3.9 6.4-.8 1.2-2.1 2.3-3.3 3.4-.3.3-.7.6-1 .9 0-.1-.1-.2-.1-.3 2.1-3.4 4.2-6.8 6.3-10.1 4.9-8 10-16.2 15.5-24 4.9-6.9 11.3-10.5 18.6-10.5 5.1 0 10.4 1.9 15.4 5.5 11.8 8.5 20.2 19.6 29.2 32.1 9.2 12.7 18.9 25.3 28.3 37.4 6.1 7.9 12.4 16 18.5 24.1 8.9 11.8 19.7 25.3 34 35.2 7.2 4.9 14.7 7.4 22.3 7.4 6.9 0 13.8-2.1 20.3-6.2 20.3-12.7 36.6-28.7 48.4-47.3 2-3.2 4.3-6.2 6.6-9.1.7-.8 1.3-1.7 2-2.5v1.6c-1.4 2-2.8 3.9-4.2 5.9-3.1 4.5-6.4 9.2-9.8 13.6-14 18.4-28.7 31.6-45.1 40.5-4.8 2.6-11.2 4-17.8 4z"/><path fill="#E7DAC6" d="M126.3 851.9c-2-5.1-4-10.3-5.6-15.6-1-3.6-2.1-7.2-3.2-10.8-4-13.3-8.1-27.1-10.6-41-.6-3.2-.9-6.4-1.1-9.6.7 5.1 1.7 10.2 3.2 15.5 2.8 10.2 5.7 20.4 8.6 30.4 2.8 10 5.7 20.2 8.5 30.4.1.2.1.4.2.7zm-20.2-105.5c.9-19.3 7.9-37.4 14.6-54.9 1.4-3.6 2.9-7.4 4.2-11.1 3.4-9.3 7.3-19.6 10.3-30.6-3.3 12.2-7.5 24.1-11.6 35.7-1.3 3.7-2.6 7.4-3.9 11.2-5.4 15.9-9.8 31.8-13 47.4-.3 1.2-.5 2.4-.7 3.6l.1-1.3zm32.4-109.9c1.6-7.9 2.5-16 2.5-24.2-.1-24-6.7-42.6-20.2-56.9-11-11.7-24-21.3-38.5-28.6-9.9-5-19.9-10.2-29.6-15.2l-7.6-3.9c-11.7-6-21.6-14.5-29.4-25.2-1.7-2.3-3.6-4.4-5.4-6.5l-.9-1v-1c.3.3.6.5 1 .8 1.4 1.1 2.7 2.2 3.7 3.6 9 12.7 20.6 22.4 35.3 29.8 15 7.6 30.6 15.4 45.3 24 20.1 11.8 33.2 26.1 40.2 43.7 6.1 15.5 8 31.8 5.8 48.4-.7 4.2-1.4 8.2-2.2 12.2z"/><path fill="#E7DAC6" d="M490.9 298.7c-12.9-.9-20.8-9.7-27.4-19.1-8.1-11.6-12.9-22.8-14.5-34.2-2.8-19.3 2-44.5 23.9-57 11.1-6.4 22.5-12.7 33.6-18.8 5.6-3.1 11.2-6.2 16.8-9.4 22.8-12.8 41.3-31.4 56.3-57 17.7-30.1 29.7-63.1 36.6-100.7.4-1.9.7-3.6 1.2-5.2h.5c-.5 2.5-.9 5-1.4 7.5-1.3 7.1-2.7 14.5-4.2 21.7-6.8 29.9-19.5 59.1-38.8 89.4-13.1 20.5-32.6 37-61.3 52.1-12.9 6.8-25.6 14.3-37.9 21.6l-3.6 2.2c-12.6 7.4-19.3 19.6-21.2 38.4-2.2 21.6 5.5 40.9 22.8 57.3 4 3.8 9.2 6.5 14.2 9 1.5.6 2.9 1.4 4.4 2.2z"/><path fill="#E7DAC6" d="M458.4 104c-9.3 0-18.7-1.7-27.9-4.9-.1 0-.2-.1-.2-.1-.2-.1-.5-.2-.9-.2-16.8-1.3-24.6-14.2-30.6-26.2-3.9-7.8-7.6-15.9-11.2-23.8-2.6-5.7-5.3-11.5-8-17.2-6-12.2-12.1-24.8-22.8-34.4h1.7c10.2 9.4 16.1 21.7 21.9 33.7.5 1.1 1.1 2.3 1.6 3.4 2.2 4.5 4.3 9 6.5 13.5 4.6 9.7 9.4 19.7 14.3 29.5 2 4.2 4.9 8.2 8.4 12 2.3 2.5 5.9 5.6 9.8 6.5 2.4.5 4.8 1.1 7.2 1.7 9.8 2.4 20 4.8 30 4.9h.7c26.2 0 49.2-10.6 68.5-31.4 12.7-13.7 22.2-31 28.9-52.8 2.1-7 4.1-14.2 6.1-21.1h1.4c-.6 2-1.1 3.9-1.6 5.9-4.1 14.9-8.3 30.2-16 44.1-17.1 30.7-40.1 48.7-70.5 55.1-5.7 1.2-11.5 1.8-17.3 1.8z"/><path fill="#E7DAC6" d="M9.5 936.6c2.2-3.8 4.5-7.7 6.8-11.5 5.9-10.1 12.1-20.5 17.9-30.9 8.4-14.9 13-32.3 14.3-54.8.4-7.5-.4-15.2-1.2-22.7-.1-1.2-.3-2.5-.4-3.7-.3-3.2-.7-6.4-1-9.5-2.3-21-4.7-42.8-3.5-64.3.7-11.1 2.7-22.1 5.7-35.2 1.8-7.9 3.9-15.8 6-23.5 1.9-7.1 3.9-14.5 5.6-21.8 7.7-33.1-9.6-60.7-43-68.7-1.6-.4-3.1-.6-4.6-.8-.9-.1-1.8-.3-2.7-.4v-1.5c12.2 2.2 21.3 5.5 29.2 10.4C53.2 607 61 621 62.3 640.6c.9 13.2-2.6 25.9-6.6 38.8-5.3 17.2-10.6 35.5-12 54.5-.8 10-.4 20.4 0 30.4.1 2.6.2 5.3.3 7.9.2 5.1.8 10.1 1.3 15 .3 2.4.5 4.9.8 7.3.3 3.6.7 7.2 1.1 10.7 1 9 1.9 18.3 1.7 27.4-.3 17.2-1 31.5-6.5 45.5-8.3 21.4-20 40.8-32.3 60.4-.1.1-.3.3-.5.4v-2.3z"/><path fill="#E7DAC6" d="M1472.2 553.1c-11.8 0-20.6-7.2-26.2-21.4-5.3-13.7-7.2-29-6.1-46.6 1.5-21.1 8.5-30 14.4-35.4 4.7-4.3 10.9-9.6 17.7-13.3 19-10.5 35.6-24.3 51-37.6 5.8-5 12-9.6 17.9-14.2.7-.5 1.6-.8 2.5-1.1.2-.1.3-.1.5-.2.1.5.1 1.1.1 1.7-5.5 4-11 8.1-16.4 12.2-5.7 4.4-11.5 8.8-17.1 13.2-9 7-18.3 14.2-27.5 21.1-3.9 2.9-8.1 5.7-12.1 8.4-5.2 3.5-10.5 7.1-15.5 11-7.2 5.7-11.8 14.3-13.8 25.4-3.7 21.8-1.5 40.7 6.7 57.8 5.2 11.1 12.2 16.7 21.2 17.2h1.8c5.2 0 10.8-1.1 15.9-3.2 7.2-2.9 14.2-6.6 21-10.1 2.9-1.5 6-3.1 8.9-4.5.8-.4 1.7-.8 2.5-1.3 7.1-3.5 14.4-7.2 22.6-7.2h1.5v.6c-10.8 1.4-20.1 5.9-27.1 9.7-10.1 5.4-20.1 10.6-30.4 14.7-4.9 2.1-9.7 3.1-14 3.1z"/><path fill="#E7DAC6" d="M69 863c.3-4 .7-8.2.7-12.3v-3.4c0-4.3-.1-8.8-.1-13.2.3 6.6.5 13.2.7 19.7.1 3-.5 6.1-1 9.1-.1.5-.2 1.1-.3 1.7-.1-.5-.1-1.1 0-1.6zm-.5-50.1c-.3-4.1-.7-8.3-1-12.4-1.4-16.5-2.9-33.5-1.7-50.5 1.7-25 9.5-48.8 17.1-71.9l.9-2.7c5-15.4 9.4-30.5 8.3-46.6-1-16.9-8.8-31.9-22.9-44.6-16.3-14.7-36.4-24.2-59.7-28.4v-.4c2.4.6 4.8 1.1 7.2 1.5 5.6 1.1 11.4 2.3 16.7 4.3 19.7 7.5 33.8 17 44.2 29.9 14.1 17.4 18.8 36.7 14.2 57.2-3.3 14.6-7.6 29.7-13.1 46.3-5.5 16.8-11.8 39.1-12.3 62.5-.2 9.6.4 19.4.9 28.9.2 4.2.5 8.5.7 12.7.2 3.8.6 13.9.7 15.2-.1-.3-.1-.6-.2-1z"/><path fill="#E7DAC6" d="M421.3 1019.7c-7.7-21.9-14-41.8-14.1-63.5-.1-17.2 5.6-31.3 17.1-42.1 11.6-10.9 24.4-21.1 36.8-30.9l2.9-2.3c18.6-14.7 39.7-31.3 53.8-53.9 4.5-7.2 8.5-15 12.3-22.4 1.7-3.4 3.5-7 5.4-10.4.1-.1.1-.3.2-.4-1.7 4.8-3.5 9.6-5.7 14.3-11.4 24.1-29.3 45.7-54.8 65.8l-2.5 2c-14.9 11.9-30.4 24.1-44.9 36.9-16.5 14.6-22.9 34.2-18.5 56.7 2.1 10.8 5 21.5 7.8 31.9 1.4 5.2 2.9 10.5 4.2 15.8.2.6.3 1.1.4 1.6.1.2.1.5.2.7h-.6z"/><path fill="#E7DAC6" d="M643.6 141.1c3.1-2.2 6.2-4.5 9.5-6.6 12.8-7.9 22-19.8 29.6-30.4 25-34.5 52.3-62.3 83.5-84.9 8.3-6 16.6-12.3 24.7-18.3l5.1-3.8c.5 0 1.1.1 1.6.1-1.8 1.4-3.7 2.8-5.5 4.3-6 4.7-12.3 9.5-18.6 14-35.4 25-66.5 56.5-95 96.4-7.7 10.7-17.9 19.8-33.1 29.5-.9.6-2 .9-3.3.9l1.5-1.2z"/><path fill="#E7DAC6" d="M971.6 1019.7c.6-.6 1.2-1.3 1.8-1.9 1.7-1.7 3.4-3.5 5.2-5.2 18.1-16.3 34.9-34.2 50-53.1 9.5-12 20.4-23.3 30.8-34.3l1.5-1.6c8.1-8.5 15.7-12.5 24-12.8h2.7c6.2 0 10.8.9 14.3 2.7 11.7 6.1 24.9 13.9 34.9 26.5-.5-.3-.9-.7-1.4-1-3.3-2.4-6.6-4.9-9.7-7.3-7.2-5.5-14.6-11.1-22.5-15.9-4.6-2.9-9.5-4.3-14.4-4.3-7 0-14.2 2.8-22 8.6-9.8 7.1-17.3 16.4-24.6 25.5-1.9 2.3-3.8 4.7-5.8 7.1l-4.2 5c-15.9 19-32.3 38.7-51.5 55.2-2 1.7-3.8 3.5-5.6 5.3-.5.5-1 1.1-1.6 1.6h-1.9z"/><path fill="#E7DAC6" d="M1013.8 1019.7c.1-.4.2-.7.4-.9 4.9-5 9.7-10.1 14.4-15.1 12.9-13.5 26.3-27.5 39.7-40.9 7-7 15.5-11.2 24.6-12.1.8-.1 1.7-.1 2.5-.1 3.3 0 6.5.6 9.1 1.8 10.4 4.7 19.6 12.2 27.2 22.2 9.6 12.7 19.5 25.9 25.2 41.3.4 1 .6 2.1.7 3.2 0 .2.1.4.1.6h-.6c-4-13.2-11.9-24.1-19.6-34.8-2-2.7-4-5.6-6-8.4-6.3-9-15.2-15.4-23-20.7-3.8-2.6-8-3.9-12.3-3.9-2.5 0-5.2.4-7.9 1.3-9.4 3-18.1 8.7-26.6 17.6-10.4 10.8-20.9 21.9-31 32.5-5.2 5.4-10.3 10.9-15.5 16.3h-1.4z"/><path fill="#E7DAC6" d="M105.9 678.7c.6-1.8 1.2-3.6 1.7-5.4 2.2-6.8 4.4-13.8 6.3-20.8 5-19 5.2-35.6.5-50.5-6.7-21.4-18.7-37.2-35.6-47.1-8.2-4.7-17-8.8-25.5-12.6-5.3-2.4-10.8-4.9-16.1-7.6-6.9-3.4-13.7-7.1-20.2-10.7-2.5-1.3-4.9-2.7-7.4-4 0-.4 0-.8-.1-1.1.6.3 1.2.7 1.8 1 1.9 1.1 3.8 2.2 5.8 3.2 7.2 3.6 14.7 7.4 22.2 11 4.8 2.4 9.8 4.5 14.7 6.6 11.7 5 23.8 10.2 33.9 18.9 12.9 11.2 21.7 24.7 26.3 40.3 6.4 22 4.9 44.5-4.5 68.6-1.3 3.1-2.4 6.4-3.5 9.5-.1.1-.2.4-.3.7z"/><path fill="#E7DAC6" d="M566.9 1004.7c-.2-5.2-.5-10.4-.6-15.6-1-26.5 4.7-52.3 17.3-78.6 15.2-31.8 35.6-60.9 53.4-85.1.8-1 1.2-2.2 1.7-3.3.1-.2.1-.3.2-.5.1.1.2.2.4.3l.6.6c-.3.5-.6 1.1-1 1.6-.4.7-.8 1.4-1.3 2.1-4.4 6.7-9 13.5-13.4 20-10.7 15.8-21.7 32.1-31.5 48.9-14.8 25.4-23.1 49.3-25.3 73.2-.6 7.3-.6 14.8-.5 22.1v16.1-1.8z"/><path fill="#E7DAC6" d="M1377.4 202.9c-1.1 0-2.3 0-3.5-.1-6.5-.2-12.7-.8-18.3-5.4.4.1.7.1.9.2 6 2.6 12.6 3.9 20.3 3.9 5.6 0 11.2-.7 16.4-1.4 19-2.6 37-9.4 54.4-16 6-2.3 12.2-4.6 18.3-6.7 12.5-4.3 23.7-6.4 34-6.4 6.1 0 12.1.8 17.8 2.2 5.8 1.5 11.2 4.8 16.5 8 2.3 1.4 4.7 2.8 7.1 4.1.5.3 1 .5 1.5.8.4.2.8.5 1.1.7v1.2c-4.1-2.6-8.3-5.1-12.4-7.6-9.3-5.7-19.6-8.6-30.4-8.6-6.3 0-12.9 1-19.7 2.9-12.2 3.4-24.3 7.8-36 12-4.1 1.5-8.1 2.9-12.2 4.3-17.3 6.2-36.2 11.9-55.8 11.9z"/><path fill="#E7DAC6" d="M1457.2 123.9c-14.6 0-24.4-9.7-26.9-26.5-5-33.7-3.1-63.4 5.6-90.8.4-1.2.7-2.5 1-3.7-.8 4.5-1.6 9.2-2.8 13.7-4.9 17.7-5.5 35.6-4.8 57 .3 7.9.7 16.3 2.1 24.3 2.7 15.7 13.2 25.1 28.1 25.1 2.3 0 4.7-.2 7.2-.7 9-1.6 18.4-3.8 29.7-6.9 9.8-2.7 17.8-4 25.3-4 8 0 15.3 1.5 22.3 4.5v1.5c-1.4-.4-2.9-.9-4.3-1.3-3.9-1.2-8-2.5-12-3.2-2.2-.4-4.5-.6-6.8-.6-7.6 0-15.1 2-22.3 3.9-1.9.5-3.9 1-5.9 1.5-10.8 2.6-21.4 5.1-32.1 6-1.2.2-2.3.2-3.4.2z"/><path fill="#E7DAC6" d="M790.6 1019.7c3.2-3.1 6.3-6.3 9.4-9.4 3.6-3.6 7.2-7.2 10.8-10.7 15.9-15.7 33-27.6 52.3-36.4 9.2-4.2 17.9-10.2 25.5-15.5 17.4-12.1 29.8-29.6 39-55.1-.3 2.3-.8 4.6-1.6 6.7-7 17.9-15.8 31.4-27.2 41.2-10.6 9.3-22.7 17.4-34.9 23.3-21.2 10.2-40.9 24.9-61.8 46.1-2.1 2.2-4.1 4.4-6.1 6.6-.9 1-1.8 2-2.7 3.1h-2.7z"/><path fill="#E7DAC6" d="m825.5 1019.7.3-.3c1-1 1.9-2 2.9-2.9 7.7-6 15.6-12 23.3-17.8 14.8-11.2 30.1-22.8 44.6-34.7 25.6-21.1 41.1-40.4 50.2-62.8 1.6-3.9 2.7-7.9 3.9-12.2v-.1c-.8 7.8-3.3 15.6-7.8 23.6-10.8 19.2-25.7 36.4-44.3 51.2-13.9 11.1-28.2 22.1-42 32.8-8.3 6.4-16.9 13-25.3 19.6l-2.4 2.1c-.5.5-1 1-1.5 1.4h-1.9z"/><path fill="#E7DAC6" d="M914.3 1019.7h-.9c.9-1 1.8-2.1 2.6-3.1 2.9-3.5 6-7.2 9.3-10.4 5.5-5.3 11.1-10.5 16.6-15.5 7.9-7.2 16.1-14.7 23.7-22.4 21.2-21.5 34.9-43.9 41.8-68.4.1-.2.2-.4.4-.5 0 .2-.1.4-.1.6-.3 1.3-.6 2.6-1 4-6.2 23.6-19.6 45.1-42.3 67.8-8.5 8.5-17.6 16.9-26.4 24.9-5.1 4.7-10.4 9.5-15.4 14.3-2 1.8-3.8 3.9-5.5 5.9-1 .8-1.9 1.8-2.8 2.8z"/><path fill="#E7DAC6" d="M9.5 889.3v-2.7c1-2.5 2.1-5 3.2-7.4 2.4-5.4 4.9-11 6.3-16.8 4.2-17.1 5.9-35.3 5.1-55.9v-.3c.2 4.3.3 8.5.3 12.8-.1 21-1.7 45.5-13.1 68-.4.8-1.1 1.5-1.8 2.3zm14.4-87.8c-.5-8.1-1.5-16.3-2.5-24.2-.5-3.9-1-8-1.4-12-.3-2.8-.6-5.7-.9-8.5-.6-5.3-1.1-10.8-1.8-16.2-1.8-14.8-3.6-30.2-5.6-45.4-.4-3.2-1.1-6.5-1.7-9.7-.2-.8-.3-1.6-.5-2.3v-4.6c0 .2.1.3.1.5 1 4 2 8.2 2.7 12.3 1.9 12.5 4 27.4 5.7 42.9 1.7 14.5 3.1 29.1 4.2 43.6l.2 3c.5 6.7 1.1 13.7 1.5 20.6z"/><path fill="#E7DAC6" d="M468.6 73.7c-8.7 0-17.6-2.5-25.8-7.1-23.4-13.3-38.9-34.8-46-63.9-.3-1.2-.3-2.7-.3-4.1v-.2c.1.6.2 1.2.4 1.8.6 2.8 1.1 5.7 2.1 8.4 8.6 25.7 22.9 44.1 43.6 56.2 8.7 5.1 17.5 7.7 26.1 7.7 14.8 0 28.5-7.7 39.7-22.2.1-.2.3-.4.4-.5-.1.2-.3.5-.4.7-2 3-4 6.2-6.5 8.8-9.2 9.4-20.7 14.4-33.3 14.4z"/><path fill="#E7DAC6" d="M1424.3 162.7c-6.3 0-11.6-1.6-16.2-4.8-4.5-3.2-6.3-8-7.4-12.7 0 .1.1.2.1.2.4.8.8 1.6 1.1 2.3 2.8 8 8.9 12.3 18.6 13 1.4.1 2.9.2 4.4.2 10.2 0 20-2.6 29.6-5.1 3.6-1 7.4-1.9 11.1-2.8 4.9-1.1 9.8-2.3 14.5-3.5 7.5-1.9 15.4-3.9 23.1-5.3 3.5-.6 7.1-.9 10.5-.9 10.9 0 21 3.1 30.1 9.2 0 .3 0 .6.1.9-.1 0-.2 0-.3-.1-1-.2-1.9-.5-2.7-.9-8.5-5-18.1-7.5-28.3-7.5-5.2 0-10.8.7-16.6 1.9-8.2 1.9-16.5 4-24.6 6.1-11 2.9-22.4 5.9-33.7 8.1-4.2.9-8.8 1.7-13.4 1.7z"/><path fill="#E7DAC6" d="M1481.8 76.2c-2.4 0-4.9-.4-7.3-.7l-.8-.1c-10.2-1.6-15.8-9.3-15.2-20.6 1.3-22 9.1-37.5 23.9-47.2 3.5-2.3 7.7-3.5 12.1-4.9 1.9-.6 3.9-1.2 5.8-1.9 1.9-.6 3.8-1.3 5.7-1.9 1.9-.6 3.8-1.2 5.6-1.9 1.6 0 3.2.1 4.7.1-.7.2-1.3.5-1.9.7-4.2 1.5-8.6 3.1-13 4-14 2.8-24.2 9-31.1 19.1-9.3 13.5-12.6 26.7-10 40.4 1.5 7.8 10.4 14.6 19 14.6 1.1 0 2.2-.1 3.3-.4 1.6-.4 3.3-.8 5-1.2 1.1-.3 2.3-.6 3.6-.9-2.7 1.9-5.7 2.8-9.4 2.8z"/><path fill="#E7DAC6" d="M48.3 1019.6c-2.3-5.8-2.9-11.8-2.9-17.9.4 2.8 1.1 5.7 1.7 8.5.4 1.8.9 3.6 1.2 5.4l.7 4h-.7zM45.7 987c1.2-17.6 8.8-33.3 16.9-47.6 4.4-7.6 9.2-15.2 13.9-22.5 3.9-6.2 8-12.5 11.8-18.9 2.4-4 4.2-8.5 5.9-12.8.2-.6.5-1.2.7-1.8-.8 4.6-2.2 8.6-4.3 12.1-1.7 2.7-3.3 5.5-5 8.2-9.3 15.3-19 31.2-27.8 47.1-6.5 11.6-10.6 23.8-12.1 36.2z"/><path fill="#E7DAC6" d="M1194.2 1019.7c-1.2-2-2.4-4.1-3.6-6.1-2.7-4.6-5.5-9.4-8.6-13.7-7.9-10.6-16-21.3-23.9-31.6-5.2-6.8-10.6-13.8-15.8-20.7-.4-.5-.7-1-1-1.5.8.8 1.5 1.6 2.3 2.3 3.7 3.7 7.5 7.6 10.7 11.8 11.3 15.2 22.4 30.9 33.1 46.1 2.4 3.4 4.7 6.7 7.1 10.1.5.7.8 1.7 1.1 2.6.1.2.1.4.2.6-.5 0-1 0-1.6.1z"/><path fill="#E7DAC6" d="M556.2 72.4c1.2-3.5 2.5-7 4.3-10.2 7-12.1 11.2-25.4 15.2-38.2.5-1.5.9-3 1.4-4.5l3.6-11.4c.8-2.7 1.7-5.3 2.5-8-.1.3-.1.6-.2.9-.6 3.6-1.3 7.3-2.3 10.8-6.4 23.6-14.6 44-25.3 62.2.5-.6.7-1.1.8-1.6z"/><path fill="#E7DAC6" d="M1329.1 61.7c.4-3.2.9-6.5 1.2-9.8 1-12.7-4.4-23.9-16.4-34.2-5.4-4.6-11.3-8.9-16.9-12.9-2.8-2-5.6-4-8.4-6.1l-1.8-1.5h2.7c.4.3.7.6 1.1.9.9.8 1.8 1.6 2.9 2.2 17.3 10.2 28 20.7 34.4 33.8 4.6 9.4 5 18.8 1.1 28 .1-.2.1-.3.1-.4z"/><path fill="#E7DAC6" d="M228.4 1019.7c.4-.5.8-1 1.3-1.2 3.1-1.2 6.3-2.4 9.4-3.7 10.5-4.1 21.4-8.4 32.3-12.3 2.9-1 5.8-1.5 9.1-1.5 3.9 0 8 .7 12.9 2.2.9.2 1.6.8 2.5 1.4l.9.6c-1.9-.4-3.9-.9-5.9-1.4-3.1-.8-6.4-1.2-9.6-1.2-6.1 0-12.7 1.4-20 4.2-7.3 2.8-14.5 6.1-21.5 9.3-2.6 1.2-5.3 2.4-7.9 3.6h-3.5z"/><path fill="#E7DAC6" d="M699.5 22.7c-3.2 0-7.3-5.5-8.1-10.9-.1-1-.1-2 0-3.2.6 1.5 1.2 3 1.7 4.5.6 1.4 1.1 2.9 1.6 4.3 1.1 2.7 2.9 4.6 5.1 5.3h-.3zm5.7-.3c.2-.1.4-.2.7-.3 9.4-4.5 19.2-9.6 30.9-16 3.1-1.7 6-3.8 8.9-5.8 1.4-1 2.9-2.1 4.4-3.1h2.1l-.1.1c-.9 1-1.7 2-2.7 2.6-2.2 1.3-4.5 2.7-6.7 4-9.2 5.6-18.8 11.4-28.6 16.4-2.5 1.3-5.7 1.8-8.9 2.1z"/><path fill="#E7DAC6" d="M25.5 333.1v-8.4c0-7.4.1-15.1-.1-22.7-.2-5.8-.6-12-2.1-17.9-2.9-11.4-6.5-22.7-10.1-33.7 2.1 4.9 4.3 10 6 15.1 6.9 19.2 7.6 39.4 7.5 56.6-.1 2.5-.3 5-.5 7.6l-.3 3.3c-.1.2-.4.1-.4.1zm-13.3-84.7c-.5-.9-1.1-1.7-1.6-2.6-.4-.5-.7-1.1-1.1-1.6v-2.1c.8 1.9 1.7 3.9 2.5 5.7.1.2.2.4.2.6z"/><path fill="#E7DAC6" d="M462.7 35.8c-.7 0-1.4 0-2-.1-10-1.3-18-6.6-24.3-16.4-3.3-5.1-6.2-10.6-9-15.9-1.1-2.1-2.2-4.2-3.3-6.2h1.3c1.5 2.6 3 5.2 4.4 7.8 3.2 5.7 6.4 11.7 10.2 17.1 5.8 8.1 13.2 12.2 22.1 12.2 3.8 0 7.8-.8 11.9-2.3-2.9 2.3-7.1 3.8-11.3 3.8z"/><path fill="#E7DAC6" d="M1536 477.6c-1.1-.3-2.2-.5-2.7-1.1l-3.3-3.3.6.6c1.4 1.2 3 2.2 4.7 3.2.5.3 1 .6 1.4.9-.2-.2-.5-.3-.7-.3zm-17.1-16.7c-3.3-4.8-1.2-10.5.7-14.4 5.6-11.5 15.4-18.9 24.5-24.7v1.3c-1.7 1.6-3.5 3.2-5.3 4.8-5.5 4.9-11.1 10-16.1 15.5-3.1 3.4-4.1 8.8-4.4 11.7-.3 2.1 0 4.1.6 5.8z"/><path fill="#E7DAC6" d="M1193.5 63.8c-.6-2.8-1.2-5.6-1.7-8.4-1.5-7.5-3.1-15.3-5-22.8-1.7-6.8-3.9-13.5-5.9-20.1-1-3.3-2.1-6.6-3.1-10-.4-1.3-.6-2.7-.8-4.1-.1-.4-.1-.8-.2-1.3h.5c.9 2.6 1.8 5.2 2.7 7.7 1.9 5.3 3.9 10.8 5.2 16.4 2.4 10.2 4.5 20.6 6.4 30.7.7 3.7 1.4 7.4 2.2 11.1 0 .2-.1.5-.3.8z"/><path fill="#E7DAC6" d="M640.6 91.4c-.1-.5-.1-.9 0-1.2 1.4-5.7 2.8-11.5 4.2-17 2.5-10.1 5.1-20.5 7.3-30.8 2.2-10.2 4-20.6 5.7-30.7.8-4.8 1.7-9.7 2.5-14.5h.5c-.7 4-1.4 8.2-2.1 12.1-1.4 8.4-2.9 17.1-4.7 25.5-3.1 14.6-6.5 29.5-9.9 43.8-.8 3.5-1.6 6.9-2.4 10.4 0 .8-.5 1.6-1.1 2.4z"/><path fill="#E7DAC6" d="M1284.2 28.3c-.6-.2-1.3-.5-1.9-.8h-.1c-14-9.2-28.5-18.7-42.7-28.2-.8-.5-1.4-1.3-2.1-2.1h2c.8.6 1.6 1.2 2.5 1.8 2.7 2 5.6 4.1 8.5 6 3.6 2.3 7.3 4.7 10.9 7 5.8 3.7 11.8 7.5 17.7 11.3 1.4.9 2.6 2.2 3.8 3.5.5.5.9 1 1.4 1.5.1-.1 0-.1 0 0z"/><path fill="#E7DAC6" d="M30 243.9c-.5-.8-1.1-1.6-1.5-2.4l-17.1-33.6c-.4-.7-.8-1.3-1.3-1.9-.2-.3-.4-.5-.6-.8v-1.5c.1.1.2.2.2.3.9 1.2 1.9 2.4 2.6 3.8 5.3 10.1 10.7 20.6 16.5 32.3.5.9.8 2 1 3.2.1.3.1.6.2.9.1-.2.1-.3 0-.3z"/><path fill="#E7DAC6" d="M9.5 1000.6c1.2-2.3 2.4-4.5 3.7-6.7 3.1-5.7 6.3-11.5 9-17.5 0-.1.1-.1.1-.2-2.6 6.8-5.3 13.6-8.2 20.3-.7 1.6-2.2 3-3.7 4.4-.3.3-.6.5-.9.8v-1.1zM26 966.3c.5-1.4.9-2.8 1.4-4.2.9-2.9 1.9-5.9 3-8.7 0-.1.1-.3.2-.4-.1.3-.2.5-.3.8-1.2 3.8-2.4 7.8-3.9 11.6-.2.3-.3.6-.4.9z"/><path fill="#E7DAC6" d="M588.2 48.7c2.3-8.5 4.7-17.1 7-25.6 2.4-8.6 4.8-17.3 7.1-25.9h.4c-2.3 8.6-4.6 17.2-6.9 25.7-2.3 8.7-4.6 17.3-7 26-.1-.1-.3-.2-.6-.2z"/><path fill="#E7DAC6" d="M97.1 1019.7c-.8-.8-1.6-1.6-2.4-2.3-2.1-1.9-4-3.8-5.4-6-7.4-12.1-10-22.8-8.1-33.7-.8 9.7.7 17.9 4.3 25.1 1.8 3.5 4.4 6.6 6.9 9.6 1.2 1.4 2.4 2.9 3.6 4.3.6.7 1.1 1.4 1.6 2.1.2.3.4.6.7.9h-1.2z"/><path fill="#E7DAC6" d="m1519.4 1019.7 1.5-1.8c1.1-1.3 2.3-2.7 3.3-4.1 1.9-2.5 3.8-5.1 5.7-7.6 3.7-5 7.6-10.2 11.4-15.1.7-1 1.8-1.9 2.8-2.8v2c-1.7 2.2-3.4 4.4-5.1 6.5-1.8 2.3-3.6 4.5-5.3 6.8-4.1 5.4-8.2 10.9-12.2 16.2h-2.1z"/><path fill="#E7DAC6" d="M152.1 2.4c-5.6 0-9.5-1.6-12.7-5.2h2.2c3.1 2.6 8 4.1 13.6 4.1s11-1.5 14.9-4.1h1.6c-.4.2-.8.4-1.2.7-2.9 1.6-5.9 3.2-9 3.6l-.5.1c-3.1.4-6.1.8-8.9.8z"/><path fill="#E7DAC6" d="M1348.1 28.9c-3.5-12.3-10.3-21.7-19.4-31.7h.8c7.6 8 15.3 16.9 18 28.9.1.5.2 1 .4 1.5 0 .4.1.8.2 1.3 0-.1 0-.1 0 0z"/><path fill="#E7DAC6" d="M478.1 12.7c-1.2-2.7-2.4-5.3-3.6-8-1.2-2.5-2.3-5-3.5-7.6h.4l3.6 7.8c1.2 2.5 2.3 5 3.5 7.6-.1.1-.3.2-.4.2z"/><path fill="#E7DAC6" d="M1541.9 74.5c-1.6-1.1-3.2-2.2-4.9-3.3l-5.4-3.6c4.2 1.2 7.3 3.9 10.3 6.9z"/><path fill="#E7DAC6" d="M1539 883.4c1-2.3 2.1-4.7 3.1-7 .7-1.5 1.3-3 2-4.5v1.3c-.9 1.8-1.7 3.6-2.6 5.4-.8 1.6-1.5 3.2-2.3 4.8h-.2z"/><path fill="#E7DAC6" d="M1382.2 1019.7c-.6-1.1-1.2-2.3-1.9-3.4.9 1.1 1.9 2.3 2.8 3.4h-.9z"/><path fill="#E7DAC6" d="M590.9 999.1c.1-3 .2-6 .2-8.9.2-8.8.4-17.8 1.5-26.6 2.9-23.4 10.4-46.4 22.9-70.3 9.9-19 22.6-37.1 38.7-55.4 24.6-27.7 45.5-59 64-95.8 16-31.5 39.7-56.2 58.6-74.1l1.6-1.5c20-18.9 40.6-38.5 59.1-59.3 3-3.5 5.3-7.2 6.8-11.2-2 5.8-5.6 11.4-10.9 16.8-20.1 20.4-41.8 42.1-70.4 70.2-18.4 18-32.1 36.3-41.8 55.9-18.4 37-43.1 73.1-77.7 113.6-21.3 25-36.3 53-44.6 83.2-5 18-7.3 35.2-7.2 52.3 0 2.8-.3 5.7-.6 8.5 0 .9-.1 1.8-.2 2.6zm254.2-422.6c-1.9-6.3-6-12-12-16.8-7.6-6.1-16.5-9.5-25.2-12.9-1.9-.7-3.9-1.5-5.8-2.3-16.3-6.5-32.8-13.6-48.7-20.4-3.4-1.4-6.7-2.9-10.1-4.3-28.3-12-57.5-18.3-79.8-22.3-9.2-1.7-20-4-29.9-8.4-16.2-7.1-26.6-26.5-24.8-46.1 1.7-17.7 11.5-30.4 21.8-43.9 10.5-13.5 20.7-27.7 30.5-41.3 5.3-7.4 7.1-16.5 5.7-27.8-1.3-10.4-11.4-20-23.4-22.2-2.7-.5-5.6-.8-8.4-.8-9.7 0-19.1 3-28.1 5.8l-1.8.6c-5.4 1.7-10.9 3.6-16.2 5.5-10.8 3.7-21.9 7.6-33.1 10-9.5 2-18.7 3.1-27.4 3.1-27.5 0-51.6-10.2-71.5-30.4-17.5-17.7-28.1-38.7-31.3-62.3-2.5-17.8.2-34.6 7.8-48.6 8.3-15.3 22.2-26.8 40.4-33.2 21.4-7.5 38-15.5 52.2-25 24.7-16.6 42.5-38.6 53.1-65.7 1.1-2.9 2.5-5.8 3.9-8.6.7-1.4 1.5-2.9 2.1-4.4l.2.1c-.3.6-.6 1.2-.8 1.8-.9 2-1.9 4.2-2.8 6.3-6.5 15.4-13.8 31.6-25.5 45.3-5.4 6.3-11.9 11.8-18.3 17.2l-3.6 3c-14.2 12.3-31.5 19.6-48.2 26.6-2.6 1.1-5.1 2.2-7.7 3.3l-2.4 1c-6.1 2.6-12.5 5.3-18.4 8.7-18.1 10.3-28.6 26.7-32 49.9-3.6 24 5.9 45 15.6 62.5 12.8 22.9 33.6 38.9 61.6 47.7 7.7 2.4 16.2 2.5 24.5 2.7 1.6 0 3.2.1 4.8.1h2.2c18.3 0 35.5-6 52.2-11.9 3.1-1.1 6.3-2.2 9.4-3.3 12-4 22.8-6.8 33.1-8.7 2.5-.4 4.9-.7 7.3-.7 8.6 0 16.3 2.9 22.9 8.6 11.2 9.6 10.7 31.6 2.9 43.4-5 7.3-10.3 14.6-15.5 21.7-2.8 3.9-5.8 7.9-8.6 11.9-2.3 3.2-4.8 6.4-7.2 9.5-5.4 7-11 14.3-15.4 22.1-7.5 13.5-8.8 28.1-3.7 41.2 4.9 12.4 15.2 21.9 28.3 26.2 11.7 3.8 23.7 6.1 37 8.4 22.5 3.9 45.6 11.1 72.5 22.6 12.5 5.4 25.3 10.6 37.7 15.7 10.9 4.5 22.1 9.1 33.1 13.8 12.3 5.3 19.7 12.2 23.1 21.9 1 1.5 1.4 2.8 1.7 4.1z"/><path fill="#E7DAC6" d="M542.5 770.4c2.8-17.9-3.9-31.2-19.9-39.6-1.1-.6-2.1-1.1-3.2-1.7-3.2-1.7-6.5-3.4-9.9-4.7-18-6.4-27.8-21-34.3-33-2.2-4-4.3-8.1-6.5-12.1-6.8-12.7-13.8-25.9-21.5-38.4-3.4-5.6-8.2-10.4-12.8-15.1-1.9-1.9-3.9-3.9-5.7-5.9-8-8.6-18.4-13.7-28.4-18.7-4-2-8.2-4-12.1-6.3-23.5-13.3-39-26.3-50.4-42-5.4-7.3-9.9-15.4-14.4-23.3-2.5-4.4-5.1-9-7.8-13.4-8.1-13.2-17.2-27-30.7-36.7-10.6-7.7-23.3-11.7-34.4-14.8-8.5-2.4-17.1-4.7-25.5-6.9-20-5.1-35.3-16.6-46.8-34.9-10.5-17-17.5-33-21.3-48.9-1.9-7.8-2.9-16-3.6-22.9-1.3-12.6 3.9-23.3 15.2-30.9 8.3-5.6 17.6-10.7 29.5-16 2-.9 4.1-1.8 6.1-2.7 14.2-6.3 28.8-12.8 41.4-22.4 5.3-4 10.3-9.6 14.2-15.6 11.4-18.2 19.5-34 22.1-52.2 1.5-10.6 1.9-21.3 1.2-32-1.8-27.9 1.1-50.7 9.1-71.7 5.4-14.1 9.2-27.5 11.4-39.8 3.2-17.4-.8-33.4-11.8-47.6l-.6-.9c9.1 8.3 11.8 19.8 13.1 29.1 3.1 22.1-4.4 42.1-11.8 61.5-6.1 16.4-9.1 31.2-9.1 45.4-.1 6.8.2 13.6.4 20.2.2 5.1.4 10.5.4 15.7.2 20.3-4.6 39.3-14.2 56.4l-.1.1c-5 9-10.2 18.2-16.8 26-8.3 9.9-20.1 15.7-31.6 21.4l-1.1.5c-5.8 2.8-11.8 5.5-17.6 8-6 2.6-12.2 5.3-18.2 8.3-6.5 3.2-12.6 7.7-18 11.7-10.6 7.9-14.5 19.4-12 35.2 3.5 22.4 12.1 44 26.2 66 10.3 16.1 25.5 26.6 46.4 32.1 16.5 4.4 29.7 8.3 41.4 12.5 13.7 4.9 23.7 14.9 30.9 23 9.3 10.6 16.3 22.7 23.1 34.5 2.6 4.5 5.4 9.3 8.2 13.8 12.2 19.7 28.6 35.5 50.2 48.2 5.2 3.1 10.6 6.1 15.9 8.9 5.9 3.3 12.1 6.6 17.9 10.2 16.2 9.9 28.9 23.1 37.7 39.1 4.8 8.5 9.5 17.3 14 25.8 3.2 5.9 6.5 12 9.8 18 6.5 11.9 16.3 26.4 34.6 32.7 6.3 2.2 12.9 5.9 19.7 11 9.6 7.2 13.8 18.2 12.5 32.6-.1 2.1-.5 4.1-1 6.2.2-.9.4-2 .5-3z"/><path fill="#E7DAC6" d="M945.7 531.6c-4.9 0-9.7-1.7-14.3-3.4-5.7-2.1-10.6-4.2-15-6.4-15.7-7.6-32.4-9.4-49.7-10.6-46.8-3.4-86.1-16.7-120-40.5-10.6-7.5-19.8-17.2-28.1-29.8-7.9-12.2-9.1-25.6-3.4-39.7 5.9-14.7 12.1-25.2 19.9-34.1 8.9-10.2 21-15.5 32.6-20.7 1.5-.7 3.1-1.4 4.6-2.1 22.7-10.3 45.4-16.7 67.7-19 3-.4 6-.5 8.9-.6 1.2 0 2.4-.1 3.6-.1h2.7c19.4 0 38.1 5.6 56.2 11 1.6.5 3.1.9 4.7 1.4 21.1 6.3 45.2 14.2 65.5 29.1 24.6 18 35 40.7 31.9 69.2-2.9 26.8-13 51.6-30 73.7-7.9 10.3-18.7 17.6-32.1 21.7-1.9.6-3.8.9-5.7.9zm-93-205.3c-10.3 0-20.7 1.2-30.9 3.5-22.5 5.1-44.5 13.2-67.4 24.8-12 6-20.8 14-26.9 24.4-4.9 8.4-8.3 14.9-11 21.3-5.3 12.1-5.4 23.5-.2 33.7 6.5 12.9 15.8 24 26.9 32.3 32.1 23.9 69.7 37.9 115 42.6 4.8.5 9.7.9 14.4 1.3 4.7.4 9.6.8 14.4 1.2 12 1.2 23.1 6.1 33.8 10.9l6.9 3c5.8 2.5 11.8 3.8 17.9 3.8 12.5 0 24.2-5.5 32.2-15 7.6-9.1 13.6-17.7 18.2-26.2 8.8-16.5 17.8-37 17.4-63.3.5-12-4.2-25.5-13.3-38-10.7-14.9-26.3-26.1-49-35.5-16.8-6.9-34.6-12.2-51.8-17.3l-3.2-.9c-14.6-4.4-29.2-6.6-43.4-6.6z"/><path fill="#E7DAC6" d="M1060.2 634.6c-6 0-9.2-5.5-10.8-10.1-4-11.6-4.6-24.5-1.8-39.5.9-4.7 1.7-9.4 2.6-14.1 3.3-18 6.7-36.5 11.3-54.5.8-3.3 1.7-6.6 2.5-9.9 6.2-24.2 12.5-49.3 24.1-72.2 1.5-2.9 2.8-5.9 4.1-8.7 1.6-3.7 3.3-7.5 5.3-11 5.7-10.5 14.6-16.3 24.9-16.3 4.5 0 9.2 1.1 14 3.2 19.8 8.7 30.8 24.9 32.6 48.2.2 2.5.1 5.1.1 7.6 0 1.3-.1 2.6-.1 3.8 0 .3.2.6.5.7.3.1.6.2.9.2-.6 4.8-1.1 9.7-1.6 14.4-1.1 11.2-2.3 22.9-5 33.9-4.3 16.9-12.2 32.9-23.6 47.6-2.4 3.2-4.8 6.4-7.1 9.5-5.4 7.4-11 15-17.3 21.8l-2.6 2.9c-12.7 13.9-25.7 28.2-42.3 38.3-1.1.7-2.3 1.3-3.4 1.9-2.6 1.5-5.1 2.3-7.3 2.3zm62.3-234.7c-10.1 0-18.5 5.7-24.4 16.4-6.3 11.6-11.7 23.4-15.9 35a626.4 626.4 0 0 0-26.1 94.5c-.9 4.5-1.8 9-2.7 13.4-3 14.1-6.1 28.7-6.1 43.5 0 6.8 1.1 14.3 3.1 21.7 1.5 5.5 5.4 9.1 9.9 9.1 1.5 0 3-.4 4.4-1.2l1.4-.8c5.8-3.3 11.8-6.6 16.6-11.1 12.4-11.6 24.8-24.1 36.9-37.1 13.8-14.8 25.2-31.6 33.9-49.9.9-1.9 1.9-3.8 2.8-5.6 3.1-6 6.3-12.3 7.4-18.8 2.2-11.9 3.2-24.3 4.1-36.3.4-4.6.8-9.5 1.2-14.2-.2-24.2-7.3-39.3-23.6-50.5-8-5.3-15.7-8.1-22.9-8.1z"/><path fill="#E7DAC6" d="M464.2 505.1c-17.6 0-33.1-5.5-46.1-16.3-5.1-4.2-9.6-9.4-13.9-14.4-1.8-2-3.6-4.1-5.4-6.1-.4-.5-.7-1.1-1-1.9-.1-.3-.2-.6-.3-.8l.1-.1c.7.7 1.3 1.5 2 2.2 1.4 1.6 2.9 3.2 4.2 5 11.9 16.1 28.4 26.5 49.2 30.8 2.5.5 5.2.8 8.1.8 4 0 8.3-.5 12.4-1.5 10.7-2.6 17.5-10.8 20.8-25 2-9 3.3-18.6-1-27.4l-.6-1.2c-3.4-6.9-6.9-14-12.3-19-21.9-20.5-51.6-46.4-87.3-64.5-4.1-2.1-8.5-3.7-12.7-5.3l-1.6-.6c-3.6-1.4-6.4-2.1-8.6-2.1-5.8 0-8.8 4.5-9.9 15-1.3 13.5 2 26.9 10.7 43.3 7.1 13.4 14.3 27.1 21.4 40.3l.1.2c.8 1.5 1.4 2.9 2.1 4.5l.2.4c-1.1-1.9-2.3-3.8-3.4-5.7-2.7-4.5-5.5-9.1-7.9-13.9-1.6-3.1-3.1-6.1-4.7-9.2-6-11.5-12.1-23.4-16.5-35.6-3.1-8.7-2.7-18.9-2.3-28.7v-.5c.3-7.2 4.1-11.2 10.5-11.2 2 0 4.2.4 6.6 1.1 18.6 6 37.1 16.3 56.5 31.6l5.9 4.6c10.8 8.5 21.9 17.3 32.7 26.1 13.8 11.4 21.2 22.7 23.4 35.4 2.9 16.5-.3 30.6-9.7 41.7-4.3 5.1-10.7 7.7-19.5 7.9-1 .1-1.6.1-2.2.1z"/><path fill="#E7DAC6" d="M474.7 539.7c-10 0-20.6-1.6-33.2-5.1-20.4-5.6-37.8-15.9-51.8-30.6-4.1-4.3-7.6-9.2-11-14-1-1.4-1.9-2.7-2.9-4-4.4-6.1-8.9-12.3-13-18.7-15.8-25.7-32.3-52.9-50.5-83.1-3.8-6.3-5.4-13.4-5.2-22.6.6 12.6 6.5 23.2 12.1 32.4 4.8 7.9 9.7 16 14.4 23.8 10.3 17.1 21 34.8 32 51.9 8.4 13.2 17.9 25.4 28 36.3 13.3 14.3 31 23.6 55.7 29.2 8.9 2 17.2 3 25.3 3 5.7 0 11.4-.5 17-1.5 12.1-2.3 21.4-9 28.8-21-6.2 12.6-15.7 19.8-29.5 22.5-5.3 1-10.7 1.5-16.2 1.5z"/><path fill="#E7DAC6" d="M528.6 499.1c.2-.9.3-1.8.5-2.7.4-2.1.8-4.2 1.1-6.4-.1 1.9-.1 3.7-.2 5.5-.1 1.2-.6 2.4-1.4 3.6zm2.1-47.8c-2.5-12.4-8.2-23.1-17-32-17.1-17.4-36.5-30.2-53.2-40.4-26.8-16.4-50.4-38.1-72.2-66.2-5.5-7.1-12.7-14.2-22.8-22.3-4.5-3.6-8.3-5.3-11.7-5.3-4.6 0-8.6 2.8-13.6 9.3-.3.4-.7.8-1.2 1.1l.1-.1c2-2.5 4.1-5 6.4-7.3 2.9-2.8 5.8-4.2 8.9-4.2 2.4 0 4.9.8 7.9 2.4 13 7.2 22.2 18.5 28.9 27.5 18 24.7 41.4 45.5 75.8 67.5 12.2 7.7 24.9 17.1 40 29.5 12.4 10.2 20.4 23.1 23.5 38.4 0 .7.1 1.4.2 2.1z"/><path fill="#E7DAC6" d="M798.9 587.4c-.4-.7-.7-1.4-1.1-2.1-1.2-2.3-2.4-4.7-4-6.8-8.1-11.1-20.2-16.6-32-22l-.4-.2c-22.3-10.1-42.8-16.2-62.6-18.7-8.7-1.1-17.6-1.2-26.3-1.4-3.3-.1-6.8-.1-10.2-.2-4-.1-8-.1-11.9-.2-7.8 0-15.9 0-23.7-1-25.3-3.3-38.9-16.1-44.2-41.3-1.5-7-2.2-14.4-3-21.5-.3-3.3-.7-6.7-1.1-10h.1c.2 2 .5 3.9.7 5.9.6 5 1.1 10.3 2 15.4 1.2 6.8 2.5 13.5 4.8 19.8 6 16.7 18.9 27.1 36.3 29.3 16.6 2.1 33.3 2.3 51.8 2.3 38.3 0 75.5 11.2 110.7 33.3 3.9 2.5 6.9 6.7 9.8 10.8 1.1 1.6 2.2 3.2 3.4 4.7.5.7.6 1.8.8 3 .1.4.1.7.1.9z"/><path fill="#E7DAC6" d="m642.8 819.7-.3-.3c.6-.8 1.1-1.6 1.6-2.3.7-1 1.3-1.9 2-2.9 19.9-25.3 37.6-53.5 52.8-83.9 13.6-27.3 31.7-52.3 54-74.1 4.1-4 8.3-8 12.4-11.9 6.8-6.5 13.9-13.2 20.5-20.1 3.6-3.7 6.4-8 9.2-12.2.9-1.3 1.7-2.6 2.6-3.9-1.1 1.7-2.1 3.4-3.2 5.1-2.7 4.5-5.6 9.2-9.1 13.1-6.9 7.6-14.4 14.7-21.7 21.7l-7.4 7.1c-24.3 23.3-44 50.2-58.5 79.9-13.9 28.7-31.8 56.6-53 82.9-.5.6-1.1 1.1-1.8 1.6.1 0 0 .1-.1.2z"/><path fill="#E7DAC6" d="M575.7 388.3c-1.5-2.8-3.1-5.8-4.9-8.4-6.6-9.4-16.4-15.5-30.6-19.2-4-1-8.1-1.9-12.1-2.8-7.5-1.6-15.2-3.3-22.4-6-10-3.9-19.8-9-29.3-13.9-3.2-1.7-6.6-3.4-9.9-5.1-22.3-11.3-35.6-31.7-44.7-48.2-10.7-19.3-17.8-40.7-21-63.5-1.1-7.6-1.6-15.3-2.1-22.8.5 4.3 1 8.6 1.4 12.9 1.5 16.3 5.8 33.4 13.5 54 9.4 25.1 25.1 46.4 46.6 63.3 6.2 4.8 13.5 8.1 20.6 11.1 12.9 5.7 25.9 10.8 38.4 15.2 3 1 6.2 1.5 9.3 1.9 2.6.3 5.3.7 7.8 1.4 5.9 1.7 12 3.8 18.6 6.7 8.4 3.6 14.8 10.3 20.3 21.1.4.9.6 1.9.7 3 0-.3-.1-.5-.2-.7z"/><path fill="#E7DAC6" d="M401.1 169c.9-5.7 4-10.9 9.9-16.3 9.2-8.6 21-11.8 32.6-15l2.7-.7c5.5-1.5 11.2-3 16.6-4.4 9.1-2.3 18.5-4.7 27.6-7.7 16.4-5.3 31.8-14.4 47.3-27.8 3.9-3.4 7-7.6 10.1-11.7 1.3-1.7 2.6-3.5 4-5.2l.2-.2c-.3 1.1-.6 2.1-1.2 2.9-14.1 20.2-34.1 34.5-61 43.6-10.7 3.7-22 6.5-32.8 9.2-6.6 1.7-13.4 3.4-20.1 5.3-14.2 4-25.1 9-31.9 20.5-.9 1.6-1.8 3.2-2.6 4.8-.5.9-.9 1.8-1.4 2.7z"/><path fill="#E7DAC6" d="M1010.4 889.6c-.1-.2-.2-.5-.2-.6.1-1.6.2-3.2.2-4.8.1.8.3 4.4.4 5.4 0 0-.3.1-.4 0 0 .1 0 .1 0 0zm-.6-20.2c-1.8-16.4-6.6-32.3-11.2-47.9-7.6-25-11.2-45.9-11.5-65.7-.1-4.2-.1-8.5-.2-13 .1 3.4.3 6.7.4 9.8 1.1 24.7 5.4 48.4 12.6 70.4 5.7 17.4 8.9 32.2 9.9 46.4zm-23.5-146.6c-.3-9.7-.8-19.7-1.4-29.8-.6-9.3-1.9-18.6-3.2-27.6-.7-4.8-1.4-9.9-2-14.8-.1-1.1-.2-2.1-.3-3.2 5 23.4 7.3 44.9 6.9 65.3v10.1z"/><path fill="#E7DAC6" d="M447.2 593.1c-1.9-.7-3.7-1.4-5.6-2.1-2.6-1-5.2-1.9-7.8-2.9-19.4-7.4-39.4-15.1-56.7-28.1-3.1-2.3-5.7-5.3-8.3-8.2-1.1-1.2-2.2-2.5-3.4-3.7l1.2-1.2.3-.3 2.4 3c2.2 2.8 4.4 5.6 7.1 8 10.2 9.1 22.7 14.6 34.8 19.8 3.3 1.4 6.6 2.9 9.9 4.4 4.9 2.3 10 4.3 14.9 6.2l9 3.6c.6.2 1.4.7 2.2 1.5z"/><path fill="#E7DAC6" d="M308.4 346.3c5.7-14.3 13.9-27.2 21.9-39-1.1 2.2-2.2 4.3-3.3 6.4-5.3 9.4-10.8 18.9-16.1 28.1l-2.5 4.5z"/><path fill="#E7DAC6" d="M579 456.1c-.2-10-.5-20-.8-30-.3-10-.5-20-.8-30.1h.4c.6 19.7 1.2 40 1.7 60.1h-.5z"/><path fill="#E7DAC6" d="M985.9 570.6c1.8-5.4 4-9.8 6.8-13.4l-2.1 4.5c-1.4 3-2.9 6-4.3 9.1-.1-.1-.3-.2-.4-.2z"/><path fill="#E7DAC6" d="M977.3 603.6c.5-3.3 2.8-16.7 3.3-20.1h.1c-.6 3.4-1.1 6.7-1.7 10.1-.6 3.3-1.2 6.7-1.7 10z"/><path fill="#E7DAC6" d="M288.9 16.5c-4.5-4-9.1-8.1-13.6-12.1 4.5 4 9 8 13.6 12.1z"/><path fill="#E7DAC6" d="M1146.8 835.7c-.8-.8-1.5-1.6-2-2.5-12.8-22.6-18.4-44.1-17.1-65.7.7-12 3.7-24.2 6.6-35.9 11.3-45.4 32.4-85.5 51.5-118.7 6-10.4 12.1-20.9 18.1-31 8-13.5 16.2-27.5 24-41.4 17.3-30.6 32.5-64.6 47.7-106.9 1.2-3.3 2.1-6.6 2.8-9.7-2 15.5-8.4 29.8-14.5 43.6-1.5 3.4-3.1 6.9-4.6 10.4-8.2 19.2-17.9 39.3-30.5 63.1-5 9.4-10.7 18.7-16.2 27.6-3.6 5.8-7.3 11.8-10.8 17.8-3.4 5.8-6.6 11.7-9.7 17.4-3.1 5.7-6.3 11.6-9.7 17.4-15.7 27.1-29 56.1-40.8 88.7-8 22.4-12 40-13.1 56.9-1.3 20.3 3.8 40.5 15.9 63.4.5 1 1.1 2.1 1.6 3.2.4.9.9 1.7 1.3 2.6l-.1.1-.4-.4zM1279 405.1c-.2-1-.4-2.1-.6-3.1-2.4-10.7-8.6-19.6-19-27.2-6.3-4.6-12.9-9-19.2-13.3-8.1-5.5-16.6-11.2-24.5-17.3-13.4-10.3-26.1-21.2-37.7-32.5-8.9-8.7-17-18.4-24.2-28.8-10.6-15.5-13.9-34.1-10.2-56.9 4.4-27.3 15.5-52.1 25.8-72.8 1-2 1.9-4.1 2.8-6.1 1.1-2.5 2.2-5 3.4-7.5.2-.4.6-.8 1.1-1.2-1.9 4.5-3.9 9-5.9 13.5-5.9 13.6-12 27.6-17.4 41.7-6.8 17.9-10.1 33-10.2 47.8-.3 18.4 5.8 35.1 18.6 51.3 13.8 17.3 31.1 31.1 46.4 43.2 8.2 6.5 16.9 12.5 25.3 18.3 6 4.1 12.1 8.4 18.1 12.8 6.7 4.9 12.8 10.3 18.2 16 6.2 6.5 8.6 14.2 9.2 22.1z"/><path fill="#E7DAC6" d="M1205.7 814c-9.7 0-19.4-6.3-26-16.8-7.2-11.5-9.8-25.2-8-43.2 3.1-31 13.7-59.6 22.6-81 2.6-6.2 5.9-12.3 9.1-18.2 2.6-4.7 5.2-9.6 7.5-14.6 9-19.5 22.1-36.5 33.7-50.8.7-.9 1.4-1.7 2.1-2.6 8.4-10.5 17-21.4 30-27.1 4.8-2.2 9.9-4.3 15.2-5 .8-.1 1.6-.2 2.4-.2 4.9 0 9.6 2.3 12 5.7-1-.4-1.9-.8-2.7-1.3-3.1-2.2-6.4-3.2-10.1-3.2-4.3 0-8.7 1.5-12.7 3.1-13 5.2-21.8 15-31.3 26.3-21.3 25.4-38.6 53.3-51.3 83-11 25.6-21.7 53.5-25.3 83.7-2.6 21.7 1.1 37.2 12.2 50.2 5.6 6.6 13.3 10.6 20.7 10.6 5.5 0 10.5-2.1 15.1-6.1 1.1-.9 2.2-1.9 3.2-2.8 4.3-3.7 8.7-7.5 12.8-11.5 15.5-15.3 33.8-33.5 51.9-51.9 15.8-16 25.4-35.9 28.5-58.9 1.9-14.4 3.9-29.9 5.3-45.4 1.9-19.9.5-37.6-4.3-54-1.5-5-4.1-9.8-6.6-14.4-.1-.1-.1-.2-.2-.3 2.4 2.7 4.5 5.2 5.4 8.2 3.3 10 4.9 20.5 6.1 29.4 1.1 8.6 1.4 17.3.8 25.8-1.1 14.7-3 29.3-4.9 43.4-.8 6.4-2.1 13.5-3.7 20.9-3.9 17.1-9.9 29.5-19.1 38.9-15.5 16-31.6 32-47.1 47.4-7.8 7.7-15.8 15.8-23.7 23.7-6 5.9-12.6 9-19.6 9z"/><path fill="#E7DAC6" d="M1245.2 930.7c-.9 0-1.8 0-2.7-.1-19.2-1.6-34.4-11.6-45.4-20.1l-1.6-1.2c-15.4-11.9-31.3-24.1-44.4-39.1-4.2-4.8-8.6-9.8-12.1-15-9.6-14.1-18.1-26.9-23.8-41.8-6.9-17.7-8.8-36.9-5.9-58.5.6-4.3 1.5-8.5 2.7-12.7-3.6 14.5-3.3 28.9-2.4 41.4 1.4 20.5 8.5 39.7 21.2 57 1.8 2.4 3.4 5.1 4.9 7.7 2 3.3 4 6.8 6.5 9.8 15 18.4 30.8 33.3 48.5 45.4 3 2.1 6 4.3 8.9 6.5 4.8 3.6 9.8 7.4 15.1 10.5 9.8 5.9 19.6 8.9 29.1 8.9 2.2 0 4.4-.2 6.5-.5 3.4-.5 6.7-1.5 9.9-2.5l1.8-.6c-3.6 2.9-10 4.9-16.8 4.9zm-131.9-193.6c.4-1.4.8-2.7 1.2-4 1.7-5.8 3.5-11.8 4.6-17.8 2.3-11.9 7.3-23 12.2-33.6.7-1.4 1.3-2.9 2-4.3 13-28.7 28.9-56.4 44.2-83.1 2.5-4.4 5.1-8.9 7.6-13.3 3-5.2 6.2-10.5 9.4-15.6 5.1-8.3 10.4-16.8 14.8-25.7 5-10 9.1-20.5 13-30.7 1.8-4.6 3.6-9.3 5.5-13.9.3-.8.8-1.7 1.2-2.5.1-.1.2-.3.2-.4.1 0 .1.1.2.1-.8 2.2-1.5 4.3-2.2 6.5-1.1 3.3-2.3 6.8-3.5 10.1-10.4 27.7-21.5 49.6-34.9 69-8.8 12.7-16.2 26.7-23.2 40.2-12.5 23.7-26.6 50.6-39.2 77.8-3.4 7.3-5.5 15.2-7.6 22.9-1.4 5.2-2.8 10.5-4.6 15.6l-.9 2.7z"/><path fill="#E7DAC6" d="M1469.5 971.5c-5.3 0-10.4-1.5-15.4-4.3-6.3-3.6-12.3-8-17.9-13.1-20.9-19-36.9-40.2-47.6-63.1-5.4-11.6-9.9-23.8-14.3-35.6-1.7-4.6-3.5-9.3-5.3-14-1.9-4.7-3.7-9.5-5.5-14.2l-1.5-3.9c-6-16.3-18.7-19.8-28.3-19.8-3.3 0-6.8.4-10.3 1.2-15 3.4-25.7 13.3-35.1 23.4-13.5 14.6-22.4 27-28.8 40.2-.4.9-1 1.7-1.7 2.5-.1.1-.2.2-.3.4v-.2c0-.7 0-1.3.2-1.7 12.1-20.9 25.7-42.6 46.9-57.6 9.1-6.4 18.5-9.7 27.9-9.7 2.7 0 5.5.3 8.2.8 9.2 1.7 15.2 5.7 18.2 12.2 5 11 10.7 23.5 14.9 36.2 11.4 34.2 25.4 60 43.9 81.4 7.6 8.7 17.8 19.9 29.7 28.9 7.8 5.8 15.2 8.6 22.4 8.6 8.5 0 17.1-3.9 26.2-12.1 11.1-9.9 19-21.9 25.1-32.4 1-1.7 2.1-3.4 3.2-5.1-5 10.8-10.6 21.6-19.3 30.3-6.7 6.8-13.6 12.3-20.3 16.3-4.8 2.9-10 4.4-15.2 4.4z"/><path fill="#E7DAC6" d="M1175.8 840.2c-1.9-1.3-3.6-2.7-4.7-4.5l-1-1.5c-9-13.5-18.4-27.4-21.6-43.9-3.7-18.9-2.6-37 3.3-53.7 1.3-3.5 2.5-7 3.7-10.5-2.7 8.7-4.9 18-6.5 27.9-3.9 23.3-.8 42.6 9.5 59 1.9 3.1 3.8 6.3 5.7 9.4 2.4 4.1 4.9 8.3 7.5 12.3 1.3 2 2.7 3.8 4.1 5.5zm-14.6-129.6c6.5-17.6 12.9-34.2 20.1-50.5 5.9-13.4 13.3-26.3 20.4-38.9 3.2-5.6 6.5-11.5 9.6-17.3l1.7-3.2c4.2-7.9 8.6-16 13.4-23.8 5.8-9.5 12.1-18.8 17.6-26.6l2.2-3.2c8.9-12.8 18.2-26 27.7-38.5 5-6.6 12.4-11.6 22.1-15 2.4-.9 4.7-1.3 6.8-1.3 3.9 0 7.1 1.6 9.6 4.8 1.6 2.1 3 4.4 4.4 6.7-1.1-1.2-2.2-2.4-3.2-3.7-3.7-4.5-6.8-6.3-10.8-6.3-1.9 0-4.1.4-6.8 1.4-10.2 3.7-18.6 9.9-24.8 18.6-1.5 2.1-3.1 4.2-4.6 6.4-10 13.7-20.2 27.8-29.1 42.5-20.1 33.6-37.4 63.9-52.7 92.7-4.7 8.9-8.4 18.6-12 27.9-2.7 7-5.5 14.3-8.7 21.2-1.1 2-2 4-2.9 6.1z"/><path fill="#E7DAC6" d="M1211.6 855c-6.8 0-13.7-1.9-20.5-5.6 0 0 0-.1-.1-.1.3.1.5.1.8.2 1.4.3 2.6.5 3.8 1 5 2.1 10.2 3.2 15.2 3.2 8.8 0 17.5-3.2 25.8-9.6 3.3-2.5 5.5-6.3 7.7-10.1 1-1.7 2-3.4 3.1-5l2.1-3c3.4-4.9 6.8-9.9 10.4-14.7 9.5-12.9 21.9-23.3 33.9-33.3 2.8-2.3 5.7-4.8 8.5-7.2 9.7-8.3 20.7-17.7 26.1-30.9 5-11.9 8.1-24.5 10.4-35.3 3.3-15.1 5.1-31.2 5.3-48.9 0 5.6-.1 11.2-.2 16.8-.5 21.6-4.5 42.3-11.8 61.6-4.6 12.2-12.8 23.6-24.4 33.8l-10.5 9c-6.9 5.8-14.1 11.9-20.7 18.4-11.5 11.2-22.6 22.5-30.3 37.1-7.4 14.1-20.4 22.6-34.6 22.6zm132.6-214.6c-.2-11.4-.7-23-1.2-34.2l-.6-15c-.1-1.5 0-3 0-4.4v-.7c0 .2.1.3.1.5.3 1.5.6 3.1.7 4.6.1 8 .3 16.2.5 24.1.1 8.2.3 16.6.5 25.1z"/><path fill="#E7DAC6" d="M1463.6 920.6c-5.3 0-10.7-1.9-16.1-5.7-10.1-6.9-16.7-15.9-19.8-26.7-.7-2.3-1.4-4.6-2.2-6.8-1.9-5.7-3.8-11.5-4.4-17.4-1.2-11.8-.3-26 17-32.2 5.1-1.8 10.4-3.1 15.6-4.4 2.6-.6 5.2-1.3 7.8-2 2.2.4 4.4.7 6.5 1 4.9.8 9.5 1.5 14 2.7 1.8.5 3.4 2.1 5 3.7l1.6 1.6c13.4 12.6 17.3 27.7 11.6 45-3.7 11.4-8.4 23.1-17.6 32.2-6 6-12.3 9-19 9zm2.1-93.4c-7.8.1-15.6 2.2-23.2 4.2l-2.3.6c-11.9 3.3-19.2 13.3-19.1 26.1v2.4c0 1.9-.1 3.9.5 5.8 1.2 4 2.6 8 3.9 11.8 1.2 3.4 2.4 6.9 3.5 10.3 2.6 8.8 8.1 16.4 17.2 23.8 5.4 4.3 11.7 6.7 17.7 6.7 6.3 0 12.2-2.6 17.1-7.5 8.2-8.3 12.8-18.2 15.9-26 7-17.6 5.7-32.1-4-45.4-6.3-8.7-15.1-12.9-26.8-12.9l-.4.1z"/><path fill="#E7DAC6" d="M1224.3 891.3c-10.5 0-19.5-4.4-27.8-9.2-15.7-9.2-27.6-17.9-37.6-27.4-.6-.5-1.1-1.1-1.5-2 .3.3.6.5.9.8 2.1 1.8 4.2 3.6 6.4 5.2 1.8 1.3 3.7 2.6 5.5 3.9 9.3 6.5 18.9 13.3 28.6 19.5 8.4 5.3 16.7 8 24.6 8 9.4 0 18.6-3.8 27.3-11.3-6 7.4-13.5 11.5-22.8 12.4-1 .1-2.3.1-3.6.1z"/><path fill="#E7DAC6" d="M1179 133.4c-.1-.8-.1-1.6.1-2.1 1-2.5 2.2-5 3.4-7.4 1.5-3.2 3.1-6.4 4.3-9.8 3-8.3 5.1-15.2 6.5-21.8 1.1-5.1 1.7-10.2 2.3-15.7.1-.5.1-1 .2-1.5v.5c-.6 13-1.7 26.8-7.7 39.2-2.9 5.9-5.9 12-9.1 18.6z"/><path fill="#E7DAC6" d="M1338.4 558.6c-1.2-4.1-2.5-8.4-3.6-12.7-2.8-10.7-6.2-23.1-12.8-34-.1-.2-.2-.4-.2-.6.2.2.4.4.5.6 6.2 10.8 10.6 20.2 12 31 .5 3.6 1.6 7 2.7 10.4.6 1.8 1.2 3.7 1.7 5.5.1.5.2.9.2 1.3-.2-.5-.4-1-.5-1.5z"/><path fill="#E7DAC6" d="M1234.1 476.8c2.2-9.7 4.4-19 6.5-28.1 0 1.5-.2 3.1-.5 4.5-1.7 7.8-3.9 15.6-5.9 23.2-.1.2-.1.3-.1.4z"/><path fill="#E7DAC6" d="M222.2 867.8c-10.8 0-21-4-31.2-12.1-14.4-11.4-25.6-26.7-34.2-46.7-5.1-11.9-10.6-26.1-12.8-41.5-2.8-20.1-.1-39.8 8-58.5.8-1.8 1.5-3.7 2.2-5.5-.5 2.4-1.1 4.9-1.8 7.4-.9 3.3-1.9 6.7-2.9 9.9-2.2 7.2-4.4 14.7-5.9 22.2-1 5.4-.3 11.1.3 16.7.1 1.1.3 2.2.4 3.3 2.1 22 11 41.9 19.5 58.5 7 13.7 16.3 24.9 27.7 33.3 11.2 8.3 20.6 12 30.4 12 8.5 0 17.4-2.8 28.3-8.9 7.9-4.5 14.9-9.8 20.3-15.5 19.8-21.2 43.1-38.7 71.3-53.5 8.6-4.5 17.6-10.8 27.4-19.2 11.2-9.6 16.7-23.2 15.9-39.4-1.1-22-8.8-42.1-22.8-59.5-9-11.1-20.4-21.6-34-31-16.6-11.5-36-24.5-57-34-11.1-4.9-22-9.4-34.1-9.6h-.7c-12.3 0-22.7 5.2-32 15.8-11.8 13.5-20 29.4-27.9 44.8-1.2 2.3-2.3 4.5-3.5 6.8-4.9 9.2-9.7 18.6-14.4 27.6l-.1.3c-.2.4-.6.8-.9 1.3 0-.1 0-.1.1-.2.3-1 .7-2.1 1.2-3.1 3.3-6.3 6.7-12.7 9.9-18.8 7.7-14.8 15.7-30.2 24.2-44.8 4.9-8.4 12.3-15.8 19-22 6.2-5.7 13.8-8.5 23.2-8.5 3.7 0 7.7.4 12.3 1.3 13.4 2.6 26.7 8.1 40.5 16.7 17.1 10.6 36.4 22.7 53.8 35.8 25.7 19.4 40.4 45.1 43.7 76.6 2.2 21.3-5.2 38.6-21.5 50-12.9 9.1-26.4 17.1-37.9 23.8-18.7 10.8-34.6 23.3-48.7 38.2-12.2 13-23.8 21.5-36.5 26.6-6.4 2.1-12.7 3.4-18.8 3.4z"/><path fill="#E7DAC6" d="M225.3 832.4c-14.8 0-27.3-6.8-39.1-21.3-12.1-14.8-19.8-31.6-23-49.8-2.6-15.3-1-30 5-44.9 10.6-26.1 23.7-46.2 40.2-61.4 14.3-13.2 30.2-19.9 47.5-19.9h2.1c14.9.4 27.7 6.8 38.3 13 24.2 14.2 38.4 28.7 46 46.9 10.6 25.3 10.9 38.1-9.2 59.7-5.7 6.2-12.5 11.6-19 16.8-3 2.4-6.2 5-9.2 7.5-6 5.1-12 10.2-18 15.2-8.3 7-17 14.3-25.4 21.5-8.9 7.6-17.7 12.6-26.8 15.3-2.1.6-4.2.9-6.5 1.1-.9.1-1.7.2-2.6.3h-.3zm0-.8c.1.2.2.4.4.5.1.1.3.1.4.1h.2c1.8-.6 3.7-1.1 5.5-1.5 3.9-1 8-2 11.4-4 8.1-4.8 15.7-10.6 22.7-16.3 9.9-8.1 19.8-16.6 29.3-24.8 2.4-2.1 4.8-4.2 7.3-6.3 3.4-2.9 6.8-5.7 10.2-8.5 7.8-6.5 16-13.2 23.3-20.5 8.6-8.5 13-18 12.6-27.6-.5-14.8-5.1-28-13.7-39.3-13.7-18-31.5-31.8-53-41-8.5-3.6-16.5-5.6-23.7-6.1-1.1-.1-2.2-.1-3.3-.1-18.2 0-34.4 8-51.2 25.2-12.2 12.4-22.1 27.9-32 50-5.9 13.2-12 28.8-8.2 46.2 5.6 26.7 15.4 45.9 31 60.6 9.4 8.6 19.2 12.8 29.9 12.8h1l-.1.6z"/><path fill="#E7DAC6" d="M133.7 507.9c-1.1 0-2.3-.1-3.5-.4l-1-.2c-8.9-2.1-18.2-4.3-26.5-8.1-15.5-7-30.6-14.7-44.7-22.8-6.6-3.7-11-10.3-14-20.8l.4-.2c.2.3.3.5.5.8.7 1.1 1.3 2.2 1.8 3.3 3.1 7.7 8 13.5 14.4 17.2 20.9 11.9 41.5 22.9 64.3 28.2.5.1 1 .2 1.5.4 2.1.5 4.3 1.1 6.5 1.1 2.6 0 4.7-.8 6.5-2.6 4-4 2.4-8.8 1-13l-.6-1.8c-4.6-16.2-13.2-30.8-20.8-43.7-8.5-14.4-19.5-24.5-33.6-30.7-4-1.8-8-2.7-11.7-2.7-6.9 0-13.1 3-19 9.2-5.7 5.9-10.9 12.6-12.2 21.3.1-1.9.2-3.7.6-5.5 2.8-12.1 17.6-25 29.8-26.2.7-.1 1.5-.1 2.2-.1 8.6 0 15.7 4.8 22 9.1 15 10 23.8 24.9 31.1 39.6 4.9 9.7 8.8 20 12.4 29.7 1.3 3.5 1.3 7.6 1.3 11.5.1 4.3-3.5 7.4-8.7 7.4z"/><path fill="#E7DAC6" d="M84.2 963.1c.8-1.4 1.5-2.9 2.2-4.4 1.8-3.8 3.8-7.7 6.3-11 4.3-5.6 8.9-11 13.4-16.3 4-4.7 8.1-9.5 12-14.4 5.5-6.9 9.1-14.7 10.9-23.4-.1 1.2-.3 2.3-.4 3.5-1.4 10.7-7.8 19.2-14.5 26.9-1.9 2.2-4 4.4-5.9 6.6-3.7 4-7.5 8.2-10.9 12.6-2.7 3.3-4.9 7.1-7 10.8-.8 1.5-1.7 2.9-2.5 4.3l-2.9 5.1c-.3-.1-.6-.3-.7-.3zm45.5-92.6-.7-6.7c.4 1.3.8 2.5.8 3.8v3.9c0-.3 0-.7-.1-1z"/><path fill="#E7DAC6" d="M97.4 867c-4.3-31.9-8.6-63.8-12.9-95.5.4 0 .8-.1 1.2-.2 1.1 14.9 3.4 29.9 5.7 44.5 2.5 16.7 5.1 34 6 51.2z"/><path fill="#E7DAC6" d="M85.9 747.9c.8-14.6 4.1-29.3 10.2-45-4.5 14.5-8.4 29.5-10.2 45z"/><path fill="#E7DAC6" d="M35.1 941.4c2.4-8.1 6.6-15.5 10.3-22.2 3.5-6.2 6.9-12.6 10.3-18.7l5.7-10.5c.6-1.2 1.4-2.1 2.2-2.9-.2.6-.4 1.3-.8 1.9-2.2 4.2-4.5 8.3-6.7 12.5-5.6 10.4-11.4 21.1-17 31.7-1.4 2.7-2.7 5.4-4 8.2z"/><path fill="#E7DAC6" d="M1367 335.1c-1.6-1.1-3.3-2.3-5-3.4-13.5-9-29.3-12.2-43-14.5-6.2-1.1-12.6-1.8-18.8-2.5-8.4-1-17.1-2-25.5-3.8-15.3-3.3-28.4-7.4-40.2-12.6-20-8.6-34.5-22.9-43.2-42.6-6.4-14.6-4.9-29.2-2.7-43 4.7-30.2 20.5-55.5 35.3-76.3 14.2-20 32.7-36.2 50.5-51.8l3.1-2.7c2.7-2.4 5.1-5.2 7.5-8 .9-1 1.8-2.1 2.7-3.1 7.3-8.1 8.6-17.8 3.9-28.6-.2-.6-.5-1.1-.7-1.7 4.4 6.4 5.6 16.6 2.1 23.6-4.1 8.5-10.5 16.1-20.2 23.9-32.1 25.8-55.4 54.5-71.4 87.8-9.2 19.3-13.9 40-13.9 61.6 0 10.9 5.1 20.6 9.6 27.8 10.7 17.1 27.3 29.1 52.2 37.8 15.8 5.5 32.5 7.6 48.6 9.6 3.2.4 6.5.8 9.7 1.2 19.2 2.6 36.3 5.4 51.7 14.4 2.7 1.5 5.1 3.6 7.5 5.7.8.7 1.6 1.4 2.4 2-.1.2-.2.3-.3.4-.6-.4-1.2-.8-1.9-1.2z"/><path fill="#E7DAC6" d="M94.7 324.7c3.7-.5 7.6-2.1 12.1-4.8 5-3 10-6.5 14.7-9.8 4-2.8 8-5.7 12.2-8.3 11.8-7.5 25.5-11.3 38.7-15l.9-.3c2.7-.8 5.4-1.5 8.1-2.2 10.3-2.8 20.9-5.6 30.1-10.7 27.2-15.2 43.6-38.1 48.8-68.3 1.7-10.1 2.2-21 1.6-34.4-.8-17.2-.9-35.7 2.9-54.4 2.4-12.1 4.4-25.1 6.5-42.1 1.6-13-2.6-25.5-12.8-38.3-3.3-4.1-6.7-8.2-10.1-12.1-2.6-3-5.3-6.2-7.9-9.3-1.7-2.1-3-4.3-4.5-6.7-.6-1-1.2-2-1.9-3 .1 0 .1-.1.2-.1 3.1 4 6.3 7.9 9.4 11.8 6.9 8.7 14.1 17.7 20.8 26.7 6.4 8.7 8.8 19.2 7.1 31.3-1.5 10.3-3.1 20.7-4.6 30.7-1.1 7.3-2.3 14.8-3.4 22.1-.8 5.4-1.2 11-1.2 16.5 0 5.7.1 11.5.3 17 .2 7.6.4 15.5.2 23.3-1.2 46.7-18.7 74.8-58.5 94.1-8.9 4.3-18.9 6.7-28.7 9-2.3.6-4.7 1.1-7 1.7-18 4.4-35.7 13.2-55.7 27.7-6.4 4.9-12.4 7.4-18.3 7.9zm-8-.5c-4.4-1.1-9.1-3.7-12.7-7.1-4.8-4.5-11.6-11.5-16-19.4-5.8-10.5-11-21.7-16-32.5-1.8-3.9-3.7-8-5.6-11.9h.1c.4.7.7 1.4 1.1 2.2 1.2 2.3 2.5 4.7 3.6 7.2l4.2 9c3 6.6 6.1 13.4 9.7 19.8 6.7 11.9 14.6 21.4 24.3 29 2.5 1.6 4.8 2.9 7.3 3.7z"/><path fill="#E7DAC6" d="M11.3 371.2c1.8-5.2 3.6-10.4 5.4-15.5 1.8-5.2 3.6-10.4 5.4-15.5.1 0 .4.1.5.1-1.8 5.2-3.5 10.3-5.2 15.5-1.8 5.2-3.5 10.4-5.3 15.7-.3-.1-.7-.2-.8-.3z"/><path fill="#E7DAC6" d="M822.8 945.5c-1 0-1.8-.4-2.4-1.1-.9-1.1-1.3-3.1-1-5 .7-4.8 2-8.6 3.7-11.4 10.5-16.8 19.5-35.3 28.4-58.2 2.4-6.2 5.7-12.7 10.1-19.8 2.8-4.5 6.5-9.1 12.7-9.1.5 0 1 0 1.5.1h.2c.6 0 1.2-.1 1.7-.1 4.9 0 9 1.9 12.1 5.7 8.4 10.2 12.9 19.5 14.2 29.2 1.5 11-2.2 21.5-11.1 31.2l-.3.3c-11.4 12.5-23.2 25.4-39.7 31.3-9.7 3.5-20.5 5.4-29.3 6.9h-.8zm54.2-104c-5.5 0-10.5 3.2-14 8.7-4.9 7.7-8.5 14.7-11.1 21.3-6.6 16.8-15.8 38.7-29 58.7-1.2 1.7-1.9 3.8-2.5 5.7-.7 2.5-.5 4.7.7 6.1 1 1.3 2.5 2 4.5 2 .5 0 .9 0 1.4-.1 6.9-1 13.6-2.1 20-4.2 20.7-6.8 35.1-21.9 46.3-35.6 5.5-6.6 10.5-14.1 10.2-24v-.1c-.1-.8-.2-1.7-.4-2.6-.3-2.1-.5-4.4-1.4-6.3-3.6-7.8-6.9-14.8-11.1-21.2-3.2-5.3-8.3-8.4-13.6-8.4z"/><path fill="#E7DAC6" d="M921.1 845.9c-2-4.1-3.8-8-4.6-12.3l4.8 12.8c0-.2-.1-.3-.2-.5z"/><path fill="#E7DAC6" d="M1352 57.1c.6-5 1.2-10.1 1.8-15.2 1.1 8.2-.5 15.8-2.7 23.2.3-2.7.6-5.4.9-8z"/><path fill="#E7DAC6" d="M635.2 132.3c-1.3-9.1-.1-22.7 2.9-30.8-2.5 11.3-3.5 21.1-2.9 30.8z"/><path fill="#E7DAC6" d="M1351.1 194.3c-3.4-4.6-3.2-9.3-2.3-12.7 3.1-12 6.7-24.9 11.3-37.5 1.8-4.8 3.6-9.6 5.5-14.3 6.7-17.3 13.6-35.2 16.9-53.9 1.8-10.9 3.1-22.1 4.3-32.9.5-4.5 1-9 1.6-13.5.1-1.1.1-2.2 0-3.3v-.8h.5c0 1 .1 2 .1 2.9.2 2.8.3 5.4 0 8.1-2 24.2-5.9 45.4-12 64.9-2.5 8.2-5.7 16.3-8.7 24.2-1.9 4.9-3.9 10-5.7 15.1l-.7 2c-4.2 12-8.6 24.4-11.9 36.8-.8 3.4-.2 7.1.4 10.9.3 1.3.5 2.6.7 4z"/><path fill="#E7DAC6" d="M1398.7 140.1c-.1-1.6-.2-3.1-.3-4.7-.2-3.5-.5-7.1-.3-10.6.7-9.5 1.6-19.1 2.5-28.5.5-4.9.9-9.7 1.4-14.6.2-2.5.5-5 .8-7.6.9-8.7 1.8-17.8 2.3-26.7.5-9.1.7-18.4 1-27.3.1-5.1.3-10.4.4-15.6.1-1.3.2-2.4.6-3.5v.7c-.1 4.2-.1 8.5-.1 12.7 0 10.9-.1 22.1-.8 33.1-.5 8.3-1.6 16.8-2.7 25-.9 6.7-1.7 13.6-2.3 20.4-.7 9-1.1 18-1.5 26.8-.2 4.5-.4 8.9-.6 13.4-.1 1.7 0 3.4 0 5v1.8h-.1c-.2.2-.2.2-.3.2z"/><path fill="#E7DAC6" d="M912.5 185.8c-4.6 0-9.3-.7-13.9-2.2-7.3-2.2-14.8-4.9-22.9-8.2-9-3.7-14.7-9.6-16.4-17-1.8-7.9 1-17.1 7.7-24.7 6.3-7.2 15-12.9 22.7-18 16.1-10.4 29.2-16.6 42.5-19.9 3.5-.9 7.2-1.4 10.7-1.4 1.3 0 2.6.1 3.8.2 7.4.8 13.3 4.7 17.2 10.8-4.8-6-12.8-10.1-21.3-10.3h-.2c-1.7.4-3.5.7-5.2 1.1-3.7.7-7.5 1.4-10.9 3-14 6.7-29.9 14.3-44.7 23-7 4.2-13.3 10.4-17.5 17.2-4.4 7.3-5.8 14.1-4.1 19.7 1.4 4.9 5.1 8.9 10.9 11.8 9.9 5 20.6 8.9 31.9 11.7 3.8.9 7.5 1.4 11.2 1.4 12 0 23-5 32.8-14.9 10.3-10.5 15.7-24.1 19.3-34.8 1.2-3.6 2.4-8.3 2.6-13.2.1 1.3.1 2.6.1 3.9-4.1 20-10.5 42.4-34.5 55.1-7.1 3.8-14.4 5.7-21.8 5.7z"/><path fill="#E7DAC6" d="M132.4 194.2c-15.6 0-30.6-5.8-44.6-17.3-3.5-2.9-6.5-8-9.2-15.8-1.5-4.5-2.9-9.1-4.1-13.6.9 3 2 5.9 3 8.8 3.9 10.7 8.7 24 23.7 28.1.2 0 .4.2.6.3.2.1.3.2.5.3 11.3 5.5 21.1 8 31 8 1.3 0 2.7 0 4-.1 10.7-.7 21.5-6.2 28.4-14.4 5.2-6.2 7.5-13.3 6.6-20.3.5-9.3-2.6-18.4-9.1-26.9-15.8-20.8-36.9-32.2-62.6-33.8-1.8-.1-3.4-.2-4.9-.2-10.5 0-18.4 2.7-22.9 15.7-2.5 7-2.2 15.1-1.5 20.7.2 2.1.6 4.2 1.1 6.3l-.6-2.4c-.9-3.6-1.9-7.3-2.9-10.9.2-.1.4-.2.5-.3.2-.1.3-.3.3-.5l.3-3c.2-2.4.5-4.9 1-7.2 2.6-12.8 10.2-19.4 22.7-19.6h1.7c33.4 0 58.6 14.7 73.1 42.4 6.6 12.6 6.9 26 .9 36.8-6.1 10.9-17.9 17.9-32.3 18.9h-4.7z"/><path fill="#E7DAC6" d="M515.5 39c1.2-4.1 2.2-7.6 3.1-10.9-.3 1.1-.6 2.1-.8 3.2l-2.1 7.8s-.1 0-.2-.1z"/><path fill="#E7DAC6" d="M1498.6 70.2c3.7-2.9 12.2-5.6 17.3-5.6h.5c-6.7 2.2-12.4 4-17.8 5.6z"/><path fill="#E7DAC6" d="M856.7 482.9c-21.7 0-43-4.8-63.1-14.4-13-6.1-24.1-14.7-33.1-25.5-14.9-17.8-14.1-38.6 2.2-55.7 15.2-16 35.6-27 64.2-34.5 5-1.2 10.3-1.9 15.4-2.6 2.3-.3 4.7-.7 7.1-1 17.5.9 32.6 4.4 46.1 10.8l7 3.3c18.8 8.9 38.2 18 56.7 28 13 7 21.1 19.1 22.9 34.2 2.8 22.8-14.7 44.1-39.2 47.5-26.5 3.7-48 6.5-67.7 8.8-6.1.7-12.3 1.1-18.5 1.1zM852.1 351c-6.1 0-12.1.7-18.1 2-10.9 2.5-22.7 6.4-35.9 12-14 5.8-25.9 14-35.2 24.5-12 13.5-14.9 28.7-7.8 41.7 4.2 7.7 9 14 14.3 18.7 22.1 19.7 50.2 30 85.8 31.4 2-.1 3.9-.2 5.7-.3 4.6-.2 8.7-.4 12.7-.9 20.8-2.5 42.1-5.1 60.4-7.4 10.5-1.3 21.5-3.1 30.6-10.6 10.7-8.9 15.9-17.3 16.7-27.4 1.5-18.9-7-33.8-24.7-43.1-22-11.6-44.9-22.5-70.2-33.3-11.1-4.8-22.7-7.3-34.3-7.3z"/><path fill="#E7DAC6" d="M1111.6 530.9c-3.4 0-6.6-1.8-8.3-4.8l-.5-.9c-2.8-4.8-5-8.7-4.6-17.3v-1.7c0 5.2 1.1 10 3.2 14.8 1.6 3.5 5.2 7 8.9 8.4.6.2 1.2.3 1.8.3 3.3 0 5.6-3.4 7.5-6.1l.1-.1c1.8-2.8 3.7-5.6 5.5-8.3 1.8-2.7 3.7-5.5 5.5-8.3 1.7-2.7 3.4-5.4 4.8-8.2 0 .1-.1.1-.1.2-3.7 7.9-8.7 15.5-13.6 22.8-1.3 2-2.6 3.9-3.9 5.9-1.3 2.2-3.6 3.3-6.3 3.3zm-13.3-26.4c.6-15.2 6.7-28.4 19.6-42.6 1.4-1.5 3.5-2.4 6.1-2.4 4.1 0 8.2 2.2 10 5.4 4.5 7.9 6 16.2 4.6 24.4.2-1.8.2-3.6-.1-5.5.7-7.4-1.5-14-6.5-20.1-2.1-2.6-4.3-3.9-6.7-3.9-1.9 0-3.9.9-6 2.6-7.6 6.2-12.2 14.7-15.6 22.1-3.3 7.2-5.1 13.8-5.4 20z"/><path fill="#E7DAC6" d="M1224.4 739c-.7 0-1.5 0-2.2-.1-8.7-.7-14-6.1-14.1-14.6.1-1.6.1-3.3.1-5 .4-16.9 6.4-32.4 12.1-45.4 8.3-18.6 21.2-35.5 39.4-51.5 3.8-3.4 9-7.2 15.2-7.2 2.3 0 4.7.6 7.1 1.6 4.6 2.1 7.2 5.1 8.1 9.2 5.9 27.9 2.6 50.9-10.2 70.2-9.8 14.8-20.4 25.9-32.4 33.9-6.7 4.6-14.1 8.9-23.1 8.9zm51.8-122.3c-3.9 0-8.3 1.6-12.7 4.6-2.3 1.6-4.3 3.5-6.3 5.5-.8.7-1.5 1.5-2.3 2.2-23.7 22.3-38.1 47.2-43.9 76-.2.8-.3 1.6-.5 2.4-1.3 5.9-2.6 12-1.2 18.4 1.5 6.9 5.3 10.7 11.9 12 1.3.3 2.7.4 4 .4 6.5 0 12.1-3.2 17.4-6.2l1.5-.8c9.4-5.3 16.6-13.2 23.7-20.8 1.5-1.6 2.9-3.2 4.4-4.8 15.6-16.9 19.2-37.8 20.6-54.3v-.1c-.2-2.3-.4-4.4-.5-6.3-.3-4-.6-7.5-1-11-1.4-10.8-7-17.2-15.1-17.2z"/><path fill="#E7DAC6" d="M221 793.8c-2.9 0-5.3-1.2-7.1-2.2-17.8-10.1-25.3-28.4-24.9-44.9.3 6.4 2.5 12.8 4.6 19v.1c4.1 12.1 13.7 19.6 20.6 24.3 2.1 1.4 4.8 2 7.7 2.7.7.2 1.5.3 2.2.5-1.1.4-2.1.5-3.1.5zm13.7-.2c-.6 0-1.3-.1-1.9-.2 8.7-1.6 15-7.1 21.1-12.6 1.3-1.1 2.5-2.2 3.8-3.3 15.8-13.4 28.1-26.7 37.6-40.6 9.6-14 9.3-27-.9-39.9-10.5-13.3-22.6-19.7-37-19.7-2 0-4 .1-6 .4-14.2 1.7-24.3 9.8-35 19.5-11.8 10.6-19 24.6-24.9 36.8-.6 1.3-1.1 2.7-1.5 4 .4-1.8.8-3.6 1.4-5.3 2.8-8.3 7.8-16.9 15.9-27.2 10-12.8 21-21.6 33.6-26.9 4.5-1.9 9.4-2.8 14.8-2.8 10.2 0 20.9 3.5 29.3 9.7 6.5 4.8 14.8 13.3 17 27 1.3 8.2 0 15.5-3.9 21.6-13.6 21.3-31.6 39.8-55.2 56.5-2.8 2-5.5 3-8.2 3z"/><path fill="#E7DAC6" d="M845.2 450.8c-7.2 0-14.2-1-20.8-2.9-10.2-3-17-7.6-21.5-14.3-6.6-9.8-6.5-19.4.5-29.3 8.5-11.9 27.2-21.6 41.9-21.6h.3c12.8 0 22.4 7 32.8 15.4 1.4 1.1 2.6 2.5 3.9 3.7 1.3 1.3 2.6 2.7 4 3.9 4.3 3.5 6.8 8.1 7.1 13.2.4 5.8-2 11.8-6.8 16.8-7 7.4-16.2 12.1-27.5 13.9-4.7.8-9.4 1.2-13.9 1.2zm-.8-1.8h4.5c12-.5 27.2-2.8 37.9-16 9-11.1 7.6-16.2.7-24.1-3.9-4.5-8.2-8.7-13-12.5-10.8-8.5-19.9-12.3-29.5-12.3-3.7 0-7.5.6-11.3 1.8-14 4.5-23.8 11.1-30.6 21-6.9 10-5.4 21.3 3.9 29.6 9.4 8.4 21 12.5 35.6 12.5.6.1 1.2.1 1.8 0z"/></svg>